G75*
%MOIN*%
%OFA0B0*%
%FSLAX24Y24*%
%IPPOS*%
%LPD*%
%AMOC8*
5,1,8,0,0,1.08239X$1,22.5*
%
%ADD10C,0.0060*%
%ADD11C,0.0050*%
%ADD12C,0.0080*%
%ADD13C,0.0040*%
%ADD14C,0.0070*%
%ADD15C,0.0100*%
%ADD16C,0.0059*%
D10*
X003279Y003364D02*
X003279Y003420D01*
X003506Y003420D01*
X003279Y003364D02*
X003506Y003137D01*
X003506Y003080D01*
X003680Y002280D02*
X003680Y002120D01*
X003760Y002200D02*
X003600Y002200D01*
X003600Y001850D02*
X003760Y001850D01*
X004600Y001850D02*
X004760Y001850D01*
X004680Y002120D02*
X004680Y002280D01*
X004760Y002200D02*
X004600Y002200D01*
X004449Y003080D02*
X004336Y003080D01*
X004279Y003137D01*
X004279Y003193D01*
X004336Y003250D01*
X004506Y003250D01*
X004506Y003137D01*
X004449Y003080D01*
X004506Y003250D02*
X004393Y003364D01*
X004279Y003420D01*
X005279Y003420D02*
X005506Y003420D01*
X005506Y003250D01*
X005393Y003307D01*
X005336Y003307D01*
X005279Y003250D01*
X005279Y003137D01*
X005336Y003080D01*
X005449Y003080D01*
X005506Y003137D01*
X006279Y003250D02*
X006506Y003250D01*
X006336Y003420D01*
X006336Y003080D01*
X006680Y002280D02*
X006680Y002120D01*
X006760Y002200D02*
X006600Y002200D01*
X006600Y001850D02*
X006760Y001850D01*
X007600Y001850D02*
X007760Y001850D01*
X007680Y002120D02*
X007680Y002280D01*
X007760Y002200D02*
X007600Y002200D01*
X007449Y003080D02*
X007336Y003080D01*
X007279Y003137D01*
X007279Y003193D01*
X007336Y003250D01*
X007393Y003250D01*
X007336Y003250D02*
X007279Y003307D01*
X007279Y003364D01*
X007336Y003420D01*
X007449Y003420D01*
X007506Y003364D01*
X007506Y003137D02*
X007449Y003080D01*
X008279Y003080D02*
X008506Y003080D01*
X008279Y003307D01*
X008279Y003364D01*
X008336Y003420D01*
X008449Y003420D01*
X008506Y003364D01*
X008522Y004157D02*
X008522Y004377D01*
X008412Y004377D01*
X008375Y004340D01*
X008375Y004267D01*
X008412Y004230D01*
X008522Y004230D01*
X008264Y004267D02*
X008227Y004230D01*
X008154Y004230D01*
X008117Y004267D01*
X008117Y004340D01*
X008154Y004377D01*
X008227Y004377D01*
X008264Y004340D01*
X008264Y004267D01*
X008006Y004303D02*
X007933Y004377D01*
X007896Y004377D01*
X007791Y004377D02*
X007718Y004377D01*
X007755Y004413D02*
X007755Y004267D01*
X007718Y004230D01*
X008006Y004230D02*
X008006Y004377D01*
X007969Y004650D02*
X007859Y004650D01*
X007969Y004650D02*
X008006Y004687D01*
X008006Y004760D01*
X007969Y004797D01*
X007859Y004797D01*
X007748Y004870D02*
X007748Y004650D01*
X007748Y004723D02*
X007638Y004797D01*
X007533Y004760D02*
X007497Y004797D01*
X007423Y004797D01*
X007387Y004760D01*
X007387Y004723D01*
X007533Y004723D01*
X007533Y004687D02*
X007533Y004760D01*
X007533Y004687D02*
X007497Y004650D01*
X007423Y004650D01*
X007276Y004650D02*
X007276Y004797D01*
X007276Y004723D02*
X007202Y004797D01*
X007166Y004797D01*
X007638Y004650D02*
X007748Y004723D01*
X008117Y004723D02*
X008227Y004723D01*
X008264Y004687D01*
X008227Y004650D01*
X008117Y004650D01*
X008117Y004760D01*
X008154Y004797D01*
X008227Y004797D01*
X008375Y004760D02*
X008375Y004650D01*
X008375Y004760D02*
X008412Y004797D01*
X008485Y004797D01*
X008522Y004760D01*
X008522Y004870D02*
X008522Y004650D01*
X009393Y003420D02*
X009393Y003080D01*
X009506Y003080D02*
X009279Y003080D01*
X009506Y003307D02*
X009393Y003420D01*
X010279Y003364D02*
X010279Y003137D01*
X010336Y003080D01*
X010449Y003080D01*
X010506Y003137D01*
X010279Y003364D01*
X010336Y003420D01*
X010449Y003420D01*
X010506Y003364D01*
X010506Y003137D01*
X010680Y002280D02*
X010680Y002120D01*
X010760Y002200D02*
X010600Y002200D01*
X010600Y001850D02*
X010760Y001850D01*
X009760Y001850D02*
X009600Y001850D01*
X009680Y002120D02*
X009680Y002280D01*
X009760Y002200D02*
X009600Y002200D01*
X008760Y002200D02*
X008600Y002200D01*
X008680Y002280D02*
X008680Y002120D01*
X008760Y001850D02*
X008600Y001850D01*
X005760Y001850D02*
X005600Y001850D01*
X005680Y002120D02*
X005680Y002280D01*
X005760Y002200D02*
X005600Y002200D01*
D11*
X005490Y003825D02*
X005490Y004025D01*
X005424Y004025D02*
X005557Y004025D01*
X005327Y004025D02*
X005193Y003825D01*
X005327Y003825D02*
X005193Y004025D01*
X004557Y004025D02*
X004557Y003825D01*
X004557Y003892D02*
X004457Y003892D01*
X004424Y003925D01*
X004424Y003992D01*
X004457Y004025D01*
X004557Y004025D01*
X004490Y003892D02*
X004424Y003825D01*
X004327Y003825D02*
X004193Y004025D01*
X004327Y004025D02*
X004193Y003825D01*
X006021Y003892D02*
X006021Y004025D01*
X006154Y004025D02*
X006154Y003892D01*
X006087Y003825D01*
X006021Y003892D01*
X006251Y003892D02*
X006251Y003858D01*
X006284Y003825D01*
X006351Y003825D01*
X006384Y003858D01*
X006466Y003858D02*
X006466Y003825D01*
X006499Y003825D01*
X006499Y003858D01*
X006466Y003858D01*
X006596Y003858D02*
X006630Y003825D01*
X006696Y003825D01*
X006730Y003858D01*
X006663Y003925D02*
X006630Y003925D01*
X006596Y003892D01*
X006596Y003858D01*
X006630Y003925D02*
X006596Y003958D01*
X006596Y003992D01*
X006630Y004025D01*
X006696Y004025D01*
X006730Y003992D01*
X006384Y003992D02*
X006351Y004025D01*
X006284Y004025D01*
X006251Y003992D01*
X006251Y003958D01*
X006284Y003925D01*
X006251Y003892D01*
X006284Y003925D02*
X006318Y003925D01*
X006342Y006075D02*
X006308Y006108D01*
X006308Y006242D01*
X006342Y006275D01*
X006442Y006275D01*
X006442Y006075D01*
X006342Y006075D01*
X006212Y006108D02*
X006212Y006242D01*
X006178Y006275D01*
X006112Y006275D01*
X006078Y006242D01*
X006078Y006108D01*
X006112Y006075D01*
X006178Y006075D01*
X006212Y006108D01*
X006539Y006275D02*
X006672Y006275D01*
X006605Y006275D02*
X006605Y006075D01*
X007107Y006075D02*
X007173Y006075D01*
X007140Y006075D02*
X007140Y006275D01*
X007173Y006275D02*
X007107Y006275D01*
X007270Y006242D02*
X007270Y006108D01*
X007303Y006075D01*
X007404Y006075D01*
X007404Y006275D01*
X007303Y006275D01*
X007270Y006242D01*
X007500Y006275D02*
X007634Y006275D01*
X007567Y006275D02*
X007567Y006075D01*
X007963Y006075D02*
X008063Y006175D01*
X008097Y006142D02*
X007963Y006275D01*
X008097Y006275D02*
X008097Y006075D01*
X008193Y006075D02*
X008327Y006075D01*
X008327Y006275D01*
X008424Y006242D02*
X008457Y006275D01*
X008524Y006275D01*
X008557Y006242D01*
X008557Y006108D01*
X008524Y006075D01*
X008457Y006075D01*
X008424Y006108D01*
X008654Y006275D02*
X008787Y006275D01*
X008720Y006275D02*
X008720Y006075D01*
X009078Y006108D02*
X009078Y006242D01*
X009112Y006275D01*
X009212Y006275D01*
X009212Y006075D01*
X009112Y006075D01*
X009078Y006108D01*
X009308Y006075D02*
X009308Y006275D01*
X009442Y006275D02*
X009308Y006075D01*
X009442Y006075D02*
X009442Y006275D01*
X009539Y006242D02*
X009572Y006275D01*
X009639Y006275D01*
X009672Y006242D01*
X009672Y006108D01*
X009639Y006075D01*
X009572Y006075D01*
X009539Y006108D01*
X009539Y006175D01*
X009605Y006175D01*
X009527Y006975D02*
X009527Y007108D01*
X009527Y007205D02*
X009527Y007339D01*
X009527Y007435D02*
X009527Y007535D01*
X009560Y007569D01*
X009694Y007569D01*
X009727Y007535D01*
X009727Y007435D01*
X009527Y007435D01*
X009727Y007339D02*
X009727Y007205D01*
X009527Y007205D01*
X009627Y007205D02*
X009627Y007272D01*
X009727Y006975D02*
X009527Y006975D01*
X009560Y007896D02*
X009527Y007929D01*
X009527Y007996D01*
X009560Y008029D01*
X009560Y008126D02*
X009527Y008159D01*
X009527Y008226D01*
X009560Y008259D01*
X009627Y008259D01*
X009660Y008226D01*
X009660Y008159D01*
X009627Y008126D01*
X009560Y008126D01*
X009694Y008029D02*
X009727Y007996D01*
X009727Y007929D01*
X009694Y007896D01*
X009560Y007896D01*
X009527Y008356D02*
X009660Y008356D01*
X009660Y008456D01*
X009627Y008490D01*
X009527Y008490D01*
X009560Y008620D02*
X009527Y008653D01*
X009560Y008620D02*
X009694Y008620D01*
X009660Y008653D02*
X009660Y008586D01*
X009660Y008740D02*
X009527Y008740D01*
X009594Y008740D02*
X009660Y008807D01*
X009660Y008840D01*
X009627Y008932D02*
X009560Y008932D01*
X009527Y008965D01*
X009527Y009032D01*
X009560Y009065D01*
X009627Y009065D01*
X009660Y009032D01*
X009660Y008965D01*
X009627Y008932D01*
X009727Y009162D02*
X009727Y009195D01*
X009527Y009195D01*
X009527Y009162D02*
X009527Y009229D01*
X009527Y009315D02*
X009527Y009382D01*
X009527Y009349D02*
X009727Y009349D01*
X009727Y009315D01*
X009627Y009469D02*
X009560Y009469D01*
X009527Y009502D01*
X009527Y009569D01*
X009594Y009602D02*
X009594Y009469D01*
X009627Y009469D02*
X009660Y009502D01*
X009660Y009569D01*
X009627Y009602D01*
X009594Y009602D01*
X009594Y009699D02*
X009660Y009766D01*
X009660Y009799D01*
X009660Y009699D02*
X009527Y009699D01*
X005672Y006275D02*
X005539Y006275D01*
X005605Y006275D02*
X005605Y006075D01*
X005442Y006075D02*
X005442Y006275D01*
X005375Y006208D01*
X005308Y006275D01*
X005308Y006075D01*
X005212Y006108D02*
X005178Y006075D01*
X005112Y006075D01*
X005078Y006108D01*
X005078Y006142D01*
X005112Y006175D01*
X005178Y006175D01*
X005212Y006208D01*
X005212Y006242D01*
X005178Y006275D01*
X005112Y006275D01*
X005078Y006242D01*
X004672Y006275D02*
X004672Y006075D01*
X004672Y006142D02*
X004572Y006142D01*
X004539Y006175D01*
X004539Y006242D01*
X004572Y006275D01*
X004672Y006275D01*
X004605Y006142D02*
X004539Y006075D01*
X004442Y006108D02*
X004409Y006075D01*
X004342Y006075D01*
X004308Y006108D01*
X004308Y006142D01*
X004342Y006175D01*
X004409Y006175D01*
X004442Y006208D01*
X004442Y006242D01*
X004409Y006275D01*
X004342Y006275D01*
X004308Y006242D01*
X004212Y006275D02*
X004078Y006275D01*
X004145Y006275D02*
X004145Y006075D01*
X008963Y003992D02*
X008963Y003958D01*
X008997Y003925D01*
X009097Y003925D01*
X009097Y003825D02*
X008997Y003825D01*
X008963Y003858D01*
X008963Y003892D01*
X008997Y003925D01*
X008963Y003992D02*
X008997Y004025D01*
X009097Y004025D01*
X009097Y003825D01*
X009193Y003858D02*
X009227Y003825D01*
X009293Y003825D01*
X009327Y003858D01*
X009293Y003925D02*
X009227Y003925D01*
X009193Y003892D01*
X009193Y003858D01*
X009293Y003925D02*
X009327Y003958D01*
X009327Y003992D01*
X009293Y004025D01*
X009227Y004025D01*
X009193Y003992D01*
X009424Y004025D02*
X009424Y003858D01*
X009457Y003825D01*
X009524Y003825D01*
X009557Y003858D01*
X009557Y004025D01*
X009654Y004025D02*
X009654Y003892D01*
X009720Y003825D01*
X009787Y003892D01*
X009787Y004025D01*
D12*
X009952Y003750D02*
X009950Y003733D01*
X009946Y003716D01*
X009939Y003700D01*
X009929Y003686D01*
X009916Y003673D01*
X009902Y003663D01*
X009886Y003656D01*
X009869Y003652D01*
X009852Y003650D01*
X003852Y003650D01*
X003835Y003652D01*
X003818Y003656D01*
X003802Y003663D01*
X003788Y003673D01*
X003775Y003686D01*
X003765Y003700D01*
X003758Y003716D01*
X003754Y003733D01*
X003752Y003750D01*
X003752Y006350D01*
X003754Y006367D01*
X003758Y006384D01*
X003765Y006400D01*
X003775Y006414D01*
X003788Y006427D01*
X003802Y006437D01*
X003818Y006444D01*
X003835Y006448D01*
X003852Y006450D01*
X009852Y006450D01*
X009869Y006448D01*
X009886Y006444D01*
X009902Y006437D01*
X009916Y006427D01*
X009929Y006414D01*
X009939Y006400D01*
X009946Y006384D01*
X009950Y006367D01*
X009952Y006350D01*
X009952Y003750D01*
X009932Y006970D02*
X010412Y006970D01*
X010412Y007290D01*
X010172Y007130D02*
X010172Y006970D01*
X010012Y007485D02*
X010092Y007565D01*
X010092Y007806D01*
X010172Y007806D02*
X009932Y007806D01*
X009932Y007565D01*
X010012Y007485D01*
X010252Y007565D02*
X010252Y007725D01*
X010172Y007806D01*
X010172Y008001D02*
X010012Y008001D01*
X009932Y008081D01*
X009932Y008321D01*
X010412Y008321D01*
X010252Y008321D02*
X010252Y008081D01*
X010172Y008001D01*
X010172Y008517D02*
X010012Y008517D01*
X009932Y008597D01*
X009932Y008757D01*
X010092Y008837D02*
X010092Y008517D01*
X010172Y008517D02*
X010252Y008597D01*
X010252Y008757D01*
X010172Y008837D01*
X010092Y008837D01*
X010172Y009032D02*
X010012Y009032D01*
X009932Y009112D01*
X009932Y009352D01*
X010012Y009548D02*
X010092Y009628D01*
X010092Y009868D01*
X010172Y009868D02*
X010252Y009788D01*
X010252Y009628D01*
X010172Y009868D02*
X009932Y009868D01*
X009932Y009628D01*
X010012Y009548D01*
X010252Y009352D02*
X010252Y009112D01*
X010172Y009032D01*
X010252Y010063D02*
X009932Y010063D01*
X010252Y010063D02*
X010252Y010304D01*
X010172Y010384D01*
X009932Y010384D01*
X010012Y010579D02*
X010172Y010579D01*
X010252Y010659D01*
X010252Y010899D01*
X010412Y010899D02*
X009932Y010899D01*
X009932Y010659D01*
X010012Y010579D01*
X010012Y011095D02*
X009932Y011175D01*
X009932Y011415D01*
X009852Y011415D02*
X009772Y011335D01*
X009772Y011255D01*
X009852Y011415D02*
X010252Y011415D01*
X010252Y011095D02*
X010012Y011095D01*
D13*
X010132Y005535D02*
X010265Y005535D01*
X010332Y005468D01*
X010265Y005401D01*
X010132Y005401D01*
X010232Y005401D02*
X010232Y005535D01*
X010265Y005093D02*
X010132Y005026D01*
X010265Y004960D01*
X010232Y004872D02*
X010199Y004872D01*
X010199Y004739D01*
X010232Y004739D02*
X010265Y004772D01*
X010265Y004839D01*
X010232Y004872D01*
X010132Y004839D02*
X010132Y004772D01*
X010165Y004739D01*
X010232Y004739D01*
X010232Y004651D02*
X010199Y004618D01*
X010199Y004518D01*
X010199Y004584D02*
X010132Y004651D01*
X010232Y004651D02*
X010299Y004651D01*
X010332Y004618D01*
X010332Y004518D01*
X010132Y004518D01*
D14*
X003758Y012348D02*
X003572Y012348D01*
X003665Y012348D02*
X003665Y012628D01*
X003758Y012534D01*
X003873Y012581D02*
X003873Y012674D01*
X003873Y012581D02*
X003920Y012534D01*
X004000Y012873D02*
X004000Y013153D01*
X003907Y013059D01*
X003813Y013153D01*
X003813Y012873D01*
X003678Y012873D02*
X003491Y012873D01*
X003356Y012919D02*
X003309Y012873D01*
X003216Y012873D01*
X003169Y012919D01*
X003169Y012966D01*
X003216Y013013D01*
X003309Y013013D01*
X003356Y013059D01*
X003356Y013106D01*
X003309Y013153D01*
X003216Y013153D01*
X003169Y013106D01*
X003491Y013153D02*
X003678Y013153D01*
X003678Y012873D01*
X003678Y013013D02*
X003585Y013013D01*
X003390Y012628D02*
X003296Y012628D01*
X003249Y012581D01*
X003249Y012534D01*
X003296Y012488D01*
X003249Y012441D01*
X003249Y012394D01*
X003296Y012348D01*
X003390Y012348D01*
X003436Y012394D01*
X003343Y012488D02*
X003296Y012488D01*
X003436Y012581D02*
X003390Y012628D01*
D15*
X002852Y011450D02*
X002852Y008050D01*
X002852Y006950D01*
X008952Y006950D01*
X009010Y006956D01*
X009067Y006973D01*
X009118Y007001D01*
X009164Y007038D01*
X009201Y007083D01*
X009229Y007135D01*
X009246Y007191D01*
X009252Y007250D01*
X009252Y011150D01*
X009246Y011209D01*
X009229Y011265D01*
X009201Y011317D01*
X009164Y011362D01*
X009118Y011399D01*
X009067Y011427D01*
X009010Y011444D01*
X008952Y011450D01*
X002852Y011450D01*
X002852Y011393D02*
X009127Y011393D01*
X009213Y011294D02*
X002852Y011294D01*
X002852Y011196D02*
X009247Y011196D01*
X009252Y011097D02*
X002852Y011097D01*
X002852Y010999D02*
X009252Y010999D01*
X009252Y010900D02*
X002852Y010900D01*
X002852Y010802D02*
X009252Y010802D01*
X009252Y010703D02*
X007780Y010703D01*
X007776Y010706D02*
X007808Y010675D01*
X007832Y010637D01*
X007847Y010595D01*
X007852Y010550D01*
X007852Y007950D01*
X007845Y007888D01*
X007826Y007828D01*
X007794Y007774D01*
X007753Y007727D01*
X007702Y007690D01*
X007644Y007665D01*
X007583Y007652D01*
X007520Y007652D01*
X007459Y007665D01*
X007402Y007690D01*
X007351Y007727D01*
X007309Y007774D01*
X007278Y007828D01*
X007258Y007888D01*
X007252Y007950D01*
X007252Y008650D01*
X006152Y008650D01*
X006152Y008250D01*
X006144Y008163D01*
X006122Y008079D01*
X006085Y008000D01*
X006035Y007929D01*
X005973Y007867D01*
X005902Y007817D01*
X005823Y007780D01*
X005739Y007758D01*
X005652Y007750D01*
X004552Y007750D01*
X004493Y007756D01*
X004437Y007773D01*
X004385Y007801D01*
X004340Y007838D01*
X004302Y007883D01*
X004275Y007935D01*
X004258Y007991D01*
X004252Y008050D01*
X002852Y008050D01*
X004252Y008050D01*
X004258Y008109D01*
X004275Y008165D01*
X004302Y008217D01*
X004340Y008262D01*
X004385Y008299D01*
X004437Y008327D01*
X004493Y008344D01*
X004552Y008350D01*
X005252Y008350D01*
X005310Y008356D01*
X005367Y008373D01*
X005418Y008401D01*
X005464Y008438D01*
X005501Y008483D01*
X005529Y008535D01*
X005546Y008591D01*
X005552Y008650D01*
X005552Y008750D01*
X005546Y008809D01*
X005529Y008865D01*
X005501Y008917D01*
X005464Y008962D01*
X005418Y008999D01*
X005367Y009027D01*
X005310Y009044D01*
X005252Y009050D01*
X004552Y009050D01*
X004493Y009056D01*
X004437Y009073D01*
X004385Y009101D01*
X004340Y009138D01*
X004302Y009183D01*
X004275Y009235D01*
X004258Y009291D01*
X004252Y009350D01*
X004258Y009409D01*
X004275Y009465D01*
X004302Y009517D01*
X004340Y009562D01*
X004385Y009599D01*
X004437Y009627D01*
X004493Y009644D01*
X004552Y009650D01*
X005652Y009650D01*
X005739Y009642D01*
X005823Y009620D01*
X005902Y009583D01*
X005973Y009533D01*
X006035Y009471D01*
X006085Y009400D01*
X006122Y009321D01*
X006144Y009237D01*
X006152Y009150D01*
X006152Y008650D01*
X007252Y008650D01*
X007252Y008950D01*
X006752Y008950D01*
X006689Y008957D01*
X006630Y008976D01*
X006575Y009007D01*
X006529Y009049D01*
X006492Y009100D01*
X006466Y009157D01*
X006453Y009219D01*
X006453Y009281D01*
X006466Y009343D01*
X006492Y009400D01*
X006529Y009451D01*
X006575Y009493D01*
X006630Y009524D01*
X006689Y009543D01*
X006752Y009550D01*
X007252Y009550D01*
X007252Y010150D01*
X005952Y010150D01*
X005889Y010157D01*
X005830Y010176D01*
X005775Y010207D01*
X005729Y010249D01*
X005692Y010300D01*
X005666Y010357D01*
X005653Y010419D01*
X005653Y010481D01*
X005666Y010543D01*
X005692Y010600D01*
X005729Y010651D01*
X005775Y010693D01*
X005830Y010724D01*
X005889Y010743D01*
X005952Y010750D01*
X007652Y010750D01*
X007696Y010745D01*
X007739Y010730D01*
X007776Y010706D01*
X007843Y010605D02*
X009252Y010605D01*
X009252Y010506D02*
X007852Y010506D01*
X007852Y010408D02*
X009252Y010408D01*
X009252Y010309D02*
X007852Y010309D01*
X007852Y010211D02*
X009252Y010211D01*
X009252Y010112D02*
X007852Y010112D01*
X007852Y010014D02*
X009252Y010014D01*
X009252Y009915D02*
X007852Y009915D01*
X007852Y009817D02*
X009252Y009817D01*
X009252Y009718D02*
X007852Y009718D01*
X007852Y009620D02*
X009252Y009620D01*
X009252Y009521D02*
X007852Y009521D01*
X007852Y009423D02*
X009252Y009423D01*
X009252Y009324D02*
X007852Y009324D01*
X007852Y009226D02*
X009252Y009226D01*
X009252Y009127D02*
X007852Y009127D01*
X007852Y009029D02*
X009252Y009029D01*
X009252Y008930D02*
X007852Y008930D01*
X007852Y008832D02*
X009252Y008832D01*
X009252Y008733D02*
X007852Y008733D01*
X007852Y008635D02*
X009252Y008635D01*
X009252Y008536D02*
X007852Y008536D01*
X007852Y008438D02*
X009252Y008438D01*
X009252Y008339D02*
X007852Y008339D01*
X007852Y008241D02*
X009252Y008241D01*
X009252Y008142D02*
X007852Y008142D01*
X007852Y008044D02*
X009252Y008044D01*
X009252Y007945D02*
X007851Y007945D01*
X007832Y007847D02*
X009252Y007847D01*
X009252Y007748D02*
X007771Y007748D01*
X007332Y007748D02*
X002852Y007748D01*
X002852Y007650D02*
X009252Y007650D01*
X009252Y007551D02*
X002852Y007551D01*
X002852Y007453D02*
X009252Y007453D01*
X009252Y007354D02*
X002852Y007354D01*
X002852Y007256D02*
X009252Y007256D01*
X009236Y007157D02*
X002852Y007157D01*
X002852Y007059D02*
X009181Y007059D01*
X009024Y006960D02*
X002852Y006960D01*
X002852Y007847D02*
X004333Y007847D01*
X004272Y007945D02*
X002852Y007945D01*
X002852Y008044D02*
X004252Y008044D01*
X004268Y008142D02*
X002852Y008142D01*
X002852Y008241D02*
X004322Y008241D01*
X004476Y008339D02*
X002852Y008339D01*
X002852Y008438D02*
X005463Y008438D01*
X005529Y008536D02*
X002852Y008536D01*
X002852Y008635D02*
X005550Y008635D01*
X005552Y008733D02*
X002852Y008733D01*
X002852Y008832D02*
X005539Y008832D01*
X005490Y008930D02*
X002852Y008930D01*
X002852Y009029D02*
X005362Y009029D01*
X005823Y009620D02*
X007252Y009620D01*
X007252Y009718D02*
X002852Y009718D01*
X002852Y009620D02*
X004423Y009620D01*
X004306Y009521D02*
X002852Y009521D01*
X002852Y009423D02*
X004262Y009423D01*
X004254Y009324D02*
X002852Y009324D01*
X002852Y009226D02*
X004280Y009226D01*
X004353Y009127D02*
X002852Y009127D01*
X002852Y009817D02*
X007252Y009817D01*
X007252Y009915D02*
X002852Y009915D01*
X002852Y010014D02*
X007252Y010014D01*
X007252Y010112D02*
X002852Y010112D01*
X002852Y010211D02*
X005772Y010211D01*
X005688Y010309D02*
X002852Y010309D01*
X002852Y010408D02*
X005656Y010408D01*
X005659Y010506D02*
X002852Y010506D01*
X002852Y010605D02*
X005695Y010605D01*
X005793Y010703D02*
X002852Y010703D01*
X005985Y009521D02*
X006624Y009521D01*
X006508Y009423D02*
X006069Y009423D01*
X006120Y009324D02*
X006462Y009324D01*
X006453Y009226D02*
X006145Y009226D01*
X006152Y009127D02*
X006480Y009127D01*
X006552Y009029D02*
X006152Y009029D01*
X006152Y008930D02*
X007252Y008930D01*
X007252Y008832D02*
X006152Y008832D01*
X006152Y008733D02*
X007252Y008733D01*
X007252Y008635D02*
X006152Y008635D01*
X006152Y008536D02*
X007252Y008536D01*
X007252Y008438D02*
X006152Y008438D01*
X006152Y008339D02*
X007252Y008339D01*
X007252Y008241D02*
X006151Y008241D01*
X006139Y008142D02*
X007252Y008142D01*
X007252Y008044D02*
X006105Y008044D01*
X006046Y007945D02*
X007252Y007945D01*
X007272Y007847D02*
X005944Y007847D01*
D16*
X009588Y012185D02*
X009486Y012286D01*
X009607Y012435D01*
X009577Y012495D01*
X009556Y012559D01*
X009366Y012578D01*
X009366Y012722D01*
X009556Y012741D01*
X009577Y012805D01*
X009607Y012865D01*
X009486Y013014D01*
X009588Y013115D01*
X009737Y012994D01*
X009796Y013025D01*
X009860Y013046D01*
X009880Y013236D01*
X010024Y013236D01*
X010043Y013046D01*
X010107Y013025D01*
X010167Y012994D01*
X010315Y013115D01*
X010417Y013014D01*
X010296Y012865D01*
X010327Y012805D01*
X010347Y012741D01*
X010538Y012722D01*
X010538Y012578D01*
X010347Y012559D01*
X010327Y012495D01*
X010296Y012435D01*
X010417Y012286D01*
X010315Y012185D01*
X010167Y012306D01*
X010107Y012275D01*
X010022Y012479D01*
X010060Y012501D01*
X010092Y012530D01*
X010116Y012566D01*
X010131Y012607D01*
X010136Y012650D01*
X010131Y012694D01*
X010115Y012735D01*
X010091Y012772D01*
X010058Y012801D01*
X010019Y012822D01*
X009976Y012833D01*
X009932Y012833D01*
X009889Y012823D01*
X009849Y012803D01*
X009816Y012775D01*
X009790Y012739D01*
X009774Y012698D01*
X009767Y012654D01*
X009772Y012610D01*
X009786Y012568D01*
X009810Y012531D01*
X009843Y012501D01*
X009881Y012479D01*
X009796Y012275D01*
X009737Y012306D01*
X009588Y012185D01*
X009557Y012216D02*
X009626Y012216D01*
X009697Y012273D02*
X009500Y012273D01*
X009523Y012331D02*
X009820Y012331D01*
X009843Y012388D02*
X009570Y012388D01*
X009602Y012446D02*
X009867Y012446D01*
X009840Y012504D02*
X009574Y012504D01*
X009532Y012561D02*
X009791Y012561D01*
X009771Y012619D02*
X009366Y012619D01*
X009366Y012676D02*
X009770Y012676D01*
X009788Y012734D02*
X009481Y012734D01*
X009572Y012791D02*
X009835Y012791D01*
X009789Y013022D02*
X010114Y013022D01*
X010200Y013022D02*
X010409Y013022D01*
X010377Y012964D02*
X009527Y012964D01*
X009494Y013022D02*
X009703Y013022D01*
X009633Y013079D02*
X009552Y013079D01*
X009574Y012906D02*
X010330Y012906D01*
X010305Y012849D02*
X009599Y012849D01*
X009864Y013079D02*
X010040Y013079D01*
X010034Y013137D02*
X009870Y013137D01*
X009876Y013194D02*
X010028Y013194D01*
X010271Y013079D02*
X010352Y013079D01*
X010331Y012791D02*
X010069Y012791D01*
X010116Y012734D02*
X010422Y012734D01*
X010538Y012676D02*
X010133Y012676D01*
X010133Y012619D02*
X010538Y012619D01*
X010371Y012561D02*
X010113Y012561D01*
X010063Y012504D02*
X010330Y012504D01*
X010302Y012446D02*
X010036Y012446D01*
X010060Y012388D02*
X010334Y012388D01*
X010381Y012331D02*
X010084Y012331D01*
X010207Y012273D02*
X010404Y012273D01*
X010346Y012216D02*
X010277Y012216D01*
M02*
