G75*
%MOIN*%
%OFA0B0*%
%FSLAX24Y24*%
%IPPOS*%
%LPD*%
%AMOC8*
5,1,8,0,0,1.08239X$1,22.5*
%
%ADD10R,0.0709X0.0709*%
%ADD11C,0.0554*%
%ADD12OC8,0.0600*%
%ADD13C,0.0080*%
%ADD14C,0.0360*%
%ADD15C,0.0100*%
D10*
X004352Y004550D03*
X004352Y005550D03*
X005352Y005550D03*
X006352Y005550D03*
X006352Y004550D03*
X005352Y004550D03*
X007352Y005550D03*
X008352Y005550D03*
X009352Y005550D03*
X009352Y004550D03*
X008230Y012995D03*
X005474Y012995D03*
D11*
X005868Y011932D03*
X007836Y011932D03*
D12*
X007352Y002550D03*
X008352Y002550D03*
X008352Y001550D03*
X007352Y001550D03*
X006352Y001550D03*
X006352Y002550D03*
X005352Y002550D03*
X005352Y001550D03*
X004352Y001550D03*
X004352Y002550D03*
X003352Y002550D03*
X003352Y001550D03*
X009352Y001550D03*
X010352Y001550D03*
X010352Y002550D03*
X009352Y002550D03*
D13*
X002992Y002316D02*
X002992Y001812D01*
X003170Y001990D01*
X003312Y001990D01*
X003312Y001590D01*
X003392Y001590D01*
X003792Y001590D01*
X003792Y001732D01*
X003534Y001990D01*
X003392Y001990D01*
X003392Y001590D01*
X003392Y001510D01*
X003792Y001510D01*
X003792Y001368D01*
X003614Y001190D01*
X004090Y001190D01*
X003912Y001368D01*
X003912Y001510D01*
X004312Y001510D01*
X004312Y001590D01*
X004312Y001990D01*
X004170Y001990D01*
X003912Y001732D01*
X003912Y001590D01*
X004312Y001590D01*
X004392Y001590D01*
X004792Y001590D01*
X004792Y001732D01*
X004534Y001990D01*
X004392Y001990D01*
X004392Y001590D01*
X004392Y001510D01*
X004792Y001510D01*
X004792Y001368D01*
X004614Y001190D01*
X005090Y001190D01*
X004912Y001368D01*
X004912Y001510D01*
X005312Y001510D01*
X005312Y001590D01*
X005312Y001990D01*
X005170Y001990D01*
X004912Y001732D01*
X004912Y001590D01*
X005312Y001590D01*
X005392Y001590D01*
X005792Y001590D01*
X005792Y001732D01*
X005534Y001990D01*
X005392Y001990D01*
X005392Y001590D01*
X005392Y001510D01*
X005792Y001510D01*
X005792Y001368D01*
X005614Y001190D01*
X006090Y001190D01*
X005912Y001368D01*
X005912Y001510D01*
X006312Y001510D01*
X006312Y001590D01*
X006312Y001990D01*
X006170Y001990D01*
X005912Y001732D01*
X005912Y001590D01*
X006312Y001590D01*
X006392Y001590D01*
X006792Y001590D01*
X006792Y001732D01*
X006534Y001990D01*
X006392Y001990D01*
X006392Y001590D01*
X006392Y001510D01*
X006792Y001510D01*
X006792Y001368D01*
X006614Y001190D01*
X007090Y001190D01*
X006912Y001368D01*
X006912Y001510D01*
X007312Y001510D01*
X007312Y001590D01*
X007312Y001990D01*
X007170Y001990D01*
X006912Y001732D01*
X006912Y001590D01*
X007312Y001590D01*
X007392Y001590D01*
X007792Y001590D01*
X007792Y001732D01*
X007534Y001990D01*
X007392Y001990D01*
X007392Y001590D01*
X007392Y001510D01*
X007792Y001510D01*
X007792Y001368D01*
X007614Y001190D01*
X008090Y001190D01*
X007912Y001368D01*
X007912Y001510D01*
X008312Y001510D01*
X008312Y001590D01*
X008312Y001990D01*
X008170Y001990D01*
X007912Y001732D01*
X007912Y001590D01*
X008312Y001590D01*
X008392Y001590D01*
X008792Y001590D01*
X008792Y001732D01*
X008534Y001990D01*
X008392Y001990D01*
X008392Y001590D01*
X008392Y001510D01*
X008792Y001510D01*
X008792Y001368D01*
X008614Y001190D01*
X009090Y001190D01*
X008912Y001368D01*
X008912Y001510D01*
X009312Y001510D01*
X009312Y001590D01*
X009312Y001990D01*
X009170Y001990D01*
X008912Y001732D01*
X008912Y001590D01*
X009312Y001590D01*
X009392Y001590D01*
X009792Y001590D01*
X009792Y001732D01*
X009534Y001990D01*
X009392Y001990D01*
X009392Y001590D01*
X009392Y001510D01*
X009792Y001510D01*
X009792Y001368D01*
X009614Y001190D01*
X010090Y001190D01*
X009912Y001368D01*
X009912Y001510D01*
X010312Y001510D01*
X010312Y001590D01*
X010312Y001990D01*
X010170Y001990D01*
X009912Y001732D01*
X009912Y001590D01*
X010312Y001590D01*
X010392Y001590D01*
X010392Y001990D01*
X010534Y001990D01*
X010712Y001812D01*
X010712Y002316D01*
X010526Y002130D01*
X010178Y002130D01*
X009932Y002376D01*
X009932Y002724D01*
X010178Y002970D01*
X010526Y002970D01*
X010712Y002784D01*
X010712Y013410D01*
X008711Y013410D01*
X008715Y013403D01*
X008724Y013368D01*
X008724Y013035D01*
X008270Y013035D01*
X008270Y012955D01*
X008724Y012955D01*
X008724Y012622D01*
X008715Y012587D01*
X008696Y012555D01*
X008670Y012529D01*
X008638Y012510D01*
X008602Y012501D01*
X008270Y012501D01*
X008270Y012955D01*
X008190Y012955D01*
X008190Y012501D01*
X007857Y012501D01*
X007821Y012510D01*
X007789Y012529D01*
X007763Y012555D01*
X007745Y012587D01*
X007735Y012622D01*
X007735Y012955D01*
X008190Y012955D01*
X008190Y013035D01*
X007735Y013035D01*
X007735Y013368D01*
X007745Y013403D01*
X007749Y013410D01*
X005955Y013410D01*
X005959Y013403D01*
X005968Y013368D01*
X005968Y013035D01*
X005514Y013035D01*
X005514Y012955D01*
X005968Y012955D01*
X005968Y012622D01*
X005959Y012587D01*
X005940Y012555D01*
X005914Y012529D01*
X005882Y012510D01*
X005847Y012501D01*
X005514Y012501D01*
X005514Y012955D01*
X005434Y012955D01*
X005434Y012501D01*
X005101Y012501D01*
X005065Y012510D01*
X005034Y012529D01*
X005007Y012555D01*
X004989Y012587D01*
X004979Y012622D01*
X004979Y012955D01*
X005434Y012955D01*
X005434Y013035D01*
X004979Y013035D01*
X004979Y013368D01*
X004989Y013403D01*
X004993Y013410D01*
X002992Y013410D01*
X002992Y002784D01*
X003178Y002970D01*
X003526Y002970D01*
X003772Y002724D01*
X003772Y002376D01*
X003526Y002130D01*
X003178Y002130D01*
X002992Y002316D01*
X002992Y002306D02*
X003002Y002306D01*
X002992Y002228D02*
X003080Y002228D01*
X003159Y002149D02*
X002992Y002149D01*
X002992Y002071D02*
X010712Y002071D01*
X010712Y002149D02*
X010545Y002149D01*
X010623Y002228D02*
X010712Y002228D01*
X010702Y002306D02*
X010712Y002306D01*
X010712Y001992D02*
X002992Y001992D01*
X002992Y001914D02*
X003093Y001914D01*
X003015Y001835D02*
X002992Y001835D01*
X003312Y001835D02*
X003392Y001835D01*
X003392Y001757D02*
X003312Y001757D01*
X003312Y001678D02*
X003392Y001678D01*
X003392Y001600D02*
X003312Y001600D01*
X003392Y001521D02*
X004312Y001521D01*
X004312Y001600D02*
X004392Y001600D01*
X004392Y001678D02*
X004312Y001678D01*
X004312Y001757D02*
X004392Y001757D01*
X004392Y001835D02*
X004312Y001835D01*
X004312Y001914D02*
X004392Y001914D01*
X004611Y001914D02*
X005093Y001914D01*
X005015Y001835D02*
X004689Y001835D01*
X004768Y001757D02*
X004936Y001757D01*
X004912Y001678D02*
X004792Y001678D01*
X004792Y001600D02*
X004912Y001600D01*
X004912Y001443D02*
X004792Y001443D01*
X004788Y001364D02*
X004916Y001364D01*
X004994Y001286D02*
X004710Y001286D01*
X004631Y001207D02*
X005073Y001207D01*
X005312Y001521D02*
X004392Y001521D01*
X004073Y001207D02*
X003631Y001207D01*
X003710Y001286D02*
X003994Y001286D01*
X003916Y001364D02*
X003788Y001364D01*
X003792Y001443D02*
X003912Y001443D01*
X003912Y001600D02*
X003792Y001600D01*
X003792Y001678D02*
X003912Y001678D01*
X003936Y001757D02*
X003768Y001757D01*
X003689Y001835D02*
X004015Y001835D01*
X004093Y001914D02*
X003611Y001914D01*
X003392Y001914D02*
X003312Y001914D01*
X003545Y002149D02*
X004159Y002149D01*
X004178Y002130D02*
X004526Y002130D01*
X004772Y002376D01*
X004772Y002724D01*
X004526Y002970D01*
X004178Y002970D01*
X003932Y002724D01*
X003932Y002376D01*
X004178Y002130D01*
X004080Y002228D02*
X003623Y002228D01*
X003702Y002306D02*
X004002Y002306D01*
X003932Y002385D02*
X003772Y002385D01*
X003772Y002463D02*
X003932Y002463D01*
X003932Y002542D02*
X003772Y002542D01*
X003772Y002620D02*
X003932Y002620D01*
X003932Y002699D02*
X003772Y002699D01*
X003719Y002777D02*
X003985Y002777D01*
X004063Y002856D02*
X003640Y002856D01*
X003562Y002934D02*
X004142Y002934D01*
X004562Y002934D02*
X005142Y002934D01*
X005178Y002970D02*
X004932Y002724D01*
X004932Y002376D01*
X005178Y002130D01*
X005526Y002130D01*
X005772Y002376D01*
X005772Y002724D01*
X005526Y002970D01*
X005178Y002970D01*
X005063Y002856D02*
X004640Y002856D01*
X004719Y002777D02*
X004985Y002777D01*
X004932Y002699D02*
X004772Y002699D01*
X004772Y002620D02*
X004932Y002620D01*
X004932Y002542D02*
X004772Y002542D01*
X004772Y002463D02*
X004932Y002463D01*
X004932Y002385D02*
X004772Y002385D01*
X004702Y002306D02*
X005002Y002306D01*
X005080Y002228D02*
X004623Y002228D01*
X004545Y002149D02*
X005159Y002149D01*
X005312Y001914D02*
X005392Y001914D01*
X005392Y001835D02*
X005312Y001835D01*
X005312Y001757D02*
X005392Y001757D01*
X005392Y001678D02*
X005312Y001678D01*
X005312Y001600D02*
X005392Y001600D01*
X005392Y001521D02*
X006312Y001521D01*
X006312Y001600D02*
X006392Y001600D01*
X006392Y001678D02*
X006312Y001678D01*
X006312Y001757D02*
X006392Y001757D01*
X006392Y001835D02*
X006312Y001835D01*
X006312Y001914D02*
X006392Y001914D01*
X006611Y001914D02*
X007093Y001914D01*
X007015Y001835D02*
X006689Y001835D01*
X006768Y001757D02*
X006936Y001757D01*
X006912Y001678D02*
X006792Y001678D01*
X006792Y001600D02*
X006912Y001600D01*
X006912Y001443D02*
X006792Y001443D01*
X006788Y001364D02*
X006916Y001364D01*
X006994Y001286D02*
X006710Y001286D01*
X006631Y001207D02*
X007073Y001207D01*
X007312Y001521D02*
X006392Y001521D01*
X006073Y001207D02*
X005631Y001207D01*
X005710Y001286D02*
X005994Y001286D01*
X005916Y001364D02*
X005788Y001364D01*
X005792Y001443D02*
X005912Y001443D01*
X005912Y001600D02*
X005792Y001600D01*
X005792Y001678D02*
X005912Y001678D01*
X005936Y001757D02*
X005768Y001757D01*
X005689Y001835D02*
X006015Y001835D01*
X006093Y001914D02*
X005611Y001914D01*
X005545Y002149D02*
X006159Y002149D01*
X006178Y002130D02*
X006526Y002130D01*
X006772Y002376D01*
X006772Y002724D01*
X006526Y002970D01*
X006178Y002970D01*
X005932Y002724D01*
X005932Y002376D01*
X006178Y002130D01*
X006080Y002228D02*
X005623Y002228D01*
X005702Y002306D02*
X006002Y002306D01*
X005932Y002385D02*
X005772Y002385D01*
X005772Y002463D02*
X005932Y002463D01*
X005932Y002542D02*
X005772Y002542D01*
X005772Y002620D02*
X005932Y002620D01*
X005932Y002699D02*
X005772Y002699D01*
X005719Y002777D02*
X005985Y002777D01*
X006063Y002856D02*
X005640Y002856D01*
X005562Y002934D02*
X006142Y002934D01*
X006562Y002934D02*
X007142Y002934D01*
X007178Y002970D02*
X006932Y002724D01*
X006932Y002376D01*
X007178Y002130D01*
X007526Y002130D01*
X007772Y002376D01*
X007772Y002724D01*
X007526Y002970D01*
X007178Y002970D01*
X007063Y002856D02*
X006640Y002856D01*
X006719Y002777D02*
X006985Y002777D01*
X006932Y002699D02*
X006772Y002699D01*
X006772Y002620D02*
X006932Y002620D01*
X006932Y002542D02*
X006772Y002542D01*
X006772Y002463D02*
X006932Y002463D01*
X006932Y002385D02*
X006772Y002385D01*
X006702Y002306D02*
X007002Y002306D01*
X007080Y002228D02*
X006623Y002228D01*
X006545Y002149D02*
X007159Y002149D01*
X007312Y001914D02*
X007392Y001914D01*
X007392Y001835D02*
X007312Y001835D01*
X007312Y001757D02*
X007392Y001757D01*
X007392Y001678D02*
X007312Y001678D01*
X007312Y001600D02*
X007392Y001600D01*
X007392Y001521D02*
X008312Y001521D01*
X008312Y001600D02*
X008392Y001600D01*
X008392Y001678D02*
X008312Y001678D01*
X008312Y001757D02*
X008392Y001757D01*
X008392Y001835D02*
X008312Y001835D01*
X008312Y001914D02*
X008392Y001914D01*
X008611Y001914D02*
X009093Y001914D01*
X009015Y001835D02*
X008689Y001835D01*
X008768Y001757D02*
X008936Y001757D01*
X008912Y001678D02*
X008792Y001678D01*
X008792Y001600D02*
X008912Y001600D01*
X008912Y001443D02*
X008792Y001443D01*
X008788Y001364D02*
X008916Y001364D01*
X008994Y001286D02*
X008710Y001286D01*
X008631Y001207D02*
X009073Y001207D01*
X009312Y001521D02*
X008392Y001521D01*
X008073Y001207D02*
X007631Y001207D01*
X007710Y001286D02*
X007994Y001286D01*
X007916Y001364D02*
X007788Y001364D01*
X007792Y001443D02*
X007912Y001443D01*
X007912Y001600D02*
X007792Y001600D01*
X007792Y001678D02*
X007912Y001678D01*
X007936Y001757D02*
X007768Y001757D01*
X007689Y001835D02*
X008015Y001835D01*
X008093Y001914D02*
X007611Y001914D01*
X007545Y002149D02*
X008159Y002149D01*
X008178Y002130D02*
X008526Y002130D01*
X008772Y002376D01*
X008772Y002724D01*
X008526Y002970D01*
X008178Y002970D01*
X007932Y002724D01*
X007932Y002376D01*
X008178Y002130D01*
X008080Y002228D02*
X007623Y002228D01*
X007702Y002306D02*
X008002Y002306D01*
X007932Y002385D02*
X007772Y002385D01*
X007772Y002463D02*
X007932Y002463D01*
X007932Y002542D02*
X007772Y002542D01*
X007772Y002620D02*
X007932Y002620D01*
X007932Y002699D02*
X007772Y002699D01*
X007719Y002777D02*
X007985Y002777D01*
X008063Y002856D02*
X007640Y002856D01*
X007562Y002934D02*
X008142Y002934D01*
X008562Y002934D02*
X009142Y002934D01*
X009178Y002970D02*
X008932Y002724D01*
X008932Y002376D01*
X009178Y002130D01*
X009526Y002130D01*
X009772Y002376D01*
X009772Y002724D01*
X009526Y002970D01*
X009178Y002970D01*
X009063Y002856D02*
X008640Y002856D01*
X008719Y002777D02*
X008985Y002777D01*
X008932Y002699D02*
X008772Y002699D01*
X008772Y002620D02*
X008932Y002620D01*
X008932Y002542D02*
X008772Y002542D01*
X008772Y002463D02*
X008932Y002463D01*
X008932Y002385D02*
X008772Y002385D01*
X008702Y002306D02*
X009002Y002306D01*
X009080Y002228D02*
X008623Y002228D01*
X008545Y002149D02*
X009159Y002149D01*
X009312Y001914D02*
X009392Y001914D01*
X009392Y001835D02*
X009312Y001835D01*
X009312Y001757D02*
X009392Y001757D01*
X009392Y001678D02*
X009312Y001678D01*
X009312Y001600D02*
X009392Y001600D01*
X009392Y001521D02*
X010312Y001521D01*
X010312Y001600D02*
X010392Y001600D01*
X010392Y001678D02*
X010312Y001678D01*
X010312Y001757D02*
X010392Y001757D01*
X010392Y001835D02*
X010312Y001835D01*
X010312Y001914D02*
X010392Y001914D01*
X010611Y001914D02*
X010712Y001914D01*
X010712Y001835D02*
X010689Y001835D01*
X010159Y002149D02*
X009545Y002149D01*
X009623Y002228D02*
X010080Y002228D01*
X010002Y002306D02*
X009702Y002306D01*
X009772Y002385D02*
X009932Y002385D01*
X009932Y002463D02*
X009772Y002463D01*
X009772Y002542D02*
X009932Y002542D01*
X009932Y002620D02*
X009772Y002620D01*
X009772Y002699D02*
X009932Y002699D01*
X009985Y002777D02*
X009719Y002777D01*
X009640Y002856D02*
X010063Y002856D01*
X010142Y002934D02*
X009562Y002934D01*
X009611Y001914D02*
X010093Y001914D01*
X010015Y001835D02*
X009689Y001835D01*
X009768Y001757D02*
X009936Y001757D01*
X009912Y001678D02*
X009792Y001678D01*
X009792Y001600D02*
X009912Y001600D01*
X009912Y001443D02*
X009792Y001443D01*
X009788Y001364D02*
X009916Y001364D01*
X009994Y001286D02*
X009710Y001286D01*
X009631Y001207D02*
X010073Y001207D01*
X010640Y002856D02*
X010712Y002856D01*
X010712Y002934D02*
X010562Y002934D01*
X010712Y003013D02*
X002992Y003013D01*
X002992Y003091D02*
X010712Y003091D01*
X010712Y003170D02*
X002992Y003170D01*
X002992Y003248D02*
X010712Y003248D01*
X010712Y003327D02*
X002992Y003327D01*
X002992Y003405D02*
X010712Y003405D01*
X010712Y003484D02*
X002992Y003484D01*
X002992Y003562D02*
X010712Y003562D01*
X010712Y003641D02*
X002992Y003641D01*
X002992Y003719D02*
X003656Y003719D01*
X003686Y003690D02*
X005718Y003690D01*
X006104Y004076D01*
X006756Y004076D01*
X006826Y004146D01*
X006826Y004954D01*
X006756Y005024D01*
X006012Y005024D01*
X006012Y005076D01*
X006756Y005076D01*
X006826Y005146D01*
X006826Y005954D01*
X006756Y006024D01*
X006512Y006024D01*
X006512Y006364D01*
X006899Y005976D01*
X006877Y005954D01*
X006877Y005146D01*
X006948Y005076D01*
X007756Y005076D01*
X007826Y005146D01*
X007826Y005954D01*
X007790Y005990D01*
X007913Y005990D01*
X007877Y005954D01*
X007877Y005146D01*
X007948Y005076D01*
X008756Y005076D01*
X008826Y005146D01*
X008826Y005954D01*
X008756Y006024D01*
X008504Y006024D01*
X008312Y006216D01*
X008218Y006310D01*
X007318Y006310D01*
X005412Y008216D01*
X005318Y008310D01*
X004652Y008310D01*
X004652Y008410D01*
X004606Y008520D01*
X004522Y008604D01*
X004411Y008650D01*
X004292Y008650D01*
X004182Y008604D01*
X004097Y008520D01*
X004052Y008410D01*
X004052Y008290D01*
X004097Y008180D01*
X004182Y008096D01*
X004292Y008050D01*
X004411Y008050D01*
X004421Y008054D01*
X004486Y007990D01*
X004685Y007990D01*
X004652Y007910D01*
X004652Y007790D01*
X004697Y007680D01*
X004768Y007610D01*
X004610Y007610D01*
X004606Y007620D01*
X004522Y007704D01*
X004411Y007750D01*
X004292Y007750D01*
X004182Y007704D01*
X004097Y007620D01*
X004052Y007510D01*
X004052Y007390D01*
X004097Y007280D01*
X004182Y007196D01*
X004292Y007150D01*
X004411Y007150D01*
X004522Y007196D01*
X004606Y007280D01*
X004610Y007290D01*
X004685Y007290D01*
X004652Y007210D01*
X004652Y007090D01*
X004697Y006980D01*
X004782Y006896D01*
X004892Y006850D01*
X005011Y006850D01*
X005021Y006854D01*
X005026Y006850D01*
X004992Y006850D01*
X004882Y006804D01*
X004797Y006720D01*
X004785Y006691D01*
X004712Y006764D01*
X004601Y006810D01*
X004482Y006810D01*
X004372Y006764D01*
X004287Y006680D01*
X004242Y006570D01*
X004242Y006450D01*
X004263Y006399D01*
X004230Y006354D01*
X004192Y006316D01*
X004192Y006302D01*
X004183Y006291D01*
X004192Y006238D01*
X004192Y006024D01*
X003948Y006024D01*
X003877Y005954D01*
X003877Y005146D01*
X003948Y005076D01*
X004651Y005076D01*
X004600Y005024D01*
X003948Y005024D01*
X003877Y004954D01*
X003877Y004146D01*
X003948Y004076D01*
X004756Y004076D01*
X004826Y004146D01*
X004826Y004798D01*
X004877Y004849D01*
X004877Y004146D01*
X004948Y004076D01*
X005651Y004076D01*
X005586Y004010D01*
X003818Y004010D01*
X003612Y004216D01*
X003612Y005592D01*
X003622Y005596D01*
X003706Y005680D01*
X003752Y005790D01*
X003752Y005910D01*
X003706Y006020D01*
X003622Y006104D01*
X003511Y006150D01*
X003392Y006150D01*
X003282Y006104D01*
X003197Y006020D01*
X003152Y005910D01*
X003152Y005790D01*
X003197Y005680D01*
X003282Y005596D01*
X003292Y005592D01*
X003292Y004084D01*
X003592Y003784D01*
X003686Y003690D01*
X003578Y003798D02*
X002992Y003798D01*
X002992Y003876D02*
X003499Y003876D01*
X003421Y003955D02*
X002992Y003955D01*
X002992Y004033D02*
X003342Y004033D01*
X003292Y004112D02*
X002992Y004112D01*
X002992Y004190D02*
X003292Y004190D01*
X003292Y004269D02*
X002992Y004269D01*
X002992Y004347D02*
X003292Y004347D01*
X003292Y004426D02*
X002992Y004426D01*
X002992Y004504D02*
X003292Y004504D01*
X003292Y004583D02*
X002992Y004583D01*
X002992Y004661D02*
X003292Y004661D01*
X003292Y004740D02*
X002992Y004740D01*
X002992Y004818D02*
X003292Y004818D01*
X003292Y004897D02*
X002992Y004897D01*
X002992Y004975D02*
X003292Y004975D01*
X003292Y005054D02*
X002992Y005054D01*
X002992Y005132D02*
X003292Y005132D01*
X003292Y005211D02*
X002992Y005211D01*
X002992Y005289D02*
X003292Y005289D01*
X003292Y005368D02*
X002992Y005368D01*
X002992Y005446D02*
X003292Y005446D01*
X003292Y005525D02*
X002992Y005525D01*
X002992Y005603D02*
X003275Y005603D01*
X003197Y005682D02*
X002992Y005682D01*
X002992Y005760D02*
X003164Y005760D01*
X003152Y005839D02*
X002992Y005839D01*
X002992Y005917D02*
X003155Y005917D01*
X003187Y005996D02*
X002992Y005996D01*
X002992Y006074D02*
X003252Y006074D01*
X002992Y006153D02*
X004192Y006153D01*
X004192Y006231D02*
X002992Y006231D01*
X002992Y006310D02*
X004192Y006310D01*
X004254Y006388D02*
X002992Y006388D01*
X002992Y006467D02*
X004242Y006467D01*
X004242Y006545D02*
X002992Y006545D01*
X002992Y006624D02*
X004264Y006624D01*
X004310Y006702D02*
X002992Y006702D01*
X002992Y006781D02*
X004411Y006781D01*
X004673Y006781D02*
X004858Y006781D01*
X004870Y006859D02*
X002992Y006859D01*
X002992Y006938D02*
X004740Y006938D01*
X004683Y007016D02*
X002992Y007016D01*
X002992Y007095D02*
X004652Y007095D01*
X004652Y007173D02*
X004467Y007173D01*
X004578Y007252D02*
X004669Y007252D01*
X004352Y007450D02*
X005352Y007450D01*
X006352Y006450D01*
X006352Y005550D01*
X006012Y005054D02*
X010082Y005054D01*
X010082Y005132D02*
X009831Y005132D01*
X009837Y005142D02*
X009846Y005177D01*
X009846Y005510D01*
X009392Y005510D01*
X009392Y005590D01*
X009846Y005590D01*
X009846Y005923D01*
X009837Y005958D01*
X009818Y005990D01*
X009792Y006016D01*
X009760Y006035D01*
X009725Y006044D01*
X009392Y006044D01*
X009392Y005590D01*
X009312Y005590D01*
X009312Y006044D01*
X008979Y006044D01*
X008943Y006035D01*
X008911Y006016D01*
X008885Y005990D01*
X008867Y005958D01*
X008857Y005923D01*
X008857Y005590D01*
X009312Y005590D01*
X009312Y005510D01*
X009392Y005510D01*
X009392Y005056D01*
X009725Y005056D01*
X009760Y005065D01*
X009792Y005084D01*
X009818Y005110D01*
X009837Y005142D01*
X009846Y005211D02*
X010082Y005211D01*
X010082Y005289D02*
X009846Y005289D01*
X009846Y005368D02*
X010082Y005368D01*
X010082Y005446D02*
X009846Y005446D01*
X009846Y005603D02*
X010082Y005603D01*
X010082Y005525D02*
X009392Y005525D01*
X009392Y005603D02*
X009312Y005603D01*
X009312Y005525D02*
X008826Y005525D01*
X008857Y005510D02*
X008857Y005177D01*
X008867Y005142D01*
X008885Y005110D01*
X008911Y005084D01*
X008943Y005065D01*
X008979Y005056D01*
X009312Y005056D01*
X009312Y005510D01*
X008857Y005510D01*
X008857Y005446D02*
X008826Y005446D01*
X008826Y005368D02*
X008857Y005368D01*
X008857Y005289D02*
X008826Y005289D01*
X008826Y005211D02*
X008857Y005211D01*
X008873Y005132D02*
X008812Y005132D01*
X008948Y005024D02*
X008877Y004954D01*
X008877Y004146D01*
X008948Y004076D01*
X009756Y004076D01*
X009826Y004146D01*
X009826Y004380D01*
X010122Y004380D01*
X010322Y004580D01*
X010422Y004680D01*
X010422Y006320D01*
X010022Y006720D01*
X009922Y006820D01*
X008222Y006820D01*
X007622Y007420D01*
X007622Y010180D01*
X008492Y011050D01*
X008611Y011050D01*
X008722Y011096D01*
X008806Y011180D01*
X008852Y011290D01*
X008852Y011410D01*
X008806Y011520D01*
X008722Y011604D01*
X008611Y011650D01*
X008492Y011650D01*
X008382Y011604D01*
X008297Y011520D01*
X008252Y011410D01*
X008252Y011290D01*
X007282Y010320D01*
X007282Y009310D01*
X005718Y009310D01*
X005218Y009810D01*
X005110Y009810D01*
X005106Y009820D01*
X005022Y009904D01*
X004911Y009950D01*
X004792Y009950D01*
X004682Y009904D01*
X004597Y009820D01*
X004552Y009710D01*
X004552Y009590D01*
X004597Y009480D01*
X004682Y009396D01*
X004792Y009350D01*
X004911Y009350D01*
X005022Y009396D01*
X005101Y009475D01*
X005492Y009084D01*
X005586Y008990D01*
X007282Y008990D01*
X007282Y007280D01*
X007381Y007180D01*
X008081Y006480D01*
X009781Y006480D01*
X010082Y006180D01*
X010082Y004820D01*
X009981Y004720D01*
X009826Y004720D01*
X009826Y004954D01*
X009756Y005024D01*
X008948Y005024D01*
X008898Y004975D02*
X006805Y004975D01*
X006826Y004897D02*
X008877Y004897D01*
X008877Y004818D02*
X006826Y004818D01*
X006826Y004740D02*
X008877Y004740D01*
X008877Y004661D02*
X006826Y004661D01*
X006826Y004583D02*
X008877Y004583D01*
X008877Y004504D02*
X006826Y004504D01*
X006826Y004426D02*
X008877Y004426D01*
X008877Y004347D02*
X006826Y004347D01*
X006826Y004269D02*
X008877Y004269D01*
X008877Y004190D02*
X006826Y004190D01*
X006792Y004112D02*
X008912Y004112D01*
X009792Y004112D02*
X010712Y004112D01*
X010712Y004190D02*
X009826Y004190D01*
X009826Y004269D02*
X010712Y004269D01*
X010712Y004347D02*
X009826Y004347D01*
X010168Y004426D02*
X010712Y004426D01*
X010712Y004504D02*
X010246Y004504D01*
X010325Y004583D02*
X010712Y004583D01*
X010712Y004661D02*
X010403Y004661D01*
X010422Y004740D02*
X010712Y004740D01*
X010712Y004818D02*
X010422Y004818D01*
X010422Y004897D02*
X010712Y004897D01*
X010712Y004975D02*
X010422Y004975D01*
X010422Y005054D02*
X010712Y005054D01*
X010712Y005132D02*
X010422Y005132D01*
X010422Y005211D02*
X010712Y005211D01*
X010712Y005289D02*
X010422Y005289D01*
X010422Y005368D02*
X010712Y005368D01*
X010712Y005446D02*
X010422Y005446D01*
X010422Y005525D02*
X010712Y005525D01*
X010712Y005603D02*
X010422Y005603D01*
X010422Y005682D02*
X010712Y005682D01*
X010712Y005760D02*
X010422Y005760D01*
X010422Y005839D02*
X010712Y005839D01*
X010712Y005917D02*
X010422Y005917D01*
X010422Y005996D02*
X010712Y005996D01*
X010712Y006074D02*
X010422Y006074D01*
X010422Y006153D02*
X010712Y006153D01*
X010712Y006231D02*
X010422Y006231D01*
X010422Y006310D02*
X010712Y006310D01*
X010712Y006388D02*
X010354Y006388D01*
X010276Y006467D02*
X010712Y006467D01*
X010712Y006545D02*
X010197Y006545D01*
X010119Y006624D02*
X010712Y006624D01*
X010712Y006702D02*
X010040Y006702D01*
X009962Y006781D02*
X010712Y006781D01*
X010712Y006859D02*
X008183Y006859D01*
X008105Y006938D02*
X010712Y006938D01*
X010712Y007016D02*
X008026Y007016D01*
X007948Y007095D02*
X010712Y007095D01*
X010712Y007173D02*
X007869Y007173D01*
X007791Y007252D02*
X010712Y007252D01*
X010712Y007330D02*
X007712Y007330D01*
X007634Y007409D02*
X010712Y007409D01*
X010712Y007487D02*
X007622Y007487D01*
X007622Y007566D02*
X010712Y007566D01*
X010712Y007644D02*
X007622Y007644D01*
X007622Y007723D02*
X010712Y007723D01*
X010712Y007801D02*
X007622Y007801D01*
X007622Y007880D02*
X010712Y007880D01*
X010712Y007958D02*
X007622Y007958D01*
X007622Y008037D02*
X010712Y008037D01*
X010712Y008115D02*
X007622Y008115D01*
X007622Y008194D02*
X010712Y008194D01*
X010712Y008272D02*
X007622Y008272D01*
X007622Y008351D02*
X010712Y008351D01*
X010712Y008429D02*
X007622Y008429D01*
X007622Y008508D02*
X010712Y008508D01*
X010712Y008586D02*
X007622Y008586D01*
X007622Y008665D02*
X010712Y008665D01*
X010712Y008743D02*
X007622Y008743D01*
X007622Y008822D02*
X010712Y008822D01*
X010712Y008900D02*
X007622Y008900D01*
X007622Y008979D02*
X010712Y008979D01*
X010712Y009057D02*
X007622Y009057D01*
X007622Y009136D02*
X010712Y009136D01*
X010712Y009214D02*
X007622Y009214D01*
X007622Y009293D02*
X010712Y009293D01*
X010712Y009371D02*
X007622Y009371D01*
X007622Y009450D02*
X010712Y009450D01*
X010712Y009528D02*
X007622Y009528D01*
X007622Y009607D02*
X010712Y009607D01*
X010712Y009685D02*
X007622Y009685D01*
X007622Y009764D02*
X010712Y009764D01*
X010712Y009842D02*
X007622Y009842D01*
X007622Y009921D02*
X010712Y009921D01*
X010712Y009999D02*
X007622Y009999D01*
X007622Y010078D02*
X010712Y010078D01*
X010712Y010156D02*
X007622Y010156D01*
X007677Y010235D02*
X010712Y010235D01*
X010712Y010313D02*
X007755Y010313D01*
X007834Y010392D02*
X010712Y010392D01*
X010712Y010470D02*
X007912Y010470D01*
X007991Y010549D02*
X010712Y010549D01*
X010712Y010627D02*
X008069Y010627D01*
X008148Y010706D02*
X010712Y010706D01*
X010712Y010784D02*
X008226Y010784D01*
X008305Y010863D02*
X010712Y010863D01*
X010712Y010941D02*
X008383Y010941D01*
X008462Y011020D02*
X010712Y011020D01*
X010712Y011098D02*
X008724Y011098D01*
X008803Y011177D02*
X010712Y011177D01*
X010712Y011255D02*
X008837Y011255D01*
X008852Y011334D02*
X010712Y011334D01*
X010712Y011412D02*
X008851Y011412D01*
X008818Y011491D02*
X010712Y011491D01*
X010712Y011569D02*
X008757Y011569D01*
X008617Y011648D02*
X010712Y011648D01*
X010712Y011726D02*
X008199Y011726D01*
X008193Y011713D02*
X008223Y011772D01*
X008243Y011834D01*
X008252Y011892D01*
X007876Y011892D01*
X007876Y011972D01*
X007796Y011972D01*
X007796Y012348D01*
X007738Y012339D01*
X007676Y012318D01*
X007617Y012289D01*
X007564Y012250D01*
X007518Y012204D01*
X007479Y012151D01*
X007449Y012092D01*
X007429Y012030D01*
X007420Y011972D01*
X007796Y011972D01*
X007796Y011892D01*
X007420Y011892D01*
X007429Y011834D01*
X007449Y011772D01*
X007479Y011713D01*
X007518Y011660D01*
X007564Y011614D01*
X007617Y011575D01*
X007676Y011545D01*
X007738Y011525D01*
X007796Y011516D01*
X007796Y011892D01*
X007876Y011892D01*
X007876Y011516D01*
X007934Y011525D01*
X007996Y011545D01*
X008055Y011575D01*
X008108Y011614D01*
X008154Y011660D01*
X008193Y011713D01*
X008142Y011648D02*
X008486Y011648D01*
X008347Y011569D02*
X008043Y011569D01*
X008253Y011412D02*
X003638Y011412D01*
X003622Y011396D02*
X003706Y011480D01*
X003752Y011590D01*
X003752Y011710D01*
X003706Y011820D01*
X003622Y011904D01*
X003511Y011950D01*
X003392Y011950D01*
X003282Y011904D01*
X003197Y011820D01*
X003152Y011710D01*
X003152Y011590D01*
X003197Y011480D01*
X003282Y011396D01*
X003292Y011392D01*
X003292Y010784D01*
X002992Y010784D01*
X002992Y010706D02*
X003370Y010706D01*
X003386Y010690D02*
X003692Y010384D01*
X003692Y009184D01*
X003786Y009090D01*
X004086Y008790D01*
X005086Y008790D01*
X005456Y008420D01*
X005452Y008410D01*
X005452Y008290D01*
X005497Y008180D01*
X005582Y008096D01*
X005692Y008050D01*
X005811Y008050D01*
X005922Y008096D01*
X006006Y008180D01*
X006052Y008290D01*
X006052Y008410D01*
X006006Y008520D01*
X005922Y008604D01*
X005811Y008650D01*
X005692Y008650D01*
X005682Y008646D01*
X005312Y009016D01*
X005218Y009110D01*
X004218Y009110D01*
X004012Y009316D01*
X004012Y010516D01*
X003612Y010916D01*
X003612Y011392D01*
X003622Y011396D01*
X003612Y011334D02*
X004081Y011334D01*
X004112Y011364D02*
X004027Y011280D01*
X003982Y011170D01*
X003982Y011050D01*
X004027Y010940D01*
X004112Y010856D01*
X004222Y010810D01*
X004341Y010810D01*
X004361Y010818D01*
X005452Y009810D01*
X005452Y009690D01*
X005497Y009580D01*
X005582Y009496D01*
X005692Y009450D01*
X005811Y009450D01*
X005922Y009496D01*
X006006Y009580D01*
X006052Y009690D01*
X006052Y009810D01*
X006006Y009920D01*
X005922Y010004D01*
X005811Y010050D01*
X005692Y010050D01*
X005672Y010042D01*
X004582Y011050D01*
X004582Y011170D01*
X004536Y011280D01*
X004452Y011364D01*
X004341Y011410D01*
X004222Y011410D01*
X004112Y011364D01*
X004017Y011255D02*
X003612Y011255D01*
X003612Y011177D02*
X003985Y011177D01*
X003982Y011098D02*
X003612Y011098D01*
X003612Y011020D02*
X003995Y011020D01*
X004027Y010941D02*
X003612Y010941D01*
X003666Y010863D02*
X004105Y010863D01*
X004282Y011110D02*
X005752Y009750D01*
X006006Y009921D02*
X007282Y009921D01*
X007282Y009999D02*
X005927Y009999D01*
X006038Y009842D02*
X007282Y009842D01*
X007282Y009764D02*
X006052Y009764D01*
X006050Y009685D02*
X007282Y009685D01*
X007282Y009607D02*
X006017Y009607D01*
X005954Y009528D02*
X007282Y009528D01*
X007282Y009450D02*
X005579Y009450D01*
X005549Y009528D02*
X005500Y009528D01*
X005486Y009607D02*
X005422Y009607D01*
X005454Y009685D02*
X005343Y009685D01*
X005265Y009764D02*
X005452Y009764D01*
X005417Y009842D02*
X005084Y009842D01*
X004983Y009921D02*
X005332Y009921D01*
X005247Y009999D02*
X004012Y009999D01*
X004012Y009921D02*
X004721Y009921D01*
X004620Y009842D02*
X004012Y009842D01*
X004012Y009764D02*
X004574Y009764D01*
X004552Y009685D02*
X004012Y009685D01*
X004012Y009607D02*
X004552Y009607D01*
X004578Y009528D02*
X004012Y009528D01*
X004012Y009450D02*
X004628Y009450D01*
X004741Y009371D02*
X004012Y009371D01*
X004036Y009293D02*
X005283Y009293D01*
X005204Y009371D02*
X004962Y009371D01*
X005076Y009450D02*
X005126Y009450D01*
X005152Y009650D02*
X005652Y009150D01*
X007452Y009150D01*
X007282Y008979D02*
X005350Y008979D01*
X005312Y009016D02*
X005312Y009016D01*
X005271Y009057D02*
X005518Y009057D01*
X005440Y009136D02*
X004193Y009136D01*
X004114Y009214D02*
X005361Y009214D01*
X005428Y008900D02*
X007282Y008900D01*
X007282Y008822D02*
X005507Y008822D01*
X005585Y008743D02*
X007282Y008743D01*
X007282Y008665D02*
X005664Y008665D01*
X005940Y008586D02*
X007282Y008586D01*
X007282Y008508D02*
X006011Y008508D01*
X006044Y008429D02*
X007282Y008429D01*
X007282Y008351D02*
X006052Y008351D01*
X006044Y008272D02*
X007282Y008272D01*
X007282Y008194D02*
X006012Y008194D01*
X005941Y008115D02*
X007282Y008115D01*
X007282Y008037D02*
X005592Y008037D01*
X005562Y008115D02*
X005513Y008115D01*
X005492Y008194D02*
X005435Y008194D01*
X005459Y008272D02*
X005356Y008272D01*
X005452Y008351D02*
X004652Y008351D01*
X004644Y008429D02*
X005446Y008429D01*
X005368Y008508D02*
X004611Y008508D01*
X004540Y008586D02*
X005289Y008586D01*
X005211Y008665D02*
X002992Y008665D01*
X002992Y008743D02*
X005132Y008743D01*
X005152Y008950D02*
X004152Y008950D01*
X003852Y009250D01*
X003852Y010450D01*
X003452Y010850D01*
X003452Y011650D01*
X003261Y011883D02*
X002992Y011883D01*
X002992Y011805D02*
X003191Y011805D01*
X003159Y011726D02*
X002992Y011726D01*
X002992Y011648D02*
X003152Y011648D01*
X003161Y011569D02*
X002992Y011569D01*
X002992Y011491D02*
X003193Y011491D01*
X003265Y011412D02*
X002992Y011412D01*
X002992Y011334D02*
X003292Y011334D01*
X003292Y011255D02*
X002992Y011255D01*
X002992Y011177D02*
X003292Y011177D01*
X003292Y011098D02*
X002992Y011098D01*
X002992Y011020D02*
X003292Y011020D01*
X003292Y010941D02*
X002992Y010941D01*
X002992Y010863D02*
X003292Y010863D01*
X003292Y010784D02*
X003386Y010690D01*
X003448Y010627D02*
X002992Y010627D01*
X002992Y010549D02*
X003527Y010549D01*
X003605Y010470D02*
X002992Y010470D01*
X002992Y010392D02*
X003684Y010392D01*
X003692Y010313D02*
X002992Y010313D01*
X002992Y010235D02*
X003692Y010235D01*
X003692Y010156D02*
X002992Y010156D01*
X002992Y010078D02*
X003692Y010078D01*
X003692Y009999D02*
X002992Y009999D01*
X002992Y009921D02*
X003692Y009921D01*
X003692Y009842D02*
X002992Y009842D01*
X002992Y009764D02*
X003692Y009764D01*
X003692Y009685D02*
X002992Y009685D01*
X002992Y009607D02*
X003692Y009607D01*
X003692Y009528D02*
X002992Y009528D01*
X002992Y009450D02*
X003692Y009450D01*
X003692Y009371D02*
X002992Y009371D01*
X002992Y009293D02*
X003692Y009293D01*
X003692Y009214D02*
X002992Y009214D01*
X002992Y009136D02*
X003740Y009136D01*
X003818Y009057D02*
X002992Y009057D01*
X002992Y008979D02*
X003897Y008979D01*
X003975Y008900D02*
X002992Y008900D01*
X002992Y008822D02*
X004054Y008822D01*
X004164Y008586D02*
X002992Y008586D01*
X002992Y008508D02*
X004092Y008508D01*
X004060Y008429D02*
X002992Y008429D01*
X002992Y008351D02*
X004052Y008351D01*
X004059Y008272D02*
X002992Y008272D01*
X002992Y008194D02*
X004092Y008194D01*
X004162Y008115D02*
X002992Y008115D01*
X002992Y008037D02*
X004439Y008037D01*
X004552Y008150D02*
X004352Y008350D01*
X004552Y008150D02*
X005252Y008150D01*
X007252Y006150D01*
X008152Y006150D01*
X008352Y005950D01*
X008352Y005550D01*
X008785Y005996D02*
X008891Y005996D01*
X008857Y005917D02*
X008826Y005917D01*
X008826Y005839D02*
X008857Y005839D01*
X008857Y005760D02*
X008826Y005760D01*
X008826Y005682D02*
X008857Y005682D01*
X008857Y005603D02*
X008826Y005603D01*
X009312Y005682D02*
X009392Y005682D01*
X009392Y005760D02*
X009312Y005760D01*
X009312Y005839D02*
X009392Y005839D01*
X009392Y005917D02*
X009312Y005917D01*
X009312Y005996D02*
X009392Y005996D01*
X009813Y005996D02*
X010082Y005996D01*
X010082Y006074D02*
X008454Y006074D01*
X008376Y006153D02*
X010082Y006153D01*
X010030Y006231D02*
X008297Y006231D01*
X008219Y006310D02*
X009952Y006310D01*
X009873Y006388D02*
X007240Y006388D01*
X007162Y006467D02*
X009795Y006467D01*
X009846Y005917D02*
X010082Y005917D01*
X010082Y005839D02*
X009846Y005839D01*
X009846Y005760D02*
X010082Y005760D01*
X010082Y005682D02*
X009846Y005682D01*
X009392Y005446D02*
X009312Y005446D01*
X009312Y005368D02*
X009392Y005368D01*
X009392Y005289D02*
X009312Y005289D01*
X009312Y005211D02*
X009392Y005211D01*
X009392Y005132D02*
X009312Y005132D01*
X009805Y004975D02*
X010082Y004975D01*
X010082Y004897D02*
X009826Y004897D01*
X009826Y004818D02*
X010079Y004818D01*
X010001Y004740D02*
X009826Y004740D01*
X010712Y004033D02*
X006061Y004033D01*
X005983Y003955D02*
X010712Y003955D01*
X010712Y003876D02*
X005904Y003876D01*
X005826Y003798D02*
X010712Y003798D01*
X010712Y003719D02*
X005747Y003719D01*
X005652Y003850D02*
X006352Y004550D01*
X005852Y005050D02*
X005852Y006450D01*
X005752Y006550D01*
X005452Y006650D02*
X005452Y005650D01*
X005352Y005550D01*
X005852Y005050D02*
X005352Y004550D01*
X004877Y004583D02*
X004826Y004583D01*
X004826Y004661D02*
X004877Y004661D01*
X004877Y004740D02*
X004826Y004740D01*
X004846Y004818D02*
X004877Y004818D01*
X004852Y005050D02*
X004852Y006350D01*
X005052Y006550D01*
X004790Y006702D02*
X004774Y006702D01*
X004542Y006510D02*
X004352Y006250D01*
X004352Y005550D01*
X003877Y005525D02*
X003612Y005525D01*
X003612Y005446D02*
X003877Y005446D01*
X003877Y005368D02*
X003612Y005368D01*
X003612Y005289D02*
X003877Y005289D01*
X003877Y005211D02*
X003612Y005211D01*
X003612Y005132D02*
X003891Y005132D01*
X003898Y004975D02*
X003612Y004975D01*
X003612Y004897D02*
X003877Y004897D01*
X003877Y004818D02*
X003612Y004818D01*
X003612Y004740D02*
X003877Y004740D01*
X003877Y004661D02*
X003612Y004661D01*
X003612Y004583D02*
X003877Y004583D01*
X003877Y004504D02*
X003612Y004504D01*
X003612Y004426D02*
X003877Y004426D01*
X003877Y004347D02*
X003612Y004347D01*
X003612Y004269D02*
X003877Y004269D01*
X003877Y004190D02*
X003638Y004190D01*
X003717Y004112D02*
X003912Y004112D01*
X003795Y004033D02*
X005609Y004033D01*
X005652Y003850D02*
X003752Y003850D01*
X003452Y004150D01*
X003452Y005850D01*
X003652Y006074D02*
X004192Y006074D01*
X003919Y005996D02*
X003716Y005996D01*
X003749Y005917D02*
X003877Y005917D01*
X003877Y005839D02*
X003752Y005839D01*
X003739Y005760D02*
X003877Y005760D01*
X003877Y005682D02*
X003707Y005682D01*
X003629Y005603D02*
X003877Y005603D01*
X003612Y005054D02*
X004629Y005054D01*
X004852Y005050D02*
X004352Y004550D01*
X004792Y004112D02*
X004912Y004112D01*
X004877Y004190D02*
X004826Y004190D01*
X004826Y004269D02*
X004877Y004269D01*
X004877Y004347D02*
X004826Y004347D01*
X004826Y004426D02*
X004877Y004426D01*
X004877Y004504D02*
X004826Y004504D01*
X006512Y006074D02*
X006801Y006074D01*
X006785Y005996D02*
X006880Y005996D01*
X006877Y005917D02*
X006826Y005917D01*
X006826Y005839D02*
X006877Y005839D01*
X006877Y005760D02*
X006826Y005760D01*
X006826Y005682D02*
X006877Y005682D01*
X006877Y005603D02*
X006826Y005603D01*
X006826Y005525D02*
X006877Y005525D01*
X006877Y005446D02*
X006826Y005446D01*
X006826Y005368D02*
X006877Y005368D01*
X006877Y005289D02*
X006826Y005289D01*
X006826Y005211D02*
X006877Y005211D01*
X006891Y005132D02*
X006812Y005132D01*
X007352Y005550D02*
X007352Y005850D01*
X007252Y005850D01*
X005352Y007750D01*
X005052Y007750D01*
X004952Y007850D01*
X004733Y007644D02*
X004582Y007644D01*
X004680Y007723D02*
X004478Y007723D01*
X004652Y007801D02*
X002992Y007801D01*
X002992Y007723D02*
X004226Y007723D01*
X004122Y007644D02*
X002992Y007644D01*
X002992Y007566D02*
X004075Y007566D01*
X004052Y007487D02*
X002992Y007487D01*
X002992Y007409D02*
X004052Y007409D01*
X004077Y007330D02*
X002992Y007330D01*
X002992Y007252D02*
X004126Y007252D01*
X004237Y007173D02*
X002992Y007173D01*
X002992Y007880D02*
X004652Y007880D01*
X004672Y007958D02*
X002992Y007958D01*
X004852Y009650D02*
X005152Y009650D01*
X005162Y010078D02*
X004012Y010078D01*
X004012Y010156D02*
X005077Y010156D01*
X004992Y010235D02*
X004012Y010235D01*
X004012Y010313D02*
X004908Y010313D01*
X004823Y010392D02*
X004012Y010392D01*
X004012Y010470D02*
X004738Y010470D01*
X004653Y010549D02*
X003980Y010549D01*
X003901Y010627D02*
X004568Y010627D01*
X004483Y010706D02*
X003823Y010706D01*
X003744Y010784D02*
X004399Y010784D01*
X004615Y011020D02*
X007981Y011020D01*
X008059Y011098D02*
X004582Y011098D01*
X004579Y011177D02*
X008138Y011177D01*
X008216Y011255D02*
X004546Y011255D01*
X004483Y011334D02*
X008252Y011334D01*
X008285Y011491D02*
X003710Y011491D01*
X003743Y011569D02*
X005661Y011569D01*
X005649Y011575D02*
X005707Y011545D01*
X005770Y011525D01*
X005828Y011516D01*
X005828Y011892D01*
X005908Y011892D01*
X005908Y011972D01*
X006284Y011972D01*
X006274Y012030D01*
X006254Y012092D01*
X006224Y012151D01*
X006186Y012204D01*
X006139Y012250D01*
X006086Y012289D01*
X006028Y012318D01*
X005965Y012339D01*
X005908Y012348D01*
X005908Y011972D01*
X005828Y011972D01*
X005828Y012348D01*
X005770Y012339D01*
X005707Y012318D01*
X005649Y012289D01*
X005596Y012250D01*
X005549Y012204D01*
X005511Y012151D01*
X005481Y012092D01*
X005461Y012030D01*
X005451Y011972D01*
X005828Y011972D01*
X005828Y011892D01*
X005451Y011892D01*
X005461Y011834D01*
X005481Y011772D01*
X005511Y011713D01*
X005549Y011660D01*
X005596Y011614D01*
X005649Y011575D01*
X005562Y011648D02*
X003752Y011648D01*
X003745Y011726D02*
X005504Y011726D01*
X005470Y011805D02*
X003712Y011805D01*
X003643Y011883D02*
X005453Y011883D01*
X005464Y012040D02*
X002992Y012040D01*
X002992Y011962D02*
X005828Y011962D01*
X005828Y012040D02*
X005908Y012040D01*
X005908Y011962D02*
X007796Y011962D01*
X007796Y012040D02*
X007876Y012040D01*
X007876Y011972D02*
X007876Y012348D01*
X007934Y012339D01*
X007996Y012318D01*
X008055Y012289D01*
X008108Y012250D01*
X008154Y012204D01*
X008193Y012151D01*
X008223Y012092D01*
X008243Y012030D01*
X008252Y011972D01*
X007876Y011972D01*
X007876Y011962D02*
X010712Y011962D01*
X010712Y012040D02*
X008240Y012040D01*
X008209Y012119D02*
X010712Y012119D01*
X010712Y012197D02*
X008159Y012197D01*
X008073Y012276D02*
X010712Y012276D01*
X010712Y012354D02*
X002992Y012354D01*
X002992Y012276D02*
X005631Y012276D01*
X005545Y012197D02*
X002992Y012197D01*
X002992Y012119D02*
X005494Y012119D01*
X005828Y012119D02*
X005908Y012119D01*
X005908Y012197D02*
X005828Y012197D01*
X005828Y012276D02*
X005908Y012276D01*
X006104Y012276D02*
X007599Y012276D01*
X007513Y012197D02*
X006191Y012197D01*
X006241Y012119D02*
X007463Y012119D01*
X007433Y012040D02*
X006271Y012040D01*
X006284Y011892D02*
X006274Y011834D01*
X006254Y011772D01*
X006224Y011713D01*
X006186Y011660D01*
X006139Y011614D01*
X006086Y011575D01*
X006028Y011545D01*
X005965Y011525D01*
X005908Y011516D01*
X005908Y011892D01*
X006284Y011892D01*
X006282Y011883D02*
X007421Y011883D01*
X007439Y011805D02*
X006265Y011805D01*
X006231Y011726D02*
X007473Y011726D01*
X007530Y011648D02*
X006173Y011648D01*
X006074Y011569D02*
X007629Y011569D01*
X007796Y011569D02*
X007876Y011569D01*
X007876Y011648D02*
X007796Y011648D01*
X007796Y011726D02*
X007876Y011726D01*
X007876Y011805D02*
X007796Y011805D01*
X007796Y011883D02*
X007876Y011883D01*
X007876Y012119D02*
X007796Y012119D01*
X007796Y012197D02*
X007876Y012197D01*
X007876Y012276D02*
X007796Y012276D01*
X007820Y012511D02*
X005884Y012511D01*
X005959Y012590D02*
X007744Y012590D01*
X007735Y012668D02*
X005968Y012668D01*
X005968Y012747D02*
X007735Y012747D01*
X007735Y012825D02*
X005968Y012825D01*
X005968Y012904D02*
X007735Y012904D01*
X007735Y013061D02*
X005968Y013061D01*
X005968Y013139D02*
X007735Y013139D01*
X007735Y013218D02*
X005968Y013218D01*
X005968Y013296D02*
X007735Y013296D01*
X007737Y013375D02*
X005966Y013375D01*
X005514Y012982D02*
X008190Y012982D01*
X008190Y012904D02*
X008270Y012904D01*
X008270Y012982D02*
X010712Y012982D01*
X010712Y012904D02*
X008724Y012904D01*
X008724Y012825D02*
X010712Y012825D01*
X010712Y012747D02*
X008724Y012747D01*
X008724Y012668D02*
X010712Y012668D01*
X010712Y012590D02*
X008715Y012590D01*
X008640Y012511D02*
X010712Y012511D01*
X010712Y012433D02*
X002992Y012433D01*
X002992Y012511D02*
X005064Y012511D01*
X004988Y012590D02*
X002992Y012590D01*
X002992Y012668D02*
X004979Y012668D01*
X004979Y012747D02*
X002992Y012747D01*
X002992Y012825D02*
X004979Y012825D01*
X004979Y012904D02*
X002992Y012904D01*
X002992Y012982D02*
X005434Y012982D01*
X005434Y012904D02*
X005514Y012904D01*
X005514Y012825D02*
X005434Y012825D01*
X005434Y012747D02*
X005514Y012747D01*
X005514Y012668D02*
X005434Y012668D01*
X005434Y012590D02*
X005514Y012590D01*
X005514Y012511D02*
X005434Y012511D01*
X004979Y013061D02*
X002992Y013061D01*
X002992Y013139D02*
X004979Y013139D01*
X004979Y013218D02*
X002992Y013218D01*
X002992Y013296D02*
X004979Y013296D01*
X004981Y013375D02*
X002992Y013375D01*
X004700Y010941D02*
X007902Y010941D01*
X007824Y010863D02*
X004785Y010863D01*
X004870Y010784D02*
X007745Y010784D01*
X007667Y010706D02*
X004955Y010706D01*
X005039Y010627D02*
X007588Y010627D01*
X007510Y010549D02*
X005124Y010549D01*
X005209Y010470D02*
X007431Y010470D01*
X007353Y010392D02*
X005294Y010392D01*
X005379Y010313D02*
X007282Y010313D01*
X007282Y010235D02*
X005464Y010235D01*
X005549Y010156D02*
X007282Y010156D01*
X007282Y010078D02*
X005633Y010078D01*
X005657Y009371D02*
X007282Y009371D01*
X007282Y007958D02*
X005670Y007958D01*
X005749Y007880D02*
X007282Y007880D01*
X007282Y007801D02*
X005827Y007801D01*
X005906Y007723D02*
X007282Y007723D01*
X007282Y007644D02*
X005984Y007644D01*
X006063Y007566D02*
X007282Y007566D01*
X007282Y007487D02*
X006141Y007487D01*
X006220Y007409D02*
X007282Y007409D01*
X007282Y007330D02*
X006298Y007330D01*
X006377Y007252D02*
X007310Y007252D01*
X007388Y007173D02*
X006455Y007173D01*
X006534Y007095D02*
X007467Y007095D01*
X007545Y007016D02*
X006612Y007016D01*
X006691Y006938D02*
X007624Y006938D01*
X007702Y006859D02*
X006769Y006859D01*
X006848Y006781D02*
X007781Y006781D01*
X007859Y006702D02*
X006926Y006702D01*
X007005Y006624D02*
X007938Y006624D01*
X008016Y006545D02*
X007083Y006545D01*
X006723Y006153D02*
X006512Y006153D01*
X006512Y006231D02*
X006644Y006231D01*
X006566Y006310D02*
X006512Y006310D01*
X005452Y006650D02*
X004952Y007150D01*
X005752Y008350D02*
X005152Y008950D01*
X005828Y011569D02*
X005908Y011569D01*
X005908Y011648D02*
X005828Y011648D01*
X005828Y011726D02*
X005908Y011726D01*
X005908Y011805D02*
X005828Y011805D01*
X005828Y011883D02*
X005908Y011883D01*
X008233Y011805D02*
X010712Y011805D01*
X010712Y011883D02*
X008251Y011883D01*
X008270Y012511D02*
X008190Y012511D01*
X008190Y012590D02*
X008270Y012590D01*
X008270Y012668D02*
X008190Y012668D01*
X008190Y012747D02*
X008270Y012747D01*
X008270Y012825D02*
X008190Y012825D01*
X008724Y013061D02*
X010712Y013061D01*
X010712Y013139D02*
X008724Y013139D01*
X008724Y013218D02*
X010712Y013218D01*
X010712Y013296D02*
X008724Y013296D01*
X008722Y013375D02*
X010712Y013375D01*
X007877Y005917D02*
X007826Y005917D01*
X007826Y005839D02*
X007877Y005839D01*
X007877Y005760D02*
X007826Y005760D01*
X007826Y005682D02*
X007877Y005682D01*
X007877Y005603D02*
X007826Y005603D01*
X007826Y005525D02*
X007877Y005525D01*
X007877Y005446D02*
X007826Y005446D01*
X007826Y005368D02*
X007877Y005368D01*
X007877Y005289D02*
X007826Y005289D01*
X007826Y005211D02*
X007877Y005211D01*
X007891Y005132D02*
X007812Y005132D01*
X003142Y002934D02*
X002992Y002934D01*
X002992Y002856D02*
X003063Y002856D01*
D14*
X003252Y003850D03*
X003452Y005850D03*
X004172Y006850D03*
X004542Y006510D03*
X005052Y006550D03*
X004952Y007150D03*
X004352Y007450D03*
X004952Y007850D03*
X004852Y008450D03*
X004352Y008350D03*
X003352Y009150D03*
X004852Y009650D03*
X005752Y009750D03*
X006752Y010750D03*
X008122Y010250D03*
X008552Y011350D03*
X009552Y011050D03*
X008652Y008150D03*
X006152Y007750D03*
X005752Y008350D03*
X005752Y006550D03*
X004282Y011110D03*
X003452Y011650D03*
D15*
X007452Y010250D02*
X007452Y009150D01*
X007452Y007350D01*
X008152Y006650D01*
X009852Y006650D01*
X010252Y006250D01*
X010252Y004750D01*
X010052Y004550D01*
X009352Y004550D01*
X007452Y010250D02*
X008552Y011350D01*
M02*
