G75*
%MOIN*%
%OFA0B0*%
%FSLAX24Y24*%
%IPPOS*%
%LPD*%
%AMOC8*
5,1,8,0,0,1.08239X$1,22.5*
%
%ADD10C,0.0000*%
%ADD11R,0.0551X0.0453*%
%ADD12R,0.0080X0.0394*%
%ADD13R,0.0394X0.0080*%
%ADD14R,0.0433X0.0394*%
%ADD15R,0.0394X0.0433*%
%ADD16R,0.0157X0.0531*%
%ADD17R,0.0591X0.0610*%
%ADD18R,0.0709X0.0709*%
%ADD19C,0.0554*%
%ADD20R,0.0315X0.0315*%
%ADD21R,0.0390X0.0120*%
%ADD22R,0.0472X0.0217*%
%ADD23R,0.0630X0.0551*%
%ADD24R,0.0551X0.0630*%
%ADD25OC8,0.0600*%
%ADD26C,0.0080*%
%ADD27C,0.0360*%
%ADD28C,0.0180*%
%ADD29C,0.0100*%
%ADD30C,0.0120*%
D10*
X002852Y001050D02*
X002852Y013550D01*
X010852Y013550D01*
X010852Y001050D01*
X002852Y001050D01*
D11*
X004286Y004250D03*
X004286Y004880D03*
X005152Y004880D03*
X005152Y004250D03*
D12*
X005153Y005777D03*
X004957Y005777D03*
X004760Y005777D03*
X004563Y005777D03*
X004366Y005777D03*
X004169Y005777D03*
X005350Y005777D03*
X005547Y005777D03*
X005744Y005777D03*
X005941Y005777D03*
X006138Y005777D03*
X006334Y005777D03*
X006334Y009123D03*
X006138Y009123D03*
X005941Y009123D03*
X005744Y009123D03*
X005547Y009123D03*
X005350Y009123D03*
X005153Y009123D03*
X004957Y009123D03*
X004760Y009123D03*
X004563Y009123D03*
X004366Y009123D03*
X004169Y009123D03*
D13*
X003579Y008533D03*
X003579Y008336D03*
X003579Y008139D03*
X003579Y007942D03*
X003579Y007745D03*
X003579Y007548D03*
X003579Y007352D03*
X003579Y007155D03*
X003579Y006958D03*
X003579Y006761D03*
X003579Y006564D03*
X003579Y006367D03*
X006925Y006367D03*
X006925Y006564D03*
X006925Y006761D03*
X006925Y006958D03*
X006925Y007155D03*
X006925Y007352D03*
X006925Y007548D03*
X006925Y007745D03*
X006925Y007942D03*
X006925Y008139D03*
X006925Y008336D03*
X006925Y008533D03*
D14*
X006917Y009250D03*
X007586Y009250D03*
X008317Y009250D03*
X008986Y009250D03*
X009617Y009250D03*
X010286Y009250D03*
X007986Y011050D03*
X007317Y011050D03*
X005486Y010950D03*
X005486Y010350D03*
X004817Y010350D03*
X004817Y010950D03*
X004886Y011650D03*
X004217Y011650D03*
X004086Y010550D03*
X004086Y009950D03*
X003417Y009950D03*
X003417Y010550D03*
D15*
X004552Y012315D03*
X004552Y012985D03*
X010352Y012985D03*
X010352Y012315D03*
X010352Y011785D03*
X010352Y011115D03*
X010352Y010585D03*
X010352Y009915D03*
X010352Y005185D03*
X009752Y005185D03*
X009752Y004515D03*
X010352Y004515D03*
X009152Y004515D03*
X008552Y004515D03*
X008552Y005185D03*
X009152Y005185D03*
X007952Y005185D03*
X007352Y005085D03*
X007952Y004515D03*
X007352Y004415D03*
X006752Y004315D03*
X006152Y004315D03*
X006152Y004985D03*
X006752Y004985D03*
X003352Y005285D03*
X003352Y004615D03*
D16*
X006340Y011932D03*
X006596Y011932D03*
X006852Y011932D03*
X007108Y011932D03*
X007364Y011932D03*
D17*
X007245Y012995D03*
X006458Y012995D03*
D18*
X005474Y012995D03*
X008230Y012995D03*
D19*
X007836Y011932D03*
X005868Y011932D03*
D20*
X003552Y012355D03*
X003552Y012945D03*
D21*
X008003Y008702D03*
X008003Y008446D03*
X008003Y008190D03*
X008003Y007934D03*
X008003Y007678D03*
X008003Y007422D03*
X008003Y007166D03*
X008003Y006910D03*
X008003Y006654D03*
X008003Y006398D03*
X010301Y006398D03*
X010301Y006654D03*
X010301Y006910D03*
X010301Y007166D03*
X010301Y007422D03*
X010301Y007678D03*
X010301Y007934D03*
X010301Y008190D03*
X010301Y008446D03*
X010301Y008702D03*
D22*
X009664Y009876D03*
X009664Y010250D03*
X009664Y010624D03*
X008640Y010624D03*
X008640Y010250D03*
X008640Y009876D03*
D23*
X009352Y011699D03*
X009352Y012801D03*
D24*
X007543Y010110D03*
X006441Y010110D03*
D25*
X006352Y002550D03*
X006352Y001550D03*
X005352Y001550D03*
X005352Y002550D03*
X004352Y002550D03*
X004352Y001550D03*
X003352Y001550D03*
X003352Y002550D03*
X007352Y002550D03*
X008352Y002550D03*
X008352Y001550D03*
X007352Y001550D03*
X009352Y001550D03*
X010352Y001550D03*
X010352Y002550D03*
X009352Y002550D03*
D26*
X009640Y002856D02*
X010011Y002856D01*
X010011Y002843D02*
X010022Y002814D01*
X009932Y002724D01*
X009932Y002376D01*
X010178Y002130D01*
X010526Y002130D01*
X010712Y002316D01*
X010712Y001812D01*
X010534Y001990D01*
X010392Y001990D01*
X010392Y001590D01*
X010312Y001590D01*
X010312Y001990D01*
X010170Y001990D01*
X009912Y001732D01*
X009912Y001590D01*
X010312Y001590D01*
X010312Y001510D01*
X009912Y001510D01*
X009912Y001368D01*
X010090Y001190D01*
X009614Y001190D01*
X009792Y001368D01*
X009792Y001510D01*
X009392Y001510D01*
X009392Y001590D01*
X009792Y001590D01*
X009792Y001732D01*
X009534Y001990D01*
X009392Y001990D01*
X009392Y001590D01*
X009312Y001590D01*
X009312Y001990D01*
X009170Y001990D01*
X008912Y001732D01*
X008912Y001590D01*
X009312Y001590D01*
X009312Y001510D01*
X008912Y001510D01*
X008912Y001368D01*
X009090Y001190D01*
X008614Y001190D01*
X008792Y001368D01*
X008792Y001510D01*
X008392Y001510D01*
X008392Y001590D01*
X008792Y001590D01*
X008792Y001732D01*
X008534Y001990D01*
X008392Y001990D01*
X008392Y001590D01*
X008312Y001590D01*
X008312Y001990D01*
X008170Y001990D01*
X007912Y001732D01*
X007912Y001590D01*
X008312Y001590D01*
X008312Y001510D01*
X007912Y001510D01*
X007912Y001368D01*
X008090Y001190D01*
X007614Y001190D01*
X007792Y001368D01*
X007792Y001510D01*
X007392Y001510D01*
X007392Y001590D01*
X007792Y001590D01*
X007792Y001732D01*
X007534Y001990D01*
X007392Y001990D01*
X007392Y001590D01*
X007312Y001590D01*
X007312Y001990D01*
X007170Y001990D01*
X006912Y001732D01*
X006912Y001590D01*
X007312Y001590D01*
X007312Y001510D01*
X006912Y001510D01*
X006912Y001368D01*
X007090Y001190D01*
X006614Y001190D01*
X006792Y001368D01*
X006792Y001510D01*
X006392Y001510D01*
X006392Y001590D01*
X006792Y001590D01*
X006792Y001732D01*
X006534Y001990D01*
X006392Y001990D01*
X006392Y001590D01*
X006312Y001590D01*
X006312Y001990D01*
X006170Y001990D01*
X005912Y001732D01*
X005912Y001590D01*
X006312Y001590D01*
X006312Y001510D01*
X005912Y001510D01*
X005912Y001368D01*
X006090Y001190D01*
X005614Y001190D01*
X005792Y001368D01*
X005792Y001510D01*
X005392Y001510D01*
X005392Y001590D01*
X005792Y001590D01*
X005792Y001732D01*
X005534Y001990D01*
X005392Y001990D01*
X005392Y001590D01*
X005312Y001590D01*
X005312Y001990D01*
X005170Y001990D01*
X004912Y001732D01*
X004912Y001590D01*
X005312Y001590D01*
X005312Y001510D01*
X004912Y001510D01*
X004912Y001368D01*
X005090Y001190D01*
X004614Y001190D01*
X004792Y001368D01*
X004792Y001510D01*
X004392Y001510D01*
X004392Y001590D01*
X004792Y001590D01*
X004792Y001732D01*
X004534Y001990D01*
X004392Y001990D01*
X004392Y001590D01*
X004312Y001590D01*
X004312Y001990D01*
X004170Y001990D01*
X003912Y001732D01*
X003912Y001590D01*
X004312Y001590D01*
X004312Y001510D01*
X003912Y001510D01*
X003912Y001368D01*
X004090Y001190D01*
X003614Y001190D01*
X003792Y001368D01*
X003792Y001510D01*
X003392Y001510D01*
X003392Y001590D01*
X003792Y001590D01*
X003792Y001732D01*
X003534Y001990D01*
X003392Y001990D01*
X003392Y001590D01*
X003312Y001590D01*
X003312Y001990D01*
X003170Y001990D01*
X002992Y001812D01*
X002992Y002316D01*
X003178Y002130D01*
X003526Y002130D01*
X003772Y002376D01*
X003772Y002724D01*
X003526Y002970D01*
X003503Y002970D01*
X003598Y003184D01*
X003768Y003360D01*
X003988Y003468D01*
X004232Y003494D01*
X004348Y003476D01*
X004531Y003406D01*
X004950Y003365D01*
X005364Y003436D01*
X005745Y003614D01*
X006065Y003886D01*
X006065Y003886D01*
X006129Y003979D01*
X006333Y003979D01*
X006133Y003790D01*
X005673Y003525D01*
X005164Y003374D01*
X004634Y003345D01*
X004371Y003377D01*
X004245Y003403D01*
X003995Y003323D01*
X003816Y003131D01*
X003753Y002876D01*
X003823Y002623D01*
X003932Y002514D01*
X003932Y002376D01*
X004178Y002130D01*
X004526Y002130D01*
X004772Y002376D01*
X004772Y002724D01*
X004526Y002970D01*
X004178Y002970D01*
X004090Y002883D01*
X004112Y002971D01*
X004175Y003039D01*
X004263Y003067D01*
X004309Y003063D01*
X004311Y003063D01*
X004375Y003050D01*
X004376Y003051D01*
X004613Y003008D01*
X004613Y003008D01*
X005222Y003042D01*
X005806Y003215D01*
X005806Y003215D01*
X006335Y003519D01*
X006778Y003937D01*
X006778Y003937D01*
X006805Y003979D01*
X006998Y003979D01*
X007069Y004049D01*
X007069Y004115D01*
X007105Y004079D01*
X007272Y004079D01*
X007237Y004046D01*
X007236Y004046D01*
X007216Y004049D01*
X007183Y004027D01*
X007145Y004016D01*
X007131Y003992D01*
X006798Y003768D01*
X006054Y003307D01*
X005675Y003090D01*
X005528Y003013D01*
X005528Y003013D01*
X005485Y002970D01*
X005178Y002970D01*
X004932Y002724D01*
X004932Y002376D01*
X005178Y002130D01*
X005526Y002130D01*
X005772Y002376D01*
X005772Y002724D01*
X005741Y002755D01*
X005826Y002808D01*
X005828Y002809D01*
X005885Y002839D01*
X005886Y002841D01*
X006219Y003027D01*
X006975Y003496D01*
X007321Y003733D01*
X007403Y003756D01*
X007564Y003911D01*
X007630Y004111D01*
X007669Y004149D01*
X007669Y004215D01*
X007705Y004179D01*
X007926Y004179D01*
X007926Y004105D01*
X007876Y003995D01*
X007785Y003917D01*
X007773Y003912D01*
X007769Y003913D01*
X007718Y003891D01*
X007665Y003876D01*
X007659Y003866D01*
X007406Y003757D01*
X007406Y003757D01*
X006861Y003384D01*
X006455Y002970D01*
X006178Y002970D01*
X005932Y002724D01*
X005932Y002376D01*
X006178Y002130D01*
X006526Y002130D01*
X006772Y002376D01*
X006772Y002724D01*
X006726Y002769D01*
X007077Y003127D01*
X007568Y003462D01*
X007828Y003590D01*
X007942Y003622D01*
X007942Y003622D01*
X008143Y003794D01*
X008253Y004034D01*
X008253Y004231D01*
X008305Y004179D01*
X008454Y004179D01*
X008458Y004084D01*
X008378Y003849D01*
X008216Y003660D01*
X007997Y003544D01*
X007879Y003520D01*
X007760Y003520D01*
X007518Y003420D01*
X007332Y003234D01*
X007332Y003234D01*
X007232Y002991D01*
X007232Y002970D01*
X007178Y002970D01*
X006932Y002724D01*
X006932Y002376D01*
X007178Y002130D01*
X007526Y002130D01*
X007772Y002376D01*
X007772Y002724D01*
X007562Y002934D01*
X008133Y002934D01*
X008134Y002939D02*
X008132Y002925D01*
X007932Y002724D01*
X007932Y002376D01*
X008178Y002130D01*
X008526Y002130D01*
X008772Y002376D01*
X008772Y002724D01*
X008526Y002970D01*
X008508Y002970D01*
X008511Y002975D01*
X008607Y003071D01*
X008729Y003129D01*
X008748Y003132D01*
X008752Y003129D01*
X008807Y003142D01*
X008862Y003147D01*
X008870Y003156D01*
X008971Y003178D01*
X008971Y003178D01*
X009237Y003349D01*
X009237Y003349D01*
X009237Y003349D01*
X009428Y003602D01*
X009520Y003905D01*
X009505Y004179D01*
X009759Y004179D01*
X009764Y004170D01*
X009811Y003958D01*
X009790Y003742D01*
X009701Y003544D01*
X009634Y003458D01*
X009464Y003274D01*
X009313Y002970D01*
X009178Y002970D01*
X008932Y002724D01*
X008932Y002376D01*
X009178Y002130D01*
X009526Y002130D01*
X009772Y002376D01*
X009772Y002724D01*
X009633Y002863D01*
X009742Y003082D01*
X009870Y003242D01*
X009914Y003291D01*
X009979Y003361D01*
X010112Y003656D01*
X010112Y003656D01*
X010144Y003978D01*
X010144Y003978D01*
X010097Y004187D01*
X010105Y004179D01*
X010323Y004179D01*
X010370Y004008D01*
X010360Y003814D01*
X010288Y003633D01*
X010231Y003556D01*
X010128Y003448D01*
X010128Y003448D01*
X010011Y003157D01*
X010011Y002843D01*
X009985Y002777D02*
X009719Y002777D01*
X009772Y002699D02*
X009932Y002699D01*
X009932Y002620D02*
X009772Y002620D01*
X009772Y002542D02*
X009932Y002542D01*
X009932Y002463D02*
X009772Y002463D01*
X009772Y002385D02*
X009932Y002385D01*
X010002Y002306D02*
X009702Y002306D01*
X009623Y002228D02*
X010080Y002228D01*
X010159Y002149D02*
X009545Y002149D01*
X009611Y001914D02*
X010093Y001914D01*
X010015Y001835D02*
X009689Y001835D01*
X009768Y001757D02*
X009936Y001757D01*
X009912Y001678D02*
X009792Y001678D01*
X009792Y001600D02*
X009912Y001600D01*
X009912Y001443D02*
X009792Y001443D01*
X009788Y001364D02*
X009916Y001364D01*
X009994Y001286D02*
X009710Y001286D01*
X009631Y001207D02*
X010073Y001207D01*
X010312Y001521D02*
X009392Y001521D01*
X009392Y001600D02*
X009312Y001600D01*
X009312Y001678D02*
X009392Y001678D01*
X009392Y001757D02*
X009312Y001757D01*
X009312Y001835D02*
X009392Y001835D01*
X009392Y001914D02*
X009312Y001914D01*
X009093Y001914D02*
X008611Y001914D01*
X008689Y001835D02*
X009015Y001835D01*
X008936Y001757D02*
X008768Y001757D01*
X008792Y001678D02*
X008912Y001678D01*
X008912Y001600D02*
X008792Y001600D01*
X008792Y001443D02*
X008912Y001443D01*
X008916Y001364D02*
X008788Y001364D01*
X008710Y001286D02*
X008994Y001286D01*
X009073Y001207D02*
X008631Y001207D01*
X008392Y001521D02*
X009312Y001521D01*
X009159Y002149D02*
X008545Y002149D01*
X008623Y002228D02*
X009080Y002228D01*
X009002Y002306D02*
X008702Y002306D01*
X008772Y002385D02*
X008932Y002385D01*
X008932Y002463D02*
X008772Y002463D01*
X008772Y002542D02*
X008932Y002542D01*
X008932Y002620D02*
X008772Y002620D01*
X008772Y002699D02*
X008932Y002699D01*
X008985Y002777D02*
X008719Y002777D01*
X008640Y002856D02*
X009063Y002856D01*
X009142Y002934D02*
X008562Y002934D01*
X008548Y003013D02*
X009334Y003013D01*
X009373Y003091D02*
X008649Y003091D01*
X008416Y003342D02*
X008240Y003165D01*
X008134Y002939D01*
X008134Y002939D01*
X008168Y003013D02*
X007594Y003013D01*
X007609Y003049D02*
X007703Y003143D01*
X007825Y003193D01*
X007842Y003195D01*
X007843Y003194D01*
X007900Y003200D01*
X007958Y003200D01*
X007965Y003207D01*
X008095Y003221D01*
X008095Y003221D01*
X008427Y003396D01*
X008671Y003681D01*
X008671Y003681D01*
X008792Y004036D01*
X008786Y004179D01*
X008798Y004179D01*
X008852Y004232D01*
X008905Y004179D01*
X009162Y004179D01*
X009177Y004144D01*
X009189Y003944D01*
X009131Y003754D01*
X009010Y003594D01*
X008842Y003486D01*
X008753Y003458D01*
X008643Y003448D01*
X008643Y003448D01*
X008416Y003342D01*
X008416Y003342D01*
X008401Y003327D02*
X008295Y003327D01*
X008322Y003248D02*
X008146Y003248D01*
X008240Y003165D02*
X008240Y003165D01*
X008244Y003170D02*
X007768Y003170D01*
X007651Y003091D02*
X008205Y003091D01*
X008063Y002856D02*
X007640Y002856D01*
X007562Y002934D02*
X007609Y003049D01*
X007392Y002860D02*
X007352Y002550D01*
X007702Y002306D02*
X008002Y002306D01*
X007932Y002385D02*
X007772Y002385D01*
X007772Y002463D02*
X007932Y002463D01*
X007932Y002542D02*
X007772Y002542D01*
X007772Y002620D02*
X007932Y002620D01*
X007932Y002699D02*
X007772Y002699D01*
X007719Y002777D02*
X007985Y002777D01*
X007892Y003360D02*
X007848Y003358D01*
X007805Y003352D01*
X007763Y003343D01*
X007721Y003330D01*
X007681Y003313D01*
X007642Y003293D01*
X007605Y003270D01*
X007571Y003243D01*
X007538Y003214D01*
X007509Y003181D01*
X007482Y003147D01*
X007459Y003110D01*
X007439Y003071D01*
X007422Y003031D01*
X007409Y002989D01*
X007400Y002947D01*
X007394Y002904D01*
X007392Y002860D01*
X007241Y003013D02*
X006965Y003013D01*
X007042Y003091D02*
X007273Y003091D01*
X007306Y003170D02*
X007140Y003170D01*
X007255Y003248D02*
X007346Y003248D01*
X007369Y003327D02*
X007425Y003327D01*
X007484Y003405D02*
X007503Y003405D01*
X007518Y003420D02*
X007518Y003420D01*
X007611Y003484D02*
X007672Y003484D01*
X007772Y003562D02*
X008030Y003562D01*
X007964Y003641D02*
X008179Y003641D01*
X008267Y003719D02*
X008056Y003719D01*
X008143Y003794D02*
X008143Y003794D01*
X008145Y003798D02*
X008334Y003798D01*
X008387Y003876D02*
X008181Y003876D01*
X008217Y003955D02*
X008414Y003955D01*
X008441Y004033D02*
X008253Y004033D01*
X008253Y004034D02*
X008253Y004034D01*
X008253Y004112D02*
X008457Y004112D01*
X008294Y004190D02*
X008253Y004190D01*
X008052Y004350D02*
X007952Y004515D01*
X008552Y004515D02*
X008573Y004464D01*
X008591Y004412D01*
X008605Y004358D01*
X008615Y004304D01*
X008622Y004249D01*
X008625Y004194D01*
X008624Y004138D01*
X008620Y004083D01*
X008611Y004028D01*
X008600Y003974D01*
X008584Y003921D01*
X008565Y003869D01*
X008543Y003818D01*
X008517Y003769D01*
X008488Y003722D01*
X008455Y003677D01*
X008420Y003634D01*
X008382Y003594D01*
X008342Y003556D01*
X008299Y003521D01*
X008254Y003489D01*
X008206Y003461D01*
X008157Y003435D01*
X008106Y003413D01*
X008054Y003394D01*
X008001Y003379D01*
X007947Y003368D01*
X007892Y003360D01*
X008427Y003396D02*
X008427Y003396D01*
X008435Y003405D02*
X008551Y003405D01*
X008502Y003484D02*
X008833Y003484D01*
X008960Y003562D02*
X008569Y003562D01*
X008636Y003641D02*
X009045Y003641D01*
X009104Y003719D02*
X008684Y003719D01*
X008711Y003798D02*
X009144Y003798D01*
X009168Y003876D02*
X008738Y003876D01*
X008765Y003955D02*
X009188Y003955D01*
X009851Y004350D02*
X009879Y004301D01*
X009903Y004249D01*
X009924Y004197D01*
X009941Y004143D01*
X009954Y004088D01*
X009964Y004032D01*
X009970Y003975D01*
X009972Y003919D01*
X009970Y003862D01*
X009965Y003806D01*
X009955Y003750D01*
X009942Y003695D01*
X009925Y003640D01*
X009904Y003588D01*
X009880Y003536D01*
X009853Y003487D01*
X009822Y003439D01*
X009788Y003394D01*
X009751Y003351D01*
X009634Y003458D02*
X009634Y003458D01*
X009654Y003484D02*
X009339Y003484D01*
X009398Y003562D02*
X009709Y003562D01*
X009744Y003641D02*
X009440Y003641D01*
X009428Y003602D02*
X009428Y003602D01*
X009464Y003719D02*
X009779Y003719D01*
X009795Y003798D02*
X009488Y003798D01*
X009512Y003876D02*
X009803Y003876D01*
X010352Y003450D02*
X010384Y003491D01*
X010414Y003534D01*
X010441Y003579D01*
X010464Y003625D01*
X010484Y003673D01*
X010501Y003723D01*
X010515Y003773D01*
X010525Y003824D01*
X010531Y003876D01*
X010534Y003928D01*
X010533Y003980D01*
X010529Y004032D01*
X010521Y004084D01*
X010509Y004135D01*
X010494Y004184D01*
X010476Y004233D01*
X010454Y004281D01*
X010430Y004327D01*
X010402Y004371D01*
X010402Y004370D02*
X010352Y004515D01*
X010669Y004504D02*
X010712Y004504D01*
X010712Y004426D02*
X010669Y004426D01*
X010669Y004347D02*
X010712Y004347D01*
X010712Y004269D02*
X010669Y004269D01*
X010669Y004249D02*
X010669Y004782D01*
X010600Y004850D01*
X010669Y004918D01*
X010669Y005451D01*
X010598Y005521D01*
X010461Y005521D01*
X010461Y006218D01*
X010545Y006218D01*
X010616Y006289D01*
X010616Y006508D01*
X010597Y006526D01*
X010616Y006545D01*
X010712Y006545D01*
X010712Y006467D02*
X010616Y006467D01*
X010616Y006545D02*
X010616Y006764D01*
X010597Y006782D01*
X010616Y006801D01*
X010616Y007020D01*
X010597Y007038D01*
X010616Y007056D01*
X010616Y007276D01*
X010597Y007294D01*
X010616Y007312D01*
X010616Y007532D01*
X010597Y007550D01*
X010616Y007568D01*
X010616Y007788D01*
X010597Y007806D01*
X010616Y007824D01*
X010616Y008044D01*
X010597Y008062D01*
X010616Y008080D01*
X010616Y008299D01*
X010610Y008305D01*
X010626Y008332D01*
X010636Y008367D01*
X010636Y008446D01*
X010636Y008524D01*
X010626Y008560D01*
X010610Y008587D01*
X010616Y008592D01*
X010616Y008811D01*
X010545Y008882D01*
X010456Y008882D01*
X010456Y008933D01*
X010553Y008933D01*
X010623Y009003D01*
X010623Y009497D01*
X010553Y009567D01*
X010020Y009567D01*
X009961Y009507D01*
X009946Y009533D01*
X009920Y009559D01*
X009888Y009577D01*
X009852Y009587D01*
X009657Y009587D01*
X009657Y009290D01*
X009577Y009290D01*
X009577Y009210D01*
X009261Y009210D01*
X009026Y009210D01*
X009026Y008913D01*
X009221Y008913D01*
X009257Y008923D01*
X009289Y008941D01*
X009302Y008954D01*
X009315Y008941D01*
X009347Y008923D01*
X009382Y008913D01*
X009577Y008913D01*
X009577Y009210D01*
X009657Y009210D01*
X009657Y008913D01*
X009852Y008913D01*
X009888Y008923D01*
X009920Y008941D01*
X009946Y008967D01*
X009961Y008993D01*
X010020Y008933D01*
X010116Y008933D01*
X010116Y008882D01*
X010056Y008882D01*
X010046Y008872D01*
X008413Y008872D01*
X008475Y008933D01*
X008583Y008933D01*
X008643Y008993D01*
X008658Y008967D01*
X008684Y008941D01*
X008716Y008923D01*
X008751Y008913D01*
X008946Y008913D01*
X008946Y009210D01*
X009026Y009210D01*
X009026Y009290D01*
X008946Y009290D01*
X008946Y009587D01*
X008751Y009587D01*
X008716Y009577D01*
X008684Y009559D01*
X008658Y009533D01*
X008643Y009507D01*
X008583Y009567D01*
X008487Y009567D01*
X008487Y009648D01*
X008926Y009648D01*
X008944Y009666D01*
X009165Y009666D01*
X009239Y009740D01*
X009307Y009809D01*
X009307Y009718D01*
X009378Y009648D01*
X009950Y009648D01*
X010020Y009718D01*
X010020Y009735D01*
X010035Y009735D01*
X010035Y009649D01*
X010105Y009579D01*
X010598Y009579D01*
X010669Y009649D01*
X010669Y010182D01*
X010600Y010250D01*
X010669Y010318D01*
X010669Y010827D01*
X010679Y010845D01*
X010689Y010880D01*
X010689Y011075D01*
X010392Y011075D01*
X010392Y011155D01*
X010689Y011155D01*
X010689Y011350D01*
X010679Y011386D01*
X010661Y011418D01*
X010635Y011444D01*
X010609Y011459D01*
X010669Y011518D01*
X010669Y012582D01*
X010609Y012641D01*
X010635Y012656D01*
X010661Y012682D01*
X010679Y012714D01*
X010689Y012750D01*
X010689Y012945D01*
X010392Y012945D01*
X010392Y013025D01*
X010312Y013025D01*
X010312Y013341D01*
X010136Y013341D01*
X010101Y013332D01*
X010069Y013313D01*
X010043Y013287D01*
X010024Y013255D01*
X010015Y013220D01*
X010015Y013025D01*
X010312Y013025D01*
X010312Y012945D01*
X010015Y012945D01*
X010015Y012750D01*
X010024Y012714D01*
X010043Y012682D01*
X010069Y012656D01*
X010095Y012641D01*
X010035Y012582D01*
X010035Y011995D01*
X009787Y011995D01*
X009787Y012024D01*
X009716Y012094D01*
X008987Y012094D01*
X008917Y012024D01*
X008917Y011374D01*
X008942Y011349D01*
X008942Y011220D01*
X008823Y011220D01*
X008852Y011290D01*
X008852Y011410D01*
X008806Y011520D01*
X008722Y011604D01*
X008611Y011650D01*
X008492Y011650D01*
X008382Y011604D01*
X008297Y011520D01*
X008252Y011410D01*
X008252Y011367D01*
X007720Y011367D01*
X007652Y011298D01*
X007583Y011367D01*
X007534Y011367D01*
X007534Y011588D01*
X007562Y011616D01*
X007564Y011614D01*
X007617Y011575D01*
X007676Y011545D01*
X007738Y011525D01*
X007796Y011516D01*
X007796Y011892D01*
X007876Y011892D01*
X007876Y011972D01*
X007796Y011972D01*
X007796Y012348D01*
X007738Y012339D01*
X007676Y012318D01*
X007617Y012289D01*
X007564Y012250D01*
X007562Y012248D01*
X007492Y012318D01*
X006212Y012318D01*
X006142Y012248D01*
X006139Y012250D01*
X006086Y012289D01*
X006028Y012318D01*
X005965Y012339D01*
X005908Y012348D01*
X005908Y011972D01*
X005828Y011972D01*
X005828Y012348D01*
X005770Y012339D01*
X005707Y012318D01*
X005649Y012289D01*
X005596Y012250D01*
X005549Y012204D01*
X005511Y012151D01*
X005481Y012092D01*
X005461Y012030D01*
X005451Y011972D01*
X005828Y011972D01*
X005828Y011892D01*
X005451Y011892D01*
X005461Y011834D01*
X005481Y011772D01*
X005511Y011713D01*
X005549Y011660D01*
X005596Y011614D01*
X005649Y011575D01*
X005707Y011545D01*
X005770Y011525D01*
X005801Y011520D01*
X005257Y011520D01*
X005223Y011554D01*
X005223Y011897D01*
X005153Y011967D01*
X004797Y011967D01*
X004803Y011968D01*
X004835Y011987D01*
X004861Y012013D01*
X004879Y012045D01*
X004889Y012080D01*
X004889Y012275D01*
X004592Y012275D01*
X004592Y011959D01*
X004612Y011959D01*
X004561Y011907D01*
X004546Y011933D01*
X004520Y011959D01*
X004512Y011963D01*
X004512Y012275D01*
X004592Y012275D01*
X004592Y012355D01*
X004889Y012355D01*
X004889Y012550D01*
X004879Y012586D01*
X004861Y012618D01*
X004835Y012644D01*
X004809Y012659D01*
X004869Y012718D01*
X004869Y013251D01*
X004798Y013321D01*
X004305Y013321D01*
X004235Y013251D01*
X004235Y013105D01*
X003829Y013105D01*
X003829Y013152D01*
X003759Y013223D01*
X003345Y013223D01*
X003274Y013152D01*
X003274Y012738D01*
X003345Y012668D01*
X003759Y012668D01*
X003829Y012738D01*
X003829Y012785D01*
X004235Y012785D01*
X004235Y012718D01*
X004295Y012659D01*
X004269Y012644D01*
X004243Y012618D01*
X004224Y012586D01*
X004215Y012550D01*
X004215Y012355D01*
X004512Y012355D01*
X004512Y012275D01*
X004215Y012275D01*
X004215Y012080D01*
X004224Y012045D01*
X004243Y012013D01*
X004269Y011987D01*
X004257Y011987D01*
X004257Y011690D01*
X004177Y011690D01*
X004177Y011610D01*
X003861Y011610D01*
X003861Y011435D01*
X003870Y011399D01*
X003889Y011367D01*
X003915Y011341D01*
X003947Y011323D01*
X003982Y011313D01*
X004061Y011313D01*
X004027Y011280D01*
X003982Y011170D01*
X003982Y011050D01*
X004027Y010940D01*
X004101Y010867D01*
X003820Y010867D01*
X003761Y010807D01*
X003746Y010833D01*
X003720Y010859D01*
X003688Y010877D01*
X003652Y010887D01*
X003457Y010887D01*
X003457Y010590D01*
X003377Y010590D01*
X003377Y010510D01*
X003061Y010510D01*
X003061Y010335D01*
X003070Y010299D01*
X003089Y010267D01*
X003106Y010250D01*
X003089Y010233D01*
X003070Y010201D01*
X003061Y010165D01*
X003061Y009990D01*
X003377Y009990D01*
X003377Y009910D01*
X003061Y009910D01*
X003061Y009735D01*
X003070Y009699D01*
X003089Y009667D01*
X003115Y009641D01*
X003147Y009623D01*
X003182Y009613D01*
X003377Y009613D01*
X003377Y009910D01*
X003457Y009910D01*
X003457Y009613D01*
X003652Y009613D01*
X003688Y009623D01*
X003720Y009641D01*
X003746Y009667D01*
X003761Y009693D01*
X003807Y009646D01*
X003582Y009420D01*
X003582Y009020D01*
X003481Y008920D01*
X003281Y008920D01*
X003182Y008820D01*
X003082Y008720D01*
X003082Y005598D01*
X003035Y005551D01*
X003035Y005018D01*
X003095Y004959D01*
X003069Y004944D01*
X003043Y004918D01*
X003024Y004886D01*
X003015Y004850D01*
X003015Y004655D01*
X003312Y004655D01*
X003312Y004575D01*
X003392Y004575D01*
X003392Y004259D01*
X003567Y004259D01*
X003603Y004268D01*
X003635Y004287D01*
X003661Y004313D01*
X003679Y004345D01*
X003689Y004380D01*
X003689Y004430D01*
X003692Y004421D01*
X003692Y004384D01*
X003714Y004362D01*
X003725Y004332D01*
X003759Y004317D01*
X003786Y004290D01*
X003817Y004290D01*
X003890Y004256D01*
X003890Y003974D01*
X003960Y003904D01*
X004611Y003904D01*
X004681Y003974D01*
X004681Y004526D01*
X004656Y004551D01*
X004673Y004568D01*
X004692Y004600D01*
X004701Y004635D01*
X004701Y004840D01*
X004326Y004840D01*
X004326Y004920D01*
X004701Y004920D01*
X004701Y004974D01*
X004756Y004919D01*
X004756Y004604D01*
X004781Y004579D01*
X004764Y004562D01*
X004746Y004530D01*
X004736Y004495D01*
X004736Y004290D01*
X005112Y004290D01*
X005112Y004210D01*
X005192Y004210D01*
X005192Y004290D01*
X005567Y004290D01*
X005567Y004495D01*
X005558Y004530D01*
X005539Y004562D01*
X005523Y004579D01*
X005547Y004604D01*
X005547Y005156D01*
X005477Y005226D01*
X004902Y005226D01*
X004838Y005290D01*
X005718Y005290D01*
X005818Y005390D01*
X005888Y005460D01*
X006030Y005460D01*
X006039Y005469D01*
X006048Y005460D01*
X006135Y005460D01*
X006086Y005410D01*
X005997Y005321D01*
X005905Y005321D01*
X005835Y005251D01*
X005835Y004718D01*
X005903Y004650D01*
X005835Y004582D01*
X005835Y004132D01*
X005817Y004110D01*
X005564Y003895D01*
X005264Y003755D01*
X004938Y003699D01*
X004608Y003731D01*
X004497Y003765D01*
X004495Y003769D01*
X004440Y003783D01*
X004387Y003803D01*
X004377Y003799D01*
X004255Y003829D01*
X004255Y003829D01*
X003895Y003790D01*
X003570Y003631D01*
X003319Y003371D01*
X003173Y003040D01*
X003167Y002959D01*
X002992Y002784D01*
X002992Y013410D01*
X004993Y013410D01*
X004989Y013403D01*
X004979Y013368D01*
X004979Y013035D01*
X005434Y013035D01*
X005434Y012955D01*
X005514Y012955D01*
X005514Y013035D01*
X005968Y013035D01*
X005968Y013368D01*
X005959Y013403D01*
X005955Y013410D01*
X006075Y013410D01*
X006051Y013386D01*
X006032Y013354D01*
X006023Y013318D01*
X006023Y013035D01*
X006418Y013035D01*
X006418Y012955D01*
X006023Y012955D01*
X006023Y012671D01*
X006032Y012636D01*
X006051Y012604D01*
X006077Y012578D01*
X006109Y012559D01*
X006144Y012550D01*
X006418Y012550D01*
X006418Y012955D01*
X006498Y012955D01*
X006498Y013035D01*
X006893Y013035D01*
X007205Y013035D01*
X007205Y012955D01*
X006498Y012955D01*
X006498Y012550D01*
X006772Y012550D01*
X006807Y012559D01*
X006839Y012578D01*
X006852Y012590D01*
X006864Y012578D01*
X006896Y012559D01*
X006932Y012550D01*
X007205Y012550D01*
X007205Y012955D01*
X007285Y012955D01*
X007285Y012550D01*
X007559Y012550D01*
X007595Y012559D01*
X007627Y012578D01*
X007653Y012604D01*
X007671Y012636D01*
X007681Y012671D01*
X007681Y012955D01*
X007285Y012955D01*
X007285Y013035D01*
X007681Y013035D01*
X007681Y013318D01*
X007671Y013354D01*
X007653Y013386D01*
X007629Y013410D01*
X007749Y013410D01*
X007745Y013403D01*
X007735Y013368D01*
X007735Y013035D01*
X008190Y013035D01*
X008190Y012955D01*
X008270Y012955D01*
X008270Y013035D01*
X008724Y013035D01*
X008724Y013368D01*
X008715Y013403D01*
X008711Y013410D01*
X010712Y013410D01*
X010712Y002784D01*
X010526Y002970D01*
X010340Y002970D01*
X010340Y003093D01*
X010409Y003266D01*
X010463Y003334D01*
X010470Y003342D01*
X010513Y003387D01*
X010513Y003392D01*
X010572Y003461D01*
X010684Y003742D01*
X010701Y004044D01*
X010649Y004229D01*
X010669Y004249D01*
X010660Y004190D02*
X010712Y004190D01*
X010712Y004112D02*
X010682Y004112D01*
X010701Y004044D02*
X010701Y004044D01*
X010700Y004033D02*
X010712Y004033D01*
X010712Y003955D02*
X010696Y003955D01*
X010692Y003876D02*
X010712Y003876D01*
X010712Y003798D02*
X010688Y003798D01*
X010684Y003742D02*
X010684Y003742D01*
X010675Y003719D02*
X010712Y003719D01*
X010712Y003641D02*
X010644Y003641D01*
X010612Y003562D02*
X010712Y003562D01*
X010712Y003484D02*
X010581Y003484D01*
X010572Y003461D02*
X010572Y003461D01*
X010524Y003405D02*
X010712Y003405D01*
X010712Y003327D02*
X010457Y003327D01*
X010402Y003248D02*
X010712Y003248D01*
X010712Y003170D02*
X010370Y003170D01*
X010340Y003091D02*
X010712Y003091D01*
X010712Y003013D02*
X010340Y003013D01*
X010562Y002934D02*
X010712Y002934D01*
X010712Y002856D02*
X010640Y002856D01*
X010351Y002550D02*
X010318Y002587D01*
X010288Y002626D01*
X010261Y002668D01*
X010237Y002712D01*
X010217Y002757D01*
X010200Y002804D01*
X010187Y002852D01*
X010178Y002901D01*
X010172Y002950D01*
X010170Y003000D01*
X010172Y003050D01*
X010178Y003099D01*
X010187Y003148D01*
X010200Y003196D01*
X010217Y003243D01*
X010237Y003288D01*
X010261Y003332D01*
X010288Y003374D01*
X010318Y003413D01*
X010351Y003450D01*
X010236Y003562D02*
X010069Y003562D01*
X010034Y003484D02*
X010162Y003484D01*
X010111Y003405D02*
X009999Y003405D01*
X009979Y003361D02*
X009979Y003361D01*
X009947Y003327D02*
X010079Y003327D01*
X010047Y003248D02*
X009875Y003248D01*
X009914Y003291D02*
X009914Y003291D01*
X009812Y003170D02*
X010016Y003170D01*
X010011Y003091D02*
X009749Y003091D01*
X009707Y003013D02*
X010011Y003013D01*
X010011Y002934D02*
X009668Y002934D01*
X009412Y003170D02*
X008932Y003170D01*
X009079Y003248D02*
X009452Y003248D01*
X009464Y003274D02*
X009464Y003274D01*
X009513Y003327D02*
X009202Y003327D01*
X009279Y003405D02*
X009585Y003405D01*
X009520Y003905D02*
X009520Y003905D01*
X009517Y003955D02*
X009811Y003955D01*
X009794Y004033D02*
X009513Y004033D01*
X009509Y004112D02*
X009777Y004112D01*
X009852Y004350D02*
X009752Y004515D01*
X009505Y004179D02*
X009505Y004179D01*
X009179Y004112D02*
X008789Y004112D01*
X008792Y004036D02*
X008792Y004036D01*
X008791Y004033D02*
X009184Y004033D01*
X008894Y004190D02*
X008810Y004190D01*
X009152Y004515D02*
X009187Y004475D01*
X009219Y004433D01*
X009248Y004388D01*
X009274Y004342D01*
X009296Y004294D01*
X009315Y004244D01*
X009330Y004193D01*
X009341Y004141D01*
X009349Y004088D01*
X009353Y004035D01*
X009352Y003982D01*
X009348Y003929D01*
X009340Y003877D01*
X009329Y003825D01*
X009313Y003774D01*
X009294Y003725D01*
X009271Y003676D01*
X009245Y003630D01*
X009216Y003586D01*
X009183Y003544D01*
X009148Y003504D01*
X009109Y003468D01*
X009068Y003434D01*
X009025Y003403D01*
X008980Y003375D01*
X008933Y003351D01*
X008884Y003330D01*
X008833Y003313D01*
X008782Y003300D01*
X008737Y003294D01*
X008693Y003284D01*
X008650Y003271D01*
X008608Y003255D01*
X008568Y003235D01*
X008529Y003211D01*
X008492Y003185D01*
X008458Y003156D01*
X008426Y003124D01*
X008397Y003090D01*
X008371Y003053D01*
X008347Y003014D01*
X008327Y002974D01*
X008311Y002932D01*
X008298Y002889D01*
X008288Y002845D01*
X008282Y002800D01*
X008352Y002550D01*
X008080Y002228D02*
X007623Y002228D01*
X007545Y002149D02*
X008159Y002149D01*
X008093Y001914D02*
X007611Y001914D01*
X007689Y001835D02*
X008015Y001835D01*
X007936Y001757D02*
X007768Y001757D01*
X007792Y001678D02*
X007912Y001678D01*
X007912Y001600D02*
X007792Y001600D01*
X007792Y001443D02*
X007912Y001443D01*
X007916Y001364D02*
X007788Y001364D01*
X007710Y001286D02*
X007994Y001286D01*
X008073Y001207D02*
X007631Y001207D01*
X007392Y001521D02*
X008312Y001521D01*
X008312Y001600D02*
X008392Y001600D01*
X008392Y001678D02*
X008312Y001678D01*
X008312Y001757D02*
X008392Y001757D01*
X008392Y001835D02*
X008312Y001835D01*
X008312Y001914D02*
X008392Y001914D01*
X007392Y001914D02*
X007312Y001914D01*
X007312Y001835D02*
X007392Y001835D01*
X007392Y001757D02*
X007312Y001757D01*
X007312Y001678D02*
X007392Y001678D01*
X007392Y001600D02*
X007312Y001600D01*
X007312Y001521D02*
X006392Y001521D01*
X006392Y001600D02*
X006312Y001600D01*
X006312Y001678D02*
X006392Y001678D01*
X006392Y001757D02*
X006312Y001757D01*
X006312Y001835D02*
X006392Y001835D01*
X006392Y001914D02*
X006312Y001914D01*
X006093Y001914D02*
X005611Y001914D01*
X005689Y001835D02*
X006015Y001835D01*
X005936Y001757D02*
X005768Y001757D01*
X005792Y001678D02*
X005912Y001678D01*
X005912Y001600D02*
X005792Y001600D01*
X005792Y001443D02*
X005912Y001443D01*
X005916Y001364D02*
X005788Y001364D01*
X005710Y001286D02*
X005994Y001286D01*
X006073Y001207D02*
X005631Y001207D01*
X005392Y001521D02*
X006312Y001521D01*
X006631Y001207D02*
X007073Y001207D01*
X006994Y001286D02*
X006710Y001286D01*
X006788Y001364D02*
X006916Y001364D01*
X006912Y001443D02*
X006792Y001443D01*
X006792Y001600D02*
X006912Y001600D01*
X006912Y001678D02*
X006792Y001678D01*
X006768Y001757D02*
X006936Y001757D01*
X007015Y001835D02*
X006689Y001835D01*
X006611Y001914D02*
X007093Y001914D01*
X007159Y002149D02*
X006545Y002149D01*
X006623Y002228D02*
X007080Y002228D01*
X007002Y002306D02*
X006702Y002306D01*
X006772Y002385D02*
X006932Y002385D01*
X006932Y002463D02*
X006772Y002463D01*
X006772Y002542D02*
X006932Y002542D01*
X006932Y002620D02*
X006772Y002620D01*
X006772Y002699D02*
X006932Y002699D01*
X006985Y002777D02*
X006734Y002777D01*
X006811Y002856D02*
X007063Y002856D01*
X007142Y002934D02*
X006888Y002934D01*
X006651Y003170D02*
X006449Y003170D01*
X006574Y003091D02*
X006322Y003091D01*
X006193Y003013D02*
X006497Y003013D01*
X006576Y003248D02*
X006728Y003248D01*
X006702Y003327D02*
X006805Y003327D01*
X006861Y003384D02*
X006861Y003384D01*
X006892Y003405D02*
X006829Y003405D01*
X006955Y003484D02*
X007007Y003484D01*
X007072Y003562D02*
X007121Y003562D01*
X007186Y003641D02*
X007236Y003641D01*
X007300Y003719D02*
X007351Y003719D01*
X007403Y003756D02*
X007403Y003756D01*
X007446Y003798D02*
X007501Y003798D01*
X007528Y003876D02*
X007665Y003876D01*
X007564Y003911D02*
X007564Y003911D01*
X007579Y003955D02*
X007829Y003955D01*
X007894Y004033D02*
X007605Y004033D01*
X007631Y004112D02*
X007926Y004112D01*
X007694Y004190D02*
X007669Y004190D01*
X008052Y004350D02*
X008067Y004313D01*
X008079Y004274D01*
X008087Y004235D01*
X008092Y004195D01*
X008093Y004155D01*
X008090Y004115D01*
X008084Y004075D01*
X008074Y004036D01*
X008061Y003998D01*
X008044Y003962D01*
X008024Y003927D01*
X008001Y003894D01*
X007975Y003864D01*
X007946Y003836D01*
X007915Y003810D01*
X007882Y003788D01*
X007847Y003768D01*
X007810Y003752D01*
X007772Y003740D01*
X007192Y004033D02*
X007053Y004033D01*
X007069Y004112D02*
X007073Y004112D01*
X007252Y003880D02*
X007282Y003890D01*
X007311Y003904D01*
X007338Y003921D01*
X007364Y003940D01*
X007386Y003963D01*
X007407Y003987D01*
X007424Y004014D01*
X007438Y004043D01*
X007449Y004073D01*
X007457Y004104D01*
X007461Y004136D01*
X007462Y004168D01*
X007459Y004200D01*
X007452Y004231D01*
X007442Y004261D01*
X007429Y004290D01*
X007413Y004318D01*
X007393Y004343D01*
X007371Y004367D01*
X007347Y004387D01*
X007320Y004405D01*
X007292Y004420D01*
X007352Y004415D01*
X007076Y003955D02*
X006789Y003955D01*
X006713Y003876D02*
X006958Y003876D01*
X006841Y003798D02*
X006630Y003798D01*
X006547Y003719D02*
X006718Y003719D01*
X006592Y003641D02*
X006463Y003641D01*
X006465Y003562D02*
X006380Y003562D01*
X006335Y003519D02*
X006335Y003519D01*
X006338Y003484D02*
X006273Y003484D01*
X006212Y003405D02*
X006136Y003405D01*
X006085Y003327D02*
X006000Y003327D01*
X005951Y003248D02*
X005864Y003248D01*
X005813Y003170D02*
X005653Y003170D01*
X005676Y003091D02*
X005389Y003091D01*
X005527Y003013D02*
X004691Y003013D01*
X004590Y003013D02*
X004151Y003013D01*
X004142Y002934D02*
X004103Y002934D01*
X004392Y003631D02*
X004335Y003643D01*
X004277Y003651D01*
X004219Y003655D01*
X004160Y003656D01*
X004102Y003652D01*
X004044Y003645D01*
X003987Y003633D01*
X003930Y003618D01*
X003875Y003599D01*
X003821Y003576D01*
X003769Y003550D01*
X003718Y003520D01*
X003670Y003487D01*
X003624Y003451D01*
X003581Y003411D01*
X003540Y003369D01*
X003503Y003325D01*
X003468Y003277D01*
X003437Y003228D01*
X003409Y003176D01*
X003385Y003123D01*
X003364Y003068D01*
X003347Y003013D01*
X003334Y002955D01*
X003325Y002898D01*
X003319Y002839D01*
X003318Y002781D01*
X003321Y002723D01*
X003327Y002664D01*
X003338Y002607D01*
X003352Y002550D01*
X003640Y002856D02*
X003759Y002856D01*
X003753Y002876D02*
X003753Y002876D01*
X003767Y002934D02*
X003562Y002934D01*
X003522Y003013D02*
X003787Y003013D01*
X003806Y003091D02*
X003557Y003091D01*
X003592Y003170D02*
X003851Y003170D01*
X003816Y003131D02*
X003816Y003131D01*
X003925Y003248D02*
X003660Y003248D01*
X003736Y003327D02*
X004005Y003327D01*
X003995Y003323D02*
X003995Y003323D01*
X003860Y003405D02*
X004537Y003405D01*
X004297Y003484D02*
X004136Y003484D01*
X004245Y003403D02*
X004245Y003403D01*
X004402Y003798D02*
X005356Y003798D01*
X005446Y003884D02*
X005481Y003893D01*
X005513Y003912D01*
X005539Y003938D01*
X005558Y003970D01*
X005567Y004005D01*
X005567Y004210D01*
X005192Y004210D01*
X005192Y003884D01*
X005446Y003884D01*
X005524Y003876D02*
X002992Y003876D01*
X002992Y003798D02*
X003961Y003798D01*
X003895Y003790D02*
X003895Y003790D01*
X003749Y003719D02*
X002992Y003719D01*
X002992Y003641D02*
X003589Y003641D01*
X003570Y003631D02*
X003570Y003631D01*
X003503Y003562D02*
X002992Y003562D01*
X002992Y003484D02*
X003428Y003484D01*
X003352Y003405D02*
X002992Y003405D01*
X002992Y003327D02*
X003300Y003327D01*
X003319Y003371D02*
X003319Y003371D01*
X003265Y003248D02*
X002992Y003248D01*
X002992Y003170D02*
X003230Y003170D01*
X003195Y003091D02*
X002992Y003091D01*
X002992Y003013D02*
X003171Y003013D01*
X003173Y003040D02*
X003173Y003040D01*
X003142Y002934D02*
X002992Y002934D01*
X002992Y002856D02*
X003063Y002856D01*
X003002Y002306D02*
X002992Y002306D01*
X002992Y002228D02*
X003080Y002228D01*
X003159Y002149D02*
X002992Y002149D01*
X002992Y002071D02*
X010712Y002071D01*
X010712Y002149D02*
X010545Y002149D01*
X010623Y002228D02*
X010712Y002228D01*
X010702Y002306D02*
X010712Y002306D01*
X009352Y002549D02*
X009368Y002623D01*
X009387Y002696D01*
X009409Y002769D01*
X009435Y002839D01*
X009464Y002909D01*
X009496Y002977D01*
X009531Y003044D01*
X009570Y003109D01*
X009611Y003172D01*
X009655Y003233D01*
X009702Y003292D01*
X009752Y003349D01*
X010104Y003641D02*
X010291Y003641D01*
X010322Y003719D02*
X010118Y003719D01*
X010126Y003798D02*
X010354Y003798D01*
X010363Y003876D02*
X010134Y003876D01*
X010141Y003955D02*
X010368Y003955D01*
X010363Y004033D02*
X010131Y004033D01*
X010114Y004112D02*
X010341Y004112D01*
X010669Y004583D02*
X010712Y004583D01*
X010712Y004661D02*
X010669Y004661D01*
X010669Y004740D02*
X010712Y004740D01*
X010712Y004818D02*
X010632Y004818D01*
X010647Y004897D02*
X010712Y004897D01*
X010712Y004975D02*
X010669Y004975D01*
X010669Y005054D02*
X010712Y005054D01*
X010712Y005132D02*
X010669Y005132D01*
X010669Y005211D02*
X010712Y005211D01*
X010712Y005289D02*
X010669Y005289D01*
X010669Y005368D02*
X010712Y005368D01*
X010712Y005446D02*
X010669Y005446D01*
X010712Y005525D02*
X010461Y005525D01*
X010461Y005603D02*
X010712Y005603D01*
X010712Y005682D02*
X010461Y005682D01*
X010461Y005760D02*
X010712Y005760D01*
X010712Y005839D02*
X010461Y005839D01*
X010461Y005917D02*
X010712Y005917D01*
X010712Y005996D02*
X010461Y005996D01*
X010461Y006074D02*
X010712Y006074D01*
X010712Y006153D02*
X010461Y006153D01*
X010558Y006231D02*
X010712Y006231D01*
X010712Y006310D02*
X010616Y006310D01*
X010616Y006388D02*
X010712Y006388D01*
X010712Y006624D02*
X010616Y006624D01*
X010616Y006702D02*
X010712Y006702D01*
X010712Y006781D02*
X010599Y006781D01*
X010616Y006859D02*
X010712Y006859D01*
X010712Y006938D02*
X010616Y006938D01*
X010616Y007016D02*
X010712Y007016D01*
X010712Y007095D02*
X010616Y007095D01*
X010616Y007173D02*
X010712Y007173D01*
X010712Y007252D02*
X010616Y007252D01*
X010616Y007330D02*
X010712Y007330D01*
X010712Y007409D02*
X010616Y007409D01*
X010616Y007487D02*
X010712Y007487D01*
X010712Y007566D02*
X010613Y007566D01*
X010616Y007644D02*
X010712Y007644D01*
X010712Y007723D02*
X010616Y007723D01*
X010602Y007801D02*
X010712Y007801D01*
X010712Y007880D02*
X010616Y007880D01*
X010616Y007958D02*
X010712Y007958D01*
X010712Y008037D02*
X010616Y008037D01*
X010616Y008115D02*
X010712Y008115D01*
X010712Y008194D02*
X010616Y008194D01*
X010616Y008272D02*
X010712Y008272D01*
X010712Y008351D02*
X010631Y008351D01*
X010636Y008429D02*
X010712Y008429D01*
X010636Y008446D02*
X010301Y008446D01*
X010636Y008446D01*
X010636Y008508D02*
X010712Y008508D01*
X010712Y008586D02*
X010611Y008586D01*
X010616Y008665D02*
X010712Y008665D01*
X010712Y008743D02*
X010616Y008743D01*
X010605Y008822D02*
X010712Y008822D01*
X010712Y008900D02*
X010456Y008900D01*
X010598Y008979D02*
X010712Y008979D01*
X010712Y009057D02*
X010623Y009057D01*
X010623Y009136D02*
X010712Y009136D01*
X010712Y009214D02*
X010623Y009214D01*
X010623Y009293D02*
X010712Y009293D01*
X010712Y009371D02*
X010623Y009371D01*
X010623Y009450D02*
X010712Y009450D01*
X010712Y009528D02*
X010591Y009528D01*
X010626Y009607D02*
X010712Y009607D01*
X010712Y009685D02*
X010669Y009685D01*
X010669Y009764D02*
X010712Y009764D01*
X010712Y009842D02*
X010669Y009842D01*
X010669Y009921D02*
X010712Y009921D01*
X010712Y009999D02*
X010669Y009999D01*
X010669Y010078D02*
X010712Y010078D01*
X010712Y010156D02*
X010669Y010156D01*
X010712Y010235D02*
X010616Y010235D01*
X010663Y010313D02*
X010712Y010313D01*
X010712Y010392D02*
X010669Y010392D01*
X010669Y010470D02*
X010712Y010470D01*
X010712Y010549D02*
X010669Y010549D01*
X010669Y010627D02*
X010712Y010627D01*
X010712Y010706D02*
X010669Y010706D01*
X010669Y010784D02*
X010712Y010784D01*
X010712Y010863D02*
X010684Y010863D01*
X010689Y010941D02*
X010712Y010941D01*
X010712Y011020D02*
X010689Y011020D01*
X010712Y011098D02*
X010392Y011098D01*
X010312Y011098D02*
X009362Y011098D01*
X009362Y011020D02*
X010015Y011020D01*
X010015Y011075D02*
X010015Y010880D01*
X010024Y010845D01*
X010035Y010827D01*
X010035Y010765D01*
X010020Y010765D01*
X010020Y010782D01*
X009950Y010852D01*
X009378Y010852D01*
X009362Y010836D01*
X009362Y011303D01*
X009716Y011303D01*
X009787Y011374D01*
X009787Y011575D01*
X010035Y011575D01*
X010035Y011518D01*
X010095Y011459D01*
X010069Y011444D01*
X010043Y011418D01*
X010024Y011386D01*
X010015Y011350D01*
X010015Y011155D01*
X010312Y011155D01*
X010312Y011075D01*
X010015Y011075D01*
X010015Y011177D02*
X009362Y011177D01*
X009362Y011255D02*
X010015Y011255D01*
X010015Y011334D02*
X009747Y011334D01*
X009787Y011412D02*
X010040Y011412D01*
X010063Y011491D02*
X009787Y011491D01*
X009787Y011569D02*
X010035Y011569D01*
X010035Y012040D02*
X009771Y012040D01*
X010035Y012119D02*
X008209Y012119D01*
X008223Y012092D02*
X008193Y012151D01*
X008154Y012204D01*
X008108Y012250D01*
X008055Y012289D01*
X007996Y012318D01*
X007934Y012339D01*
X007876Y012348D01*
X007876Y011972D01*
X008252Y011972D01*
X008243Y012030D01*
X008223Y012092D01*
X008240Y012040D02*
X008933Y012040D01*
X008917Y011962D02*
X007876Y011962D01*
X007876Y011892D02*
X008252Y011892D01*
X008243Y011834D01*
X008223Y011772D01*
X008193Y011713D01*
X008154Y011660D01*
X008108Y011614D01*
X008055Y011575D01*
X007996Y011545D01*
X007934Y011525D01*
X007876Y011516D01*
X007876Y011892D01*
X007876Y011883D02*
X007796Y011883D01*
X007796Y011805D02*
X007876Y011805D01*
X007876Y011726D02*
X007796Y011726D01*
X007796Y011648D02*
X007876Y011648D01*
X007876Y011569D02*
X007796Y011569D01*
X007629Y011569D02*
X007534Y011569D01*
X007534Y011491D02*
X008285Y011491D01*
X008253Y011412D02*
X007534Y011412D01*
X007617Y011334D02*
X007687Y011334D01*
X008043Y011569D02*
X008347Y011569D01*
X008486Y011648D02*
X008142Y011648D01*
X008199Y011726D02*
X008917Y011726D01*
X008917Y011648D02*
X008617Y011648D01*
X008757Y011569D02*
X008917Y011569D01*
X008917Y011491D02*
X008818Y011491D01*
X008851Y011412D02*
X008917Y011412D01*
X008942Y011334D02*
X008852Y011334D01*
X008837Y011255D02*
X008942Y011255D01*
X009362Y010941D02*
X010015Y010941D01*
X010020Y010863D02*
X009362Y010863D01*
X010018Y010784D02*
X010035Y010784D01*
X010689Y011177D02*
X010712Y011177D01*
X010712Y011255D02*
X010689Y011255D01*
X010689Y011334D02*
X010712Y011334D01*
X010712Y011412D02*
X010664Y011412D01*
X010641Y011491D02*
X010712Y011491D01*
X010712Y011569D02*
X010669Y011569D01*
X010669Y011648D02*
X010712Y011648D01*
X010712Y011726D02*
X010669Y011726D01*
X010669Y011805D02*
X010712Y011805D01*
X010712Y011883D02*
X010669Y011883D01*
X010669Y011962D02*
X010712Y011962D01*
X010712Y012040D02*
X010669Y012040D01*
X010669Y012119D02*
X010712Y012119D01*
X010712Y012197D02*
X010669Y012197D01*
X010669Y012276D02*
X010712Y012276D01*
X010712Y012354D02*
X010669Y012354D01*
X010669Y012433D02*
X010712Y012433D01*
X010712Y012511D02*
X010669Y012511D01*
X010661Y012590D02*
X010712Y012590D01*
X010712Y012668D02*
X010647Y012668D01*
X010688Y012747D02*
X010712Y012747D01*
X010712Y012825D02*
X010689Y012825D01*
X010689Y012904D02*
X010712Y012904D01*
X010712Y012982D02*
X010392Y012982D01*
X010392Y013025D02*
X010689Y013025D01*
X010689Y013220D01*
X010679Y013255D01*
X010661Y013287D01*
X010635Y013313D01*
X010603Y013332D01*
X010567Y013341D01*
X010392Y013341D01*
X010392Y013025D01*
X010392Y013061D02*
X010312Y013061D01*
X010312Y013139D02*
X010392Y013139D01*
X010392Y013218D02*
X010312Y013218D01*
X010312Y013296D02*
X010392Y013296D01*
X010652Y013296D02*
X010712Y013296D01*
X010712Y013218D02*
X010689Y013218D01*
X010689Y013139D02*
X010712Y013139D01*
X010712Y013061D02*
X010689Y013061D01*
X010712Y013375D02*
X008722Y013375D01*
X008724Y013296D02*
X010052Y013296D01*
X010015Y013218D02*
X008724Y013218D01*
X008724Y013139D02*
X008911Y013139D01*
X008906Y013131D02*
X008897Y013095D01*
X008897Y012841D01*
X009312Y012841D01*
X009312Y012761D01*
X009392Y012761D01*
X009392Y012841D01*
X009807Y012841D01*
X009807Y013095D01*
X009797Y013131D01*
X009779Y013163D01*
X009753Y013189D01*
X009721Y013207D01*
X009685Y013217D01*
X009392Y013217D01*
X009392Y012841D01*
X009312Y012841D01*
X009312Y013217D01*
X009018Y013217D01*
X008983Y013207D01*
X008951Y013189D01*
X008925Y013163D01*
X008906Y013131D01*
X008897Y013061D02*
X008724Y013061D01*
X008724Y012955D02*
X008270Y012955D01*
X008270Y012501D01*
X008602Y012501D01*
X008638Y012510D01*
X008670Y012529D01*
X008696Y012555D01*
X008715Y012587D01*
X008724Y012622D01*
X008724Y012955D01*
X008724Y012904D02*
X008897Y012904D01*
X008897Y012982D02*
X008270Y012982D01*
X008270Y012904D02*
X008190Y012904D01*
X008190Y012955D02*
X008190Y012501D01*
X007857Y012501D01*
X007821Y012510D01*
X007789Y012529D01*
X007763Y012555D01*
X007745Y012587D01*
X007735Y012622D01*
X007735Y012955D01*
X008190Y012955D01*
X008190Y012982D02*
X007285Y012982D01*
X007285Y012904D02*
X007205Y012904D01*
X007205Y012982D02*
X006498Y012982D01*
X006498Y012904D02*
X006418Y012904D01*
X006418Y012982D02*
X005514Y012982D01*
X005514Y012955D02*
X005968Y012955D01*
X005968Y012622D01*
X005959Y012587D01*
X005940Y012555D01*
X005914Y012529D01*
X005882Y012510D01*
X005847Y012501D01*
X005514Y012501D01*
X005514Y012955D01*
X005514Y012904D02*
X005434Y012904D01*
X005434Y012955D02*
X005434Y012501D01*
X005101Y012501D01*
X005065Y012510D01*
X005034Y012529D01*
X005007Y012555D01*
X004989Y012587D01*
X004979Y012622D01*
X004979Y012955D01*
X005434Y012955D01*
X005434Y012982D02*
X004869Y012982D01*
X004869Y012904D02*
X004979Y012904D01*
X004979Y012825D02*
X004869Y012825D01*
X004869Y012747D02*
X004979Y012747D01*
X004979Y012668D02*
X004818Y012668D01*
X004877Y012590D02*
X004988Y012590D01*
X005064Y012511D02*
X004889Y012511D01*
X004889Y012433D02*
X008932Y012433D01*
X008925Y012440D02*
X008951Y012414D01*
X008983Y012395D01*
X009018Y012386D01*
X009312Y012386D01*
X009312Y012761D01*
X008897Y012761D01*
X008897Y012507D01*
X008906Y012472D01*
X008925Y012440D01*
X008897Y012511D02*
X008640Y012511D01*
X008715Y012590D02*
X008897Y012590D01*
X008897Y012668D02*
X008724Y012668D01*
X008724Y012747D02*
X008897Y012747D01*
X008724Y012825D02*
X009312Y012825D01*
X009312Y012747D02*
X009392Y012747D01*
X009392Y012761D02*
X009392Y012386D01*
X009685Y012386D01*
X009721Y012395D01*
X009753Y012414D01*
X009779Y012440D01*
X009797Y012472D01*
X009807Y012507D01*
X009807Y012761D01*
X009392Y012761D01*
X009392Y012825D02*
X010015Y012825D01*
X010016Y012747D02*
X009807Y012747D01*
X009807Y012668D02*
X010057Y012668D01*
X010043Y012590D02*
X009807Y012590D01*
X009807Y012511D02*
X010035Y012511D01*
X010035Y012433D02*
X009772Y012433D01*
X010035Y012354D02*
X004592Y012354D01*
X004592Y012276D02*
X005631Y012276D01*
X005545Y012197D02*
X004889Y012197D01*
X004889Y012119D02*
X005494Y012119D01*
X005464Y012040D02*
X004876Y012040D01*
X004592Y012040D02*
X004512Y012040D01*
X004515Y011962D02*
X004592Y011962D01*
X004592Y012119D02*
X004512Y012119D01*
X004512Y012197D02*
X004592Y012197D01*
X004512Y012276D02*
X003829Y012276D01*
X003829Y012354D02*
X004512Y012354D01*
X004215Y012433D02*
X003829Y012433D01*
X003829Y012511D02*
X004215Y012511D01*
X004227Y012590D02*
X003802Y012590D01*
X003829Y012562D02*
X003759Y012632D01*
X003345Y012632D01*
X003274Y012562D01*
X003274Y012148D01*
X003345Y012077D01*
X003382Y012077D01*
X003382Y011946D01*
X003282Y011904D01*
X003197Y011820D01*
X003152Y011710D01*
X003152Y011590D01*
X003197Y011480D01*
X003282Y011396D01*
X003392Y011350D01*
X003511Y011350D01*
X003622Y011396D01*
X003706Y011480D01*
X003752Y011590D01*
X003752Y011710D01*
X003722Y011782D01*
X003722Y012077D01*
X003759Y012077D01*
X003829Y012148D01*
X003829Y012562D01*
X003759Y012668D02*
X004285Y012668D01*
X004235Y012747D02*
X003829Y012747D01*
X003552Y012945D02*
X004471Y012945D01*
X004542Y012975D02*
X004552Y012985D01*
X004542Y012974D02*
X004527Y012962D01*
X004509Y012953D01*
X004491Y012947D01*
X004471Y012945D01*
X004235Y013139D02*
X003829Y013139D01*
X003764Y013218D02*
X004235Y013218D01*
X004280Y013296D02*
X002992Y013296D01*
X002992Y013218D02*
X003339Y013218D01*
X003274Y013139D02*
X002992Y013139D01*
X002992Y013061D02*
X003274Y013061D01*
X003274Y012982D02*
X002992Y012982D01*
X002992Y012904D02*
X003274Y012904D01*
X003274Y012825D02*
X002992Y012825D01*
X002992Y012747D02*
X003274Y012747D01*
X003344Y012668D02*
X002992Y012668D01*
X002992Y012590D02*
X003302Y012590D01*
X003274Y012511D02*
X002992Y012511D01*
X002992Y012433D02*
X003274Y012433D01*
X003274Y012354D02*
X002992Y012354D01*
X002992Y012276D02*
X003274Y012276D01*
X003274Y012197D02*
X002992Y012197D01*
X002992Y012119D02*
X003303Y012119D01*
X003382Y012040D02*
X002992Y012040D01*
X002992Y011962D02*
X003382Y011962D01*
X003261Y011883D02*
X002992Y011883D01*
X002992Y011805D02*
X003191Y011805D01*
X003159Y011726D02*
X002992Y011726D01*
X002992Y011648D02*
X003152Y011648D01*
X003161Y011569D02*
X002992Y011569D01*
X002992Y011491D02*
X003193Y011491D01*
X003265Y011412D02*
X002992Y011412D01*
X002992Y011334D02*
X003928Y011334D01*
X003867Y011412D02*
X003638Y011412D01*
X003710Y011491D02*
X003861Y011491D01*
X003861Y011569D02*
X003743Y011569D01*
X003752Y011648D02*
X004177Y011648D01*
X004177Y011690D02*
X003861Y011690D01*
X003861Y011865D01*
X003870Y011901D01*
X003889Y011933D01*
X003915Y011959D01*
X003947Y011977D01*
X003982Y011987D01*
X004177Y011987D01*
X004177Y011690D01*
X004177Y011726D02*
X004257Y011726D01*
X004257Y011805D02*
X004177Y011805D01*
X004177Y011883D02*
X004257Y011883D01*
X004257Y011962D02*
X004177Y011962D01*
X004227Y012040D02*
X003722Y012040D01*
X003722Y011962D02*
X003919Y011962D01*
X003865Y011883D02*
X003722Y011883D01*
X003722Y011805D02*
X003861Y011805D01*
X003861Y011726D02*
X003745Y011726D01*
X003522Y011721D02*
X003452Y011650D01*
X003523Y011720D02*
X003535Y011735D01*
X003544Y011753D01*
X003550Y011771D01*
X003552Y011791D01*
X003800Y012119D02*
X004215Y012119D01*
X004215Y012197D02*
X003829Y012197D01*
X004017Y011255D02*
X002992Y011255D01*
X002992Y011177D02*
X003985Y011177D01*
X003982Y011098D02*
X002992Y011098D01*
X002992Y011020D02*
X003995Y011020D01*
X004027Y010941D02*
X002992Y010941D01*
X002992Y010863D02*
X003121Y010863D01*
X003115Y010859D02*
X003089Y010833D01*
X003070Y010801D01*
X003061Y010765D01*
X003061Y010590D01*
X003377Y010590D01*
X003377Y010887D01*
X003182Y010887D01*
X003147Y010877D01*
X003115Y010859D01*
X003066Y010784D02*
X002992Y010784D01*
X002992Y010706D02*
X003061Y010706D01*
X003061Y010627D02*
X002992Y010627D01*
X002992Y010549D02*
X003377Y010549D01*
X003377Y010510D02*
X003457Y010510D01*
X003457Y009990D01*
X003377Y009990D01*
X003377Y010287D01*
X003377Y010510D01*
X003377Y010470D02*
X003457Y010470D01*
X003457Y010392D02*
X003377Y010392D01*
X003377Y010313D02*
X003457Y010313D01*
X003457Y010235D02*
X003377Y010235D01*
X003377Y010156D02*
X003457Y010156D01*
X003457Y010078D02*
X003377Y010078D01*
X003377Y009999D02*
X003457Y009999D01*
X003377Y009921D02*
X002992Y009921D01*
X002992Y009999D02*
X003061Y009999D01*
X003061Y010078D02*
X002992Y010078D01*
X002992Y010156D02*
X003061Y010156D01*
X003090Y010235D02*
X002992Y010235D01*
X002992Y010313D02*
X003066Y010313D01*
X003061Y010392D02*
X002992Y010392D01*
X002992Y010470D02*
X003061Y010470D01*
X003377Y010627D02*
X003457Y010627D01*
X003457Y010706D02*
X003377Y010706D01*
X003377Y010784D02*
X003457Y010784D01*
X003457Y010863D02*
X003377Y010863D01*
X003713Y010863D02*
X003816Y010863D01*
X004282Y011110D02*
X004442Y010950D01*
X004817Y010950D01*
X005223Y011569D02*
X005661Y011569D01*
X005562Y011648D02*
X005223Y011648D01*
X005223Y011726D02*
X005504Y011726D01*
X005470Y011805D02*
X005223Y011805D01*
X005223Y011883D02*
X005453Y011883D01*
X005158Y011962D02*
X005828Y011962D01*
X005828Y012040D02*
X005908Y012040D01*
X005908Y012119D02*
X005828Y012119D01*
X005828Y012197D02*
X005908Y012197D01*
X005908Y012276D02*
X005828Y012276D01*
X005884Y012511D02*
X007820Y012511D01*
X007744Y012590D02*
X007639Y012590D01*
X007680Y012668D02*
X007735Y012668D01*
X007735Y012747D02*
X007681Y012747D01*
X007681Y012825D02*
X007735Y012825D01*
X007735Y012904D02*
X007681Y012904D01*
X007681Y013061D02*
X007735Y013061D01*
X007735Y013139D02*
X007681Y013139D01*
X007681Y013218D02*
X007735Y013218D01*
X007735Y013296D02*
X007681Y013296D01*
X007659Y013375D02*
X007737Y013375D01*
X007285Y012825D02*
X007205Y012825D01*
X007205Y012747D02*
X007285Y012747D01*
X007285Y012668D02*
X007205Y012668D01*
X007205Y012590D02*
X007285Y012590D01*
X007534Y012276D02*
X007599Y012276D01*
X007796Y012276D02*
X007876Y012276D01*
X007876Y012197D02*
X007796Y012197D01*
X007796Y012119D02*
X007876Y012119D01*
X007876Y012040D02*
X007796Y012040D01*
X008073Y012276D02*
X010035Y012276D01*
X010035Y012197D02*
X008159Y012197D01*
X008251Y011883D02*
X008917Y011883D01*
X008917Y011805D02*
X008233Y011805D01*
X008270Y012511D02*
X008190Y012511D01*
X008190Y012590D02*
X008270Y012590D01*
X008270Y012668D02*
X008190Y012668D01*
X008190Y012747D02*
X008270Y012747D01*
X008270Y012825D02*
X008190Y012825D01*
X009312Y012904D02*
X009392Y012904D01*
X009392Y012982D02*
X009312Y012982D01*
X009312Y013061D02*
X009392Y013061D01*
X009392Y013139D02*
X009312Y013139D01*
X009312Y012668D02*
X009392Y012668D01*
X009392Y012590D02*
X009312Y012590D01*
X009312Y012511D02*
X009392Y012511D01*
X009392Y012433D02*
X009312Y012433D01*
X009807Y012904D02*
X010015Y012904D01*
X010015Y013061D02*
X009807Y013061D01*
X009807Y012982D02*
X010312Y012982D01*
X010015Y013139D02*
X009792Y013139D01*
X007652Y010802D02*
X007707Y010746D01*
X007506Y010545D01*
X007218Y010545D01*
X007147Y010475D01*
X007147Y009745D01*
X007218Y009675D01*
X007586Y009675D01*
X007675Y009587D01*
X007626Y009587D01*
X007626Y009290D01*
X007546Y009290D01*
X007546Y009587D01*
X007351Y009587D01*
X007316Y009577D01*
X007284Y009559D01*
X007258Y009533D01*
X007243Y009507D01*
X007183Y009567D01*
X006651Y009567D01*
X006581Y009497D01*
X006581Y009119D01*
X006494Y009033D01*
X006494Y009370D01*
X006424Y009440D01*
X006250Y009440D01*
X006232Y009451D01*
X006196Y009460D01*
X006138Y009460D01*
X006138Y009123D01*
X006138Y009123D01*
X006138Y009460D01*
X006101Y009460D01*
X006101Y009627D01*
X006048Y009680D01*
X006052Y009690D01*
X006052Y009711D01*
X006053Y009709D01*
X006079Y009683D01*
X006111Y009665D01*
X006147Y009655D01*
X006401Y009655D01*
X006401Y010070D01*
X006481Y010070D01*
X006481Y010150D01*
X006856Y010150D01*
X006856Y010443D01*
X006847Y010479D01*
X006828Y010511D01*
X006802Y010537D01*
X006770Y010555D01*
X006735Y010565D01*
X006481Y010565D01*
X006481Y010150D01*
X006401Y010150D01*
X006401Y010565D01*
X006147Y010565D01*
X006111Y010555D01*
X006079Y010537D01*
X006053Y010511D01*
X006035Y010479D01*
X006025Y010443D01*
X006025Y010150D01*
X006401Y010150D01*
X006401Y010070D01*
X006025Y010070D01*
X006025Y009874D01*
X006006Y009920D01*
X005922Y010004D01*
X005811Y010050D01*
X005770Y010050D01*
X005823Y010103D01*
X005823Y010195D01*
X005912Y010284D01*
X006012Y010384D01*
X006012Y010584D01*
X006118Y010690D01*
X006418Y010690D01*
X006512Y010784D01*
X007000Y010784D01*
X006981Y010803D02*
X007051Y010733D01*
X007583Y010733D01*
X007652Y010802D01*
X007669Y010784D02*
X007634Y010784D01*
X007667Y010706D02*
X006434Y010706D01*
X006512Y010784D02*
X006981Y011253D01*
X006981Y010803D01*
X006981Y010863D02*
X006591Y010863D01*
X006669Y010941D02*
X006981Y010941D01*
X006981Y011020D02*
X006748Y011020D01*
X006826Y011098D02*
X006981Y011098D01*
X006981Y011177D02*
X006905Y011177D01*
X007108Y011606D02*
X006352Y010850D01*
X006052Y010850D01*
X005852Y010650D01*
X005852Y010450D01*
X005752Y010350D01*
X005486Y010350D01*
X005823Y010156D02*
X006025Y010156D01*
X006025Y010235D02*
X005863Y010235D01*
X005941Y010313D02*
X006025Y010313D01*
X006025Y010392D02*
X006012Y010392D01*
X006012Y010470D02*
X006032Y010470D01*
X006012Y010549D02*
X006099Y010549D01*
X006055Y010627D02*
X007588Y010627D01*
X007510Y010549D02*
X006782Y010549D01*
X006849Y010470D02*
X007147Y010470D01*
X007147Y010392D02*
X006856Y010392D01*
X006856Y010313D02*
X007147Y010313D01*
X007147Y010235D02*
X006856Y010235D01*
X006856Y010156D02*
X007147Y010156D01*
X007147Y010078D02*
X006481Y010078D01*
X006481Y010070D02*
X006856Y010070D01*
X006856Y009777D01*
X006847Y009741D01*
X006828Y009709D01*
X006802Y009683D01*
X006770Y009665D01*
X006735Y009655D01*
X006481Y009655D01*
X006481Y010070D01*
X006481Y009999D02*
X006401Y009999D01*
X006401Y009921D02*
X006481Y009921D01*
X006481Y009842D02*
X006401Y009842D01*
X006401Y009764D02*
X006481Y009764D01*
X006481Y009685D02*
X006401Y009685D01*
X006612Y009528D02*
X006101Y009528D01*
X006101Y009607D02*
X007655Y009607D01*
X007626Y009528D02*
X007546Y009528D01*
X007546Y009450D02*
X007626Y009450D01*
X007626Y009371D02*
X007546Y009371D01*
X007546Y009293D02*
X007626Y009293D01*
X007626Y009290D02*
X007943Y009290D01*
X007943Y009465D01*
X007939Y009480D01*
X007981Y009480D01*
X007981Y009003D01*
X008023Y008961D01*
X007943Y008882D01*
X007758Y008882D01*
X007688Y008811D01*
X007688Y008660D01*
X007655Y008693D01*
X006678Y008693D01*
X006608Y008622D01*
X006608Y008443D01*
X006617Y008434D01*
X006608Y008426D01*
X006608Y008246D01*
X006617Y008237D01*
X006608Y008229D01*
X006608Y008220D01*
X006589Y008239D01*
X006589Y008239D01*
X006412Y008416D01*
X006318Y008510D01*
X006010Y008510D01*
X006006Y008520D01*
X005926Y008600D01*
X006342Y008600D01*
X006422Y008680D01*
X006622Y008680D01*
X006722Y008780D01*
X006875Y008933D01*
X007183Y008933D01*
X007243Y008993D01*
X007258Y008967D01*
X007284Y008941D01*
X007316Y008923D01*
X007351Y008913D01*
X007546Y008913D01*
X007546Y009210D01*
X007626Y009210D01*
X007626Y008913D01*
X007821Y008913D01*
X007857Y008923D01*
X007889Y008941D01*
X007915Y008967D01*
X007933Y008999D01*
X007943Y009035D01*
X007943Y009210D01*
X007626Y009210D01*
X007626Y009290D01*
X007626Y009214D02*
X007981Y009214D01*
X007981Y009136D02*
X007943Y009136D01*
X007943Y009057D02*
X007981Y009057D01*
X008006Y008979D02*
X007922Y008979D01*
X007961Y008900D02*
X006842Y008900D01*
X006764Y008822D02*
X007698Y008822D01*
X007688Y008743D02*
X006685Y008743D01*
X006650Y008665D02*
X006407Y008665D01*
X006321Y008508D02*
X006608Y008508D01*
X006608Y008586D02*
X005940Y008586D01*
X005752Y008350D02*
X006252Y008350D01*
X006522Y008079D01*
X006552Y008009D02*
X006552Y006650D01*
X006608Y006593D01*
X006679Y006564D02*
X006925Y006564D01*
X006679Y006564D02*
X006659Y006566D01*
X006641Y006572D01*
X006623Y006581D01*
X006608Y006593D01*
X006495Y006480D02*
X006525Y006450D01*
X006542Y006433D01*
X006557Y006433D01*
X006602Y006414D01*
X006608Y006409D01*
X006608Y006278D01*
X006678Y006207D01*
X007172Y006207D01*
X007242Y006278D01*
X007242Y006457D01*
X007233Y006466D01*
X007242Y006474D01*
X007242Y006654D01*
X007233Y006663D01*
X007242Y006671D01*
X007242Y006834D01*
X007586Y006490D01*
X007634Y006490D01*
X007635Y006489D01*
X007671Y006490D01*
X007668Y006477D01*
X007668Y006398D01*
X007668Y006320D01*
X007671Y006310D01*
X007286Y006310D01*
X006486Y005510D01*
X006474Y005510D01*
X006494Y005530D01*
X006494Y006023D01*
X006424Y006094D01*
X006245Y006094D01*
X006236Y006085D01*
X006227Y006094D01*
X006048Y006094D01*
X006039Y006085D01*
X006030Y006094D01*
X005851Y006094D01*
X005842Y006085D01*
X005834Y006094D01*
X005707Y006094D01*
X005707Y006250D01*
X005811Y006250D01*
X005922Y006296D01*
X006006Y006380D01*
X006052Y006490D01*
X006052Y006610D01*
X006006Y006720D01*
X005922Y006804D01*
X005811Y006850D01*
X005692Y006850D01*
X005582Y006804D01*
X005497Y006720D01*
X005452Y006610D01*
X005452Y006490D01*
X005456Y006480D01*
X005401Y006425D01*
X005347Y006479D01*
X005352Y006490D01*
X005352Y006610D01*
X005306Y006720D01*
X005222Y006804D01*
X005111Y006850D01*
X004992Y006850D01*
X004882Y006804D01*
X004797Y006720D01*
X004785Y006691D01*
X004712Y006764D01*
X004601Y006810D01*
X004482Y006810D01*
X004372Y006764D01*
X004287Y006680D01*
X004242Y006570D01*
X004242Y006450D01*
X004246Y006440D01*
X004206Y006400D01*
X004206Y006094D01*
X004079Y006094D01*
X004012Y006026D01*
X004012Y006160D01*
X003895Y006277D01*
X003895Y006278D01*
X003895Y006452D01*
X003906Y006470D01*
X003915Y006506D01*
X003915Y006564D01*
X003579Y006564D01*
X003579Y006564D01*
X003915Y006564D01*
X003915Y006623D01*
X003915Y006624D02*
X004264Y006624D01*
X004242Y006545D02*
X003915Y006545D01*
X003915Y006623D02*
X003906Y006658D01*
X003895Y006676D01*
X003895Y006851D01*
X003887Y006859D01*
X004870Y006859D01*
X004892Y006850D02*
X005011Y006850D01*
X005122Y006896D01*
X005206Y006980D01*
X005252Y007090D01*
X005252Y007210D01*
X005206Y007320D01*
X005122Y007404D01*
X005011Y007450D01*
X004892Y007450D01*
X004782Y007404D01*
X004697Y007320D01*
X004693Y007310D01*
X004619Y007310D01*
X004652Y007390D01*
X004652Y007510D01*
X004606Y007620D01*
X004536Y007690D01*
X004693Y007690D01*
X004697Y007680D01*
X004782Y007596D01*
X004892Y007550D01*
X005011Y007550D01*
X005122Y007596D01*
X005206Y007680D01*
X005252Y007790D01*
X005252Y007910D01*
X005206Y008020D01*
X005122Y008104D01*
X005011Y008150D01*
X004892Y008150D01*
X004782Y008104D01*
X004697Y008020D01*
X004693Y008010D01*
X004338Y008010D01*
X004378Y008050D01*
X004411Y008050D01*
X004522Y008096D01*
X004606Y008180D01*
X004652Y008290D01*
X004652Y008410D01*
X004606Y008520D01*
X004522Y008604D01*
X004411Y008650D01*
X004292Y008650D01*
X004182Y008604D01*
X004097Y008520D01*
X004052Y008410D01*
X004052Y008290D01*
X004085Y008210D01*
X003895Y008020D01*
X003895Y008032D01*
X003887Y008041D01*
X003895Y008049D01*
X003895Y008229D01*
X003887Y008237D01*
X003895Y008246D01*
X003895Y008426D01*
X003887Y008434D01*
X003895Y008443D01*
X003895Y008622D01*
X003825Y008693D01*
X003735Y008693D01*
X003822Y008780D01*
X003822Y008780D01*
X003922Y008880D01*
X003922Y009280D01*
X003992Y009350D01*
X003989Y009339D01*
X003989Y009123D01*
X003989Y008908D01*
X003999Y008872D01*
X004017Y008840D01*
X004043Y008814D01*
X004075Y008796D01*
X004111Y008786D01*
X004169Y008786D01*
X004169Y009123D01*
X004169Y009123D01*
X003989Y009123D01*
X004169Y009123D01*
X004169Y009123D01*
X004169Y008786D01*
X004228Y008786D01*
X004263Y008796D01*
X004268Y008798D01*
X004272Y008796D01*
X004308Y008786D01*
X004366Y008786D01*
X004424Y008786D01*
X004460Y008796D01*
X004478Y008806D01*
X004592Y008806D01*
X004595Y008761D01*
X004725Y008646D01*
X004771Y008600D01*
X004778Y008600D01*
X004783Y008596D01*
X004847Y008600D01*
X005578Y008600D01*
X005497Y008520D01*
X005452Y008410D01*
X005452Y008290D01*
X005497Y008180D01*
X005582Y008096D01*
X005692Y008050D01*
X005811Y008050D01*
X005922Y008096D01*
X006006Y008180D01*
X006010Y008190D01*
X006186Y008190D01*
X006375Y008001D01*
X006392Y007984D01*
X006392Y006584D01*
X006448Y006527D01*
X006495Y006480D01*
X006509Y006467D02*
X006042Y006467D01*
X006052Y006545D02*
X006430Y006545D01*
X006448Y006527D02*
X006448Y006527D01*
X006392Y006624D02*
X006046Y006624D01*
X006014Y006702D02*
X006392Y006702D01*
X006392Y006781D02*
X005946Y006781D01*
X005752Y006550D02*
X005547Y006345D01*
X005547Y005777D01*
X005350Y005777D02*
X005350Y006248D01*
X005052Y006550D01*
X005246Y006781D02*
X005558Y006781D01*
X005490Y006702D02*
X005314Y006702D01*
X005346Y006624D02*
X005458Y006624D01*
X005452Y006545D02*
X005352Y006545D01*
X005359Y006467D02*
X005442Y006467D01*
X005707Y006231D02*
X006655Y006231D01*
X006608Y006310D02*
X005936Y006310D01*
X006009Y006388D02*
X006608Y006388D01*
X006444Y006074D02*
X007050Y006074D01*
X007128Y006153D02*
X005707Y006153D01*
X005744Y005777D02*
X005752Y005769D01*
X005752Y005550D01*
X005652Y005450D01*
X004652Y005450D01*
X004563Y005539D01*
X004563Y005777D01*
X004342Y003220D02*
X004436Y003205D01*
X004530Y003193D01*
X004625Y003186D01*
X004719Y003182D01*
X004814Y003181D01*
X004909Y003185D01*
X005004Y003192D01*
X005098Y003202D01*
X005192Y003217D01*
X005285Y003235D01*
X005378Y003256D01*
X005469Y003282D01*
X005559Y003310D01*
X005649Y003343D01*
X005737Y003378D01*
X005823Y003418D01*
X005908Y003460D01*
X005991Y003506D01*
X006073Y003555D01*
X006152Y003607D01*
X006229Y003662D01*
X006304Y003720D01*
X006377Y003781D01*
X006447Y003845D01*
X006515Y003911D01*
X006580Y003980D01*
X006643Y004052D01*
X006702Y004126D01*
X006759Y004202D01*
X006812Y004280D01*
X006752Y004315D01*
X006307Y003955D02*
X006112Y003955D01*
X006053Y003876D02*
X006224Y003876D01*
X006141Y003798D02*
X005961Y003798D01*
X006009Y003719D02*
X005869Y003719D01*
X005873Y003641D02*
X005776Y003641D01*
X005737Y003562D02*
X005634Y003562D01*
X005532Y003484D02*
X005466Y003484D01*
X005267Y003405D02*
X005184Y003405D01*
X005057Y003719D02*
X004728Y003719D01*
X004608Y003731D02*
X004608Y003731D01*
X004790Y003912D02*
X004822Y003893D01*
X004858Y003884D01*
X005112Y003884D01*
X005112Y004210D01*
X004736Y004210D01*
X004736Y004005D01*
X004746Y003970D01*
X004764Y003938D01*
X004790Y003912D01*
X004754Y003955D02*
X004662Y003955D01*
X004681Y004033D02*
X004736Y004033D01*
X004736Y004112D02*
X004681Y004112D01*
X004681Y004190D02*
X004736Y004190D01*
X004681Y004269D02*
X005112Y004269D01*
X005112Y004190D02*
X005192Y004190D01*
X005192Y004112D02*
X005112Y004112D01*
X005112Y004033D02*
X005192Y004033D01*
X005192Y003955D02*
X005112Y003955D01*
X005192Y004269D02*
X005835Y004269D01*
X005835Y004347D02*
X005567Y004347D01*
X005567Y004426D02*
X005835Y004426D01*
X005835Y004504D02*
X005565Y004504D01*
X005526Y004583D02*
X005836Y004583D01*
X005892Y004661D02*
X005547Y004661D01*
X005547Y004740D02*
X005835Y004740D01*
X005835Y004818D02*
X005547Y004818D01*
X005547Y004897D02*
X005835Y004897D01*
X005835Y004975D02*
X005547Y004975D01*
X005547Y005054D02*
X005835Y005054D01*
X005835Y005132D02*
X005547Y005132D01*
X005493Y005211D02*
X005835Y005211D01*
X005873Y005289D02*
X004839Y005289D01*
X004652Y005250D02*
X004952Y004950D01*
X005152Y004880D01*
X006051Y004150D02*
X006009Y004092D01*
X005964Y004035D01*
X005916Y003982D01*
X005865Y003930D01*
X005812Y003882D01*
X005756Y003836D01*
X005699Y003793D01*
X005638Y003753D01*
X005576Y003716D01*
X005512Y003683D01*
X005447Y003652D01*
X005380Y003626D01*
X005312Y003602D01*
X005242Y003582D01*
X005172Y003566D01*
X005101Y003554D01*
X005029Y003545D01*
X004957Y003540D01*
X004885Y003538D01*
X004813Y003540D01*
X004741Y003546D01*
X004670Y003556D01*
X004599Y003569D01*
X004529Y003586D01*
X004459Y003606D01*
X004391Y003630D01*
X003909Y003955D02*
X002992Y003955D01*
X002992Y004033D02*
X003890Y004033D01*
X003890Y004112D02*
X002992Y004112D01*
X002992Y004190D02*
X003890Y004190D01*
X003863Y004269D02*
X003603Y004269D01*
X003680Y004347D02*
X003719Y004347D01*
X003689Y004426D02*
X003690Y004426D01*
X003689Y004478D02*
X003689Y004575D01*
X003392Y004575D01*
X003392Y004655D01*
X003689Y004655D01*
X003689Y004850D01*
X003679Y004886D01*
X003661Y004918D01*
X003635Y004944D01*
X003609Y004959D01*
X003669Y005018D01*
X003669Y005551D01*
X003623Y005597D01*
X003692Y005666D01*
X003692Y004485D01*
X003689Y004478D01*
X003689Y004504D02*
X003692Y004504D01*
X003692Y004583D02*
X003392Y004583D01*
X003392Y004504D02*
X003312Y004504D01*
X003312Y004575D02*
X003312Y004259D01*
X003136Y004259D01*
X003101Y004268D01*
X003069Y004287D01*
X003043Y004313D01*
X003024Y004345D01*
X003015Y004380D01*
X003015Y004575D01*
X003312Y004575D01*
X003312Y004583D02*
X002992Y004583D01*
X002992Y004661D02*
X003015Y004661D01*
X003015Y004740D02*
X002992Y004740D01*
X002992Y004818D02*
X003015Y004818D01*
X003031Y004897D02*
X002992Y004897D01*
X002992Y004975D02*
X003078Y004975D01*
X003035Y005054D02*
X002992Y005054D01*
X002992Y005132D02*
X003035Y005132D01*
X003035Y005211D02*
X002992Y005211D01*
X002992Y005289D02*
X003035Y005289D01*
X003035Y005368D02*
X002992Y005368D01*
X002992Y005446D02*
X003035Y005446D01*
X003035Y005525D02*
X002992Y005525D01*
X002992Y005603D02*
X003082Y005603D01*
X003082Y005682D02*
X002992Y005682D01*
X002992Y005760D02*
X003082Y005760D01*
X003082Y005839D02*
X002992Y005839D01*
X002992Y005917D02*
X003082Y005917D01*
X003082Y005996D02*
X002992Y005996D01*
X002992Y006074D02*
X003082Y006074D01*
X003082Y006153D02*
X002992Y006153D01*
X002992Y006231D02*
X003082Y006231D01*
X003082Y006310D02*
X002992Y006310D01*
X002992Y006388D02*
X003082Y006388D01*
X003082Y006467D02*
X002992Y006467D01*
X002992Y006545D02*
X003082Y006545D01*
X003082Y006624D02*
X002992Y006624D01*
X002992Y006702D02*
X003082Y006702D01*
X003082Y006781D02*
X002992Y006781D01*
X002992Y006859D02*
X003082Y006859D01*
X003082Y006938D02*
X002992Y006938D01*
X002992Y007016D02*
X003082Y007016D01*
X003082Y007095D02*
X002992Y007095D01*
X002992Y007173D02*
X003082Y007173D01*
X003082Y007252D02*
X002992Y007252D01*
X002992Y007330D02*
X003082Y007330D01*
X003082Y007409D02*
X002992Y007409D01*
X002992Y007487D02*
X003082Y007487D01*
X003082Y007566D02*
X002992Y007566D01*
X002992Y007644D02*
X003082Y007644D01*
X003082Y007723D02*
X002992Y007723D01*
X002992Y007801D02*
X003082Y007801D01*
X003082Y007880D02*
X002992Y007880D01*
X002992Y007958D02*
X003082Y007958D01*
X003082Y008037D02*
X002992Y008037D01*
X002992Y008115D02*
X003082Y008115D01*
X003082Y008194D02*
X002992Y008194D01*
X002992Y008272D02*
X003082Y008272D01*
X003082Y008351D02*
X002992Y008351D01*
X002992Y008429D02*
X003082Y008429D01*
X003082Y008508D02*
X002992Y008508D01*
X002992Y008586D02*
X003082Y008586D01*
X003082Y008665D02*
X002992Y008665D01*
X002992Y008743D02*
X003104Y008743D01*
X003183Y008822D02*
X002992Y008822D01*
X002992Y008900D02*
X003261Y008900D01*
X002992Y008979D02*
X003540Y008979D01*
X003582Y009057D02*
X002992Y009057D01*
X002992Y009136D02*
X003582Y009136D01*
X003582Y009214D02*
X002992Y009214D01*
X002992Y009293D02*
X003582Y009293D01*
X003582Y009371D02*
X002992Y009371D01*
X002992Y009450D02*
X003611Y009450D01*
X003689Y009528D02*
X002992Y009528D01*
X002992Y009607D02*
X003768Y009607D01*
X003756Y009685D02*
X003768Y009685D01*
X004052Y009850D02*
X004086Y009885D01*
X004086Y009950D01*
X004563Y009474D01*
X004563Y009123D01*
X004760Y009123D01*
X004760Y008842D01*
X004615Y008743D02*
X003785Y008743D01*
X003853Y008665D02*
X004704Y008665D01*
X004611Y008508D02*
X005492Y008508D01*
X005460Y008429D02*
X004644Y008429D01*
X004652Y008351D02*
X005452Y008351D01*
X005459Y008272D02*
X004644Y008272D01*
X004612Y008194D02*
X005492Y008194D01*
X005562Y008115D02*
X005096Y008115D01*
X005190Y008037D02*
X006339Y008037D01*
X006392Y007958D02*
X005232Y007958D01*
X005252Y007880D02*
X006392Y007880D01*
X006392Y007801D02*
X005252Y007801D01*
X005224Y007723D02*
X006392Y007723D01*
X006392Y007644D02*
X005170Y007644D01*
X005049Y007566D02*
X006392Y007566D01*
X006392Y007487D02*
X004652Y007487D01*
X004652Y007409D02*
X004792Y007409D01*
X004708Y007330D02*
X004627Y007330D01*
X004629Y007566D02*
X004855Y007566D01*
X004733Y007644D02*
X004582Y007644D01*
X004352Y007450D02*
X004093Y007450D01*
X004022Y007421D02*
X003952Y007350D01*
X003582Y007350D01*
X003580Y007350D01*
X003578Y007351D01*
X003579Y007155D02*
X003584Y007151D01*
X003590Y007150D01*
X004952Y007150D01*
X005164Y006938D02*
X006392Y006938D01*
X006392Y007016D02*
X005221Y007016D01*
X005252Y007095D02*
X006392Y007095D01*
X006392Y007173D02*
X005252Y007173D01*
X005234Y007252D02*
X006392Y007252D01*
X006392Y007330D02*
X005196Y007330D01*
X005112Y007409D02*
X006392Y007409D01*
X006925Y007352D02*
X006927Y007350D01*
X007212Y007350D01*
X007652Y006910D01*
X007703Y006910D01*
X008003Y006910D01*
X008003Y006654D02*
X007699Y006650D01*
X007652Y006650D01*
X007147Y007155D01*
X006925Y007155D01*
X006925Y007352D02*
X007050Y007352D01*
X007050Y007548D02*
X006925Y007548D01*
X007050Y007548D02*
X007152Y007550D01*
X007272Y007550D01*
X007662Y007160D01*
X007697Y007160D01*
X008003Y007166D01*
X008003Y007422D02*
X007701Y007420D01*
X007652Y007420D01*
X007332Y007740D01*
X007292Y007740D01*
X007287Y007745D01*
X006925Y007745D01*
X006925Y007942D02*
X007390Y007942D01*
X007652Y007680D01*
X007701Y007680D01*
X008003Y007678D01*
X008003Y007934D02*
X007699Y007930D01*
X007662Y007930D01*
X007453Y008139D01*
X006925Y008139D01*
X006925Y008336D02*
X007516Y008336D01*
X007662Y008190D01*
X007703Y008190D01*
X008003Y008190D01*
X008003Y008446D02*
X007697Y008440D01*
X007682Y008440D01*
X007589Y008533D01*
X006925Y008533D01*
X006612Y008429D02*
X006399Y008429D01*
X006412Y008416D02*
X006412Y008416D01*
X006478Y008351D02*
X006608Y008351D01*
X006608Y008272D02*
X006556Y008272D01*
X006523Y008080D02*
X006535Y008065D01*
X006544Y008047D01*
X006550Y008029D01*
X006552Y008009D01*
X006260Y008115D02*
X005941Y008115D01*
X005564Y008586D02*
X004540Y008586D01*
X004366Y008786D02*
X004366Y009123D01*
X004366Y009123D01*
X004366Y008786D01*
X004366Y008822D02*
X004366Y008822D01*
X004366Y008900D02*
X004366Y008900D01*
X004366Y008979D02*
X004366Y008979D01*
X004366Y009057D02*
X004366Y009057D01*
X004366Y009123D02*
X004169Y009123D01*
X004169Y009123D01*
X004169Y009460D01*
X004111Y009460D01*
X004099Y009457D01*
X004122Y009480D01*
X004222Y009580D01*
X004222Y009588D01*
X004350Y009460D01*
X004308Y009460D01*
X004272Y009451D01*
X004268Y009448D01*
X004263Y009451D01*
X004228Y009460D01*
X004169Y009460D01*
X004169Y009123D01*
X004169Y009123D01*
X004349Y009123D01*
X004366Y009123D01*
X004366Y009123D01*
X004169Y009136D02*
X004169Y009136D01*
X004169Y009214D02*
X004169Y009214D01*
X004169Y009293D02*
X004169Y009293D01*
X004169Y009371D02*
X004169Y009371D01*
X004169Y009450D02*
X004169Y009450D01*
X004170Y009528D02*
X004282Y009528D01*
X004270Y009450D02*
X004265Y009450D01*
X003989Y009293D02*
X003935Y009293D01*
X003922Y009214D02*
X003989Y009214D01*
X003989Y009136D02*
X003922Y009136D01*
X003922Y009057D02*
X003989Y009057D01*
X003989Y008979D02*
X003922Y008979D01*
X003922Y008900D02*
X003991Y008900D01*
X004036Y008822D02*
X003864Y008822D01*
X003895Y008586D02*
X004164Y008586D01*
X004092Y008508D02*
X003895Y008508D01*
X003892Y008429D02*
X004060Y008429D01*
X004052Y008351D02*
X003895Y008351D01*
X003895Y008272D02*
X004059Y008272D01*
X004069Y008194D02*
X003895Y008194D01*
X003895Y008115D02*
X003991Y008115D01*
X003912Y008037D02*
X003891Y008037D01*
X003847Y007745D02*
X004252Y008150D01*
X004252Y008250D01*
X004352Y008350D01*
X004541Y008115D02*
X004808Y008115D01*
X004714Y008037D02*
X004365Y008037D01*
X004202Y007850D02*
X003902Y007550D01*
X003580Y007550D01*
X003579Y007548D01*
X003578Y007549D02*
X003580Y007550D01*
X003582Y007550D01*
X003579Y007745D02*
X003847Y007745D01*
X003579Y007942D02*
X003260Y007942D01*
X003252Y007950D01*
X004022Y007421D02*
X004037Y007433D01*
X004055Y007442D01*
X004073Y007448D01*
X004093Y007450D01*
X004202Y007850D02*
X004952Y007850D01*
X004693Y006990D02*
X004697Y006980D01*
X004782Y006896D01*
X004892Y006850D01*
X004858Y006781D02*
X004673Y006781D01*
X004774Y006702D02*
X004790Y006702D01*
X004542Y006510D02*
X004366Y006334D01*
X004366Y005777D01*
X004169Y005777D02*
X004169Y005433D01*
X004352Y005250D01*
X004652Y005250D01*
X004756Y004897D02*
X004326Y004897D01*
X004701Y004818D02*
X004756Y004818D01*
X004756Y004740D02*
X004701Y004740D01*
X004701Y004661D02*
X004756Y004661D01*
X004778Y004583D02*
X004682Y004583D01*
X004681Y004504D02*
X004739Y004504D01*
X004736Y004426D02*
X004681Y004426D01*
X004681Y004347D02*
X004736Y004347D01*
X004286Y004250D02*
X003852Y004450D01*
X003852Y006094D01*
X003579Y006367D01*
X003895Y006388D02*
X004206Y006388D01*
X004206Y006310D02*
X003895Y006310D01*
X003941Y006231D02*
X004206Y006231D01*
X004206Y006153D02*
X004012Y006153D01*
X004012Y006074D02*
X004060Y006074D01*
X003904Y006467D02*
X004242Y006467D01*
X004310Y006702D02*
X003895Y006702D01*
X003895Y006781D02*
X004411Y006781D01*
X004693Y006990D02*
X003895Y006990D01*
X003895Y006868D01*
X003887Y006859D01*
X003895Y006938D02*
X004740Y006938D01*
X005033Y006859D02*
X006392Y006859D01*
X006494Y005996D02*
X006971Y005996D01*
X006893Y005917D02*
X006494Y005917D01*
X006494Y005839D02*
X006814Y005839D01*
X006736Y005760D02*
X006494Y005760D01*
X006494Y005682D02*
X006657Y005682D01*
X006579Y005603D02*
X006494Y005603D01*
X006489Y005525D02*
X006500Y005525D01*
X006552Y005350D02*
X006252Y005350D01*
X006152Y005250D01*
X006152Y004985D01*
X006043Y005368D02*
X005796Y005368D01*
X005874Y005446D02*
X006122Y005446D01*
X006552Y005350D02*
X007352Y006150D01*
X008252Y006150D01*
X008352Y006250D01*
X008352Y007150D01*
X009392Y008190D01*
X010301Y008190D01*
X010301Y008446D02*
X009966Y008446D01*
X010301Y008446D01*
X010301Y008446D01*
X010301Y008446D01*
X009966Y008446D02*
X009966Y008367D01*
X009970Y008350D01*
X009325Y008350D01*
X008318Y007343D01*
X008318Y007532D01*
X008300Y007550D01*
X008318Y007568D01*
X008318Y007788D01*
X008300Y007806D01*
X008318Y007824D01*
X008318Y008044D01*
X008300Y008062D01*
X008318Y008080D01*
X008318Y008299D01*
X008300Y008318D01*
X008318Y008336D01*
X008318Y008532D01*
X009968Y008532D01*
X009966Y008524D01*
X009966Y008446D01*
X009966Y008429D02*
X008318Y008429D01*
X008318Y008351D02*
X009970Y008351D01*
X009966Y008508D02*
X008318Y008508D01*
X008318Y008272D02*
X009248Y008272D01*
X009169Y008194D02*
X008318Y008194D01*
X008318Y008115D02*
X009091Y008115D01*
X009012Y008037D02*
X008318Y008037D01*
X008318Y007958D02*
X008934Y007958D01*
X008855Y007880D02*
X008318Y007880D01*
X008305Y007801D02*
X008777Y007801D01*
X008698Y007723D02*
X008318Y007723D01*
X008318Y007644D02*
X008620Y007644D01*
X008541Y007566D02*
X008315Y007566D01*
X008318Y007487D02*
X008463Y007487D01*
X008384Y007409D02*
X008318Y007409D01*
X008552Y006950D02*
X009536Y007934D01*
X010301Y007934D01*
X010301Y007678D02*
X009680Y007678D01*
X008752Y006750D01*
X008752Y006050D01*
X008452Y005750D01*
X007652Y005750D01*
X007352Y005450D01*
X007352Y005085D01*
X007952Y005185D02*
X007952Y005450D01*
X008052Y005550D01*
X008552Y005550D01*
X008952Y005950D01*
X008952Y006550D01*
X009824Y007422D01*
X010301Y007422D01*
X010301Y007166D02*
X010284Y007150D01*
X009952Y007150D01*
X009152Y006350D01*
X009152Y005850D01*
X008552Y005250D01*
X008552Y005185D01*
X009152Y005185D02*
X009152Y005550D01*
X009352Y005750D01*
X009352Y006250D01*
X010012Y006910D01*
X010301Y006910D01*
X010301Y006654D02*
X010056Y006654D01*
X009752Y006350D01*
X009752Y005185D01*
X010301Y005236D02*
X010352Y005185D01*
X010301Y005236D02*
X010301Y006398D01*
X008552Y006150D02*
X008552Y006950D01*
X008003Y006654D02*
X007752Y006650D01*
X007668Y006467D02*
X007234Y006467D01*
X007242Y006545D02*
X007530Y006545D01*
X007452Y006624D02*
X007242Y006624D01*
X007242Y006702D02*
X007373Y006702D01*
X007295Y006781D02*
X007242Y006781D01*
X007242Y006388D02*
X007668Y006388D01*
X007668Y006398D02*
X008003Y006398D01*
X008003Y006398D01*
X007668Y006398D01*
X007285Y006310D02*
X007242Y006310D01*
X007207Y006231D02*
X007195Y006231D01*
X007452Y005950D02*
X006752Y005250D01*
X006752Y004985D01*
X006152Y004315D02*
X006052Y004150D01*
X005835Y004190D02*
X005567Y004190D01*
X005567Y004112D02*
X005819Y004112D01*
X005727Y004033D02*
X005567Y004033D01*
X005549Y003955D02*
X005635Y003955D01*
X005222Y003042D02*
X005222Y003042D01*
X005142Y002934D02*
X004562Y002934D01*
X004640Y002856D02*
X005063Y002856D01*
X004985Y002777D02*
X004719Y002777D01*
X004772Y002699D02*
X004932Y002699D01*
X004932Y002620D02*
X004772Y002620D01*
X004772Y002542D02*
X004932Y002542D01*
X004932Y002463D02*
X004772Y002463D01*
X004772Y002385D02*
X004932Y002385D01*
X005002Y002306D02*
X004702Y002306D01*
X004623Y002228D02*
X005080Y002228D01*
X005159Y002149D02*
X004545Y002149D01*
X004611Y001914D02*
X005093Y001914D01*
X005015Y001835D02*
X004689Y001835D01*
X004768Y001757D02*
X004936Y001757D01*
X004912Y001678D02*
X004792Y001678D01*
X004792Y001600D02*
X004912Y001600D01*
X004912Y001443D02*
X004792Y001443D01*
X004788Y001364D02*
X004916Y001364D01*
X004994Y001286D02*
X004710Y001286D01*
X004631Y001207D02*
X005073Y001207D01*
X005312Y001521D02*
X004392Y001521D01*
X004392Y001600D02*
X004312Y001600D01*
X004312Y001678D02*
X004392Y001678D01*
X004392Y001757D02*
X004312Y001757D01*
X004312Y001835D02*
X004392Y001835D01*
X004392Y001914D02*
X004312Y001914D01*
X004093Y001914D02*
X003611Y001914D01*
X003689Y001835D02*
X004015Y001835D01*
X003936Y001757D02*
X003768Y001757D01*
X003792Y001678D02*
X003912Y001678D01*
X003912Y001600D02*
X003792Y001600D01*
X003792Y001443D02*
X003912Y001443D01*
X003916Y001364D02*
X003788Y001364D01*
X003710Y001286D02*
X003994Y001286D01*
X004073Y001207D02*
X003631Y001207D01*
X003392Y001521D02*
X004312Y001521D01*
X004159Y002149D02*
X003545Y002149D01*
X003623Y002228D02*
X004080Y002228D01*
X004002Y002306D02*
X003702Y002306D01*
X003772Y002385D02*
X003932Y002385D01*
X003932Y002463D02*
X003772Y002463D01*
X003772Y002542D02*
X003904Y002542D01*
X003826Y002620D02*
X003772Y002620D01*
X003823Y002623D02*
X003823Y002623D01*
X003802Y002699D02*
X003772Y002699D01*
X003781Y002777D02*
X003719Y002777D01*
X004352Y002550D02*
X004316Y002544D01*
X004280Y002541D01*
X004244Y002542D01*
X004209Y002547D01*
X004174Y002556D01*
X004140Y002568D01*
X004107Y002584D01*
X004077Y002603D01*
X004048Y002625D01*
X004022Y002650D01*
X003999Y002678D01*
X003979Y002707D01*
X003962Y002739D01*
X003949Y002773D01*
X003939Y002807D01*
X003932Y002843D01*
X003930Y002879D01*
X003931Y002915D01*
X003937Y002951D01*
X003945Y002986D01*
X003958Y003019D01*
X003974Y003052D01*
X003993Y003082D01*
X004015Y003110D01*
X004041Y003136D01*
X004068Y003159D01*
X004098Y003179D01*
X004130Y003196D01*
X004164Y003209D01*
X004199Y003219D01*
X004234Y003225D01*
X004270Y003227D01*
X004306Y003225D01*
X004342Y003220D01*
X003392Y004269D02*
X003312Y004269D01*
X003312Y004347D02*
X003392Y004347D01*
X003392Y004426D02*
X003312Y004426D01*
X003101Y004269D02*
X002992Y004269D01*
X002992Y004347D02*
X003024Y004347D01*
X003015Y004426D02*
X002992Y004426D01*
X002992Y004504D02*
X003015Y004504D01*
X003689Y004661D02*
X003692Y004661D01*
X003689Y004740D02*
X003692Y004740D01*
X003689Y004818D02*
X003692Y004818D01*
X003692Y004897D02*
X003673Y004897D01*
X003692Y004975D02*
X003625Y004975D01*
X003669Y005054D02*
X003692Y005054D01*
X003692Y005132D02*
X003669Y005132D01*
X003669Y005211D02*
X003692Y005211D01*
X003692Y005289D02*
X003669Y005289D01*
X003669Y005368D02*
X003692Y005368D01*
X003692Y005446D02*
X003669Y005446D01*
X003669Y005525D02*
X003692Y005525D01*
X003692Y005603D02*
X003629Y005603D01*
X003452Y005850D02*
X003252Y005650D01*
X003252Y005550D01*
X003352Y005450D01*
X003352Y005285D01*
X003252Y006750D02*
X003263Y006761D01*
X003579Y006761D01*
X004169Y008822D02*
X004169Y008822D01*
X004169Y008900D02*
X004169Y008900D01*
X004169Y008979D02*
X004169Y008979D01*
X004169Y009057D02*
X004169Y009057D01*
X004852Y009650D02*
X005052Y009650D01*
X005350Y009352D01*
X005350Y009123D01*
X005547Y009123D02*
X005552Y009119D01*
X005552Y008850D01*
X005472Y008770D01*
X005744Y009123D02*
X005744Y009358D01*
X005652Y009450D01*
X005552Y009450D01*
X004952Y010050D01*
X004952Y010215D01*
X004817Y010350D01*
X005486Y010950D02*
X005586Y011050D01*
X006252Y011050D01*
X006852Y011650D01*
X006852Y011932D01*
X007108Y011932D02*
X007108Y011606D01*
X006852Y012590D02*
X006851Y012590D01*
X006498Y012590D02*
X006418Y012590D01*
X006418Y012668D02*
X006498Y012668D01*
X006498Y012747D02*
X006418Y012747D01*
X006418Y012825D02*
X006498Y012825D01*
X006023Y012825D02*
X005968Y012825D01*
X005968Y012747D02*
X006023Y012747D01*
X006024Y012668D02*
X005968Y012668D01*
X005959Y012590D02*
X006065Y012590D01*
X006104Y012276D02*
X006169Y012276D01*
X006023Y012904D02*
X005968Y012904D01*
X005968Y013061D02*
X006023Y013061D01*
X006023Y013139D02*
X005968Y013139D01*
X005968Y013218D02*
X006023Y013218D01*
X006023Y013296D02*
X005968Y013296D01*
X005966Y013375D02*
X006044Y013375D01*
X005514Y012825D02*
X005434Y012825D01*
X005434Y012747D02*
X005514Y012747D01*
X005514Y012668D02*
X005434Y012668D01*
X005434Y012590D02*
X005514Y012590D01*
X005514Y012511D02*
X005434Y012511D01*
X004979Y013061D02*
X004869Y013061D01*
X004869Y013139D02*
X004979Y013139D01*
X004979Y013218D02*
X004869Y013218D01*
X004823Y013296D02*
X004979Y013296D01*
X004981Y013375D02*
X002992Y013375D01*
X007252Y003880D02*
X006885Y003634D01*
X006513Y003397D01*
X006135Y003169D01*
X005752Y002950D01*
X005911Y002856D02*
X006063Y002856D01*
X006052Y002934D02*
X006142Y002934D01*
X005985Y002777D02*
X005776Y002777D01*
X005772Y002699D02*
X005932Y002699D01*
X005932Y002620D02*
X005772Y002620D01*
X005772Y002542D02*
X005932Y002542D01*
X005932Y002463D02*
X005772Y002463D01*
X005772Y002385D02*
X005932Y002385D01*
X006002Y002306D02*
X005702Y002306D01*
X005623Y002228D02*
X006080Y002228D01*
X006159Y002149D02*
X005545Y002149D01*
X005392Y001914D02*
X005312Y001914D01*
X005312Y001835D02*
X005392Y001835D01*
X005392Y001757D02*
X005312Y001757D01*
X005312Y001678D02*
X005392Y001678D01*
X005392Y001600D02*
X005312Y001600D01*
X005351Y002550D02*
X005379Y002600D01*
X005410Y002648D01*
X005445Y002694D01*
X005481Y002738D01*
X005521Y002780D01*
X005563Y002820D01*
X005607Y002856D01*
X005653Y002891D01*
X005701Y002922D01*
X005751Y002950D01*
X003392Y001914D02*
X003312Y001914D01*
X003312Y001835D02*
X003392Y001835D01*
X003392Y001757D02*
X003312Y001757D01*
X003312Y001678D02*
X003392Y001678D01*
X003392Y001600D02*
X003312Y001600D01*
X003015Y001835D02*
X002992Y001835D01*
X002992Y001914D02*
X003093Y001914D01*
X002992Y001992D02*
X010712Y001992D01*
X010712Y001914D02*
X010611Y001914D01*
X010689Y001835D02*
X010712Y001835D01*
X010392Y001835D02*
X010312Y001835D01*
X010312Y001757D02*
X010392Y001757D01*
X010392Y001678D02*
X010312Y001678D01*
X010312Y001600D02*
X010392Y001600D01*
X010392Y001914D02*
X010312Y001914D01*
X007772Y003740D02*
X007671Y003694D01*
X007572Y003645D01*
X007475Y003593D01*
X007379Y003538D01*
X007285Y003479D01*
X007194Y003417D01*
X007104Y003352D01*
X007017Y003284D01*
X006933Y003213D01*
X006850Y003139D01*
X006771Y003062D01*
X006694Y002983D01*
X006619Y002901D01*
X006548Y002817D01*
X006480Y002730D01*
X006414Y002641D01*
X006352Y002550D01*
X007452Y005950D02*
X008352Y005950D01*
X008552Y006150D01*
X007688Y008665D02*
X007684Y008665D01*
X007626Y008979D02*
X007546Y008979D01*
X007546Y009057D02*
X007626Y009057D01*
X007626Y009136D02*
X007546Y009136D01*
X007251Y008979D02*
X007229Y008979D01*
X007222Y009528D02*
X007255Y009528D01*
X007208Y009685D02*
X006804Y009685D01*
X006853Y009764D02*
X007147Y009764D01*
X007147Y009842D02*
X006856Y009842D01*
X006856Y009921D02*
X007147Y009921D01*
X007147Y009999D02*
X006856Y009999D01*
X006481Y010156D02*
X006401Y010156D01*
X006401Y010078D02*
X005797Y010078D01*
X005927Y009999D02*
X006025Y009999D01*
X006025Y009921D02*
X006006Y009921D01*
X006050Y009685D02*
X006077Y009685D01*
X005941Y009561D02*
X005752Y009750D01*
X005941Y009561D02*
X005941Y009123D01*
X006138Y009136D02*
X006138Y009136D01*
X006138Y009214D02*
X006138Y009214D01*
X006138Y009293D02*
X006138Y009293D01*
X006138Y009371D02*
X006138Y009371D01*
X006138Y009450D02*
X006138Y009450D01*
X006233Y009450D02*
X006581Y009450D01*
X006581Y009371D02*
X006493Y009371D01*
X006494Y009293D02*
X006581Y009293D01*
X006581Y009214D02*
X006494Y009214D01*
X006494Y009136D02*
X006581Y009136D01*
X006518Y009057D02*
X006494Y009057D01*
X006334Y009123D02*
X006334Y008833D01*
X006352Y008850D01*
X006401Y010235D02*
X006481Y010235D01*
X006481Y010313D02*
X006401Y010313D01*
X006401Y010392D02*
X006481Y010392D01*
X006481Y010470D02*
X006401Y010470D01*
X006401Y010549D02*
X006481Y010549D01*
X007939Y010454D02*
X007939Y009820D01*
X008284Y009820D01*
X008284Y010034D01*
X008299Y010049D01*
X008292Y010056D01*
X008273Y010088D01*
X008264Y010123D01*
X008264Y010236D01*
X008626Y010236D01*
X008626Y010264D01*
X008264Y010264D01*
X008264Y010377D01*
X008273Y010412D01*
X008292Y010444D01*
X008299Y010451D01*
X008296Y010454D01*
X007939Y010454D01*
X007939Y010392D02*
X008268Y010392D01*
X008264Y010313D02*
X007939Y010313D01*
X007939Y010235D02*
X008264Y010235D01*
X008264Y010156D02*
X007939Y010156D01*
X007939Y010078D02*
X008279Y010078D01*
X008284Y009999D02*
X007939Y009999D01*
X007939Y009921D02*
X008284Y009921D01*
X008284Y009842D02*
X007939Y009842D01*
X007943Y009450D02*
X007981Y009450D01*
X007981Y009371D02*
X007943Y009371D01*
X007943Y009293D02*
X007981Y009293D01*
X008487Y009607D02*
X010078Y009607D01*
X010035Y009685D02*
X009987Y009685D01*
X009981Y009528D02*
X009948Y009528D01*
X009657Y009528D02*
X009577Y009528D01*
X009577Y009587D02*
X009382Y009587D01*
X009347Y009577D01*
X009315Y009559D01*
X009302Y009546D01*
X009289Y009559D01*
X009257Y009577D01*
X009221Y009587D01*
X009026Y009587D01*
X009026Y009290D01*
X009577Y009290D01*
X009577Y009587D01*
X009577Y009450D02*
X009657Y009450D01*
X009657Y009371D02*
X009577Y009371D01*
X009577Y009293D02*
X009657Y009293D01*
X009577Y009214D02*
X009026Y009214D01*
X009026Y009136D02*
X008946Y009136D01*
X008946Y009057D02*
X009026Y009057D01*
X009026Y008979D02*
X008946Y008979D01*
X008651Y008979D02*
X008629Y008979D01*
X008442Y008900D02*
X010116Y008900D01*
X009975Y008979D02*
X009952Y008979D01*
X009657Y008979D02*
X009577Y008979D01*
X009577Y009057D02*
X009657Y009057D01*
X009657Y009136D02*
X009577Y009136D01*
X009026Y009293D02*
X008946Y009293D01*
X008946Y009371D02*
X009026Y009371D01*
X009026Y009450D02*
X008946Y009450D01*
X008946Y009528D02*
X009026Y009528D01*
X009184Y009685D02*
X009340Y009685D01*
X009307Y009764D02*
X009262Y009764D01*
X008655Y009528D02*
X008622Y009528D01*
X003457Y009685D02*
X003377Y009685D01*
X003377Y009764D02*
X003457Y009764D01*
X003457Y009842D02*
X003377Y009842D01*
X003078Y009685D02*
X002992Y009685D01*
X002992Y009764D02*
X003061Y009764D01*
X003061Y009842D02*
X002992Y009842D01*
D27*
X003352Y009150D03*
X004352Y008350D03*
X004852Y008450D03*
X004952Y007850D03*
X004952Y007150D03*
X005052Y006550D03*
X004542Y006510D03*
X004172Y006850D03*
X004352Y007450D03*
X005752Y006550D03*
X006152Y007750D03*
X005752Y008350D03*
X004852Y009650D03*
X005752Y009750D03*
X006752Y010750D03*
X008122Y010250D03*
X008552Y011350D03*
X009552Y011050D03*
X008652Y008150D03*
X004282Y011110D03*
X003452Y011650D03*
X003452Y005850D03*
X003252Y003850D03*
D28*
X008640Y009876D02*
X009078Y009876D01*
X009152Y009950D01*
X009152Y010250D01*
X009664Y010250D01*
X009152Y010250D02*
X009152Y011050D01*
X009152Y011699D01*
X009438Y011785D02*
X010352Y011785D01*
X010352Y012315D01*
D29*
X009438Y011785D02*
X009352Y011699D01*
X009152Y011699D01*
X008552Y011350D02*
X008552Y011050D01*
X009152Y011050D01*
X008552Y011050D02*
X007986Y011050D01*
X007826Y010624D02*
X007552Y010350D01*
X007543Y010110D01*
X007752Y010001D01*
X007752Y009750D01*
X007852Y009650D01*
X008252Y009650D01*
X008317Y009585D01*
X008317Y009250D01*
X008317Y009016D01*
X008003Y008702D01*
X010301Y008702D01*
X010286Y008716D01*
X010286Y009250D01*
X009664Y009876D02*
X009703Y009915D01*
X009703Y010585D02*
X009664Y010624D01*
X008640Y010624D02*
X007826Y010624D01*
X007317Y011050D02*
X007364Y011196D01*
X007364Y011932D01*
X006340Y011932D02*
X006340Y011438D01*
X006252Y011350D01*
X005186Y011350D01*
X004886Y011650D01*
X004052Y010615D02*
X004086Y010550D01*
X004052Y010615D02*
X004052Y009850D01*
X004052Y009650D01*
X003752Y009350D01*
X003752Y008950D01*
X003552Y008750D01*
X003352Y008750D01*
X003252Y008650D01*
X003252Y007950D01*
X003252Y006750D01*
X003252Y005550D01*
X003252Y005350D01*
X003352Y005285D01*
X004842Y008770D02*
X005472Y008770D01*
X006272Y008770D01*
X006334Y008833D01*
X006352Y008850D02*
X006552Y008850D01*
X006817Y009115D01*
X006917Y009250D01*
X004842Y008770D02*
X004760Y008842D01*
X003552Y011791D02*
X003552Y012355D01*
D30*
X009703Y010585D02*
X010352Y010585D01*
X010352Y009915D02*
X009703Y009915D01*
M02*
