G75*
%MOIN*%
%OFA0B0*%
%FSLAX24Y24*%
%IPPOS*%
%LPD*%
%AMOC8*
5,1,8,0,0,1.08239X$1,22.5*
%
%ADD10R,0.0551X0.0453*%
%ADD11R,0.0080X0.0394*%
%ADD12R,0.0394X0.0080*%
%ADD13R,0.0433X0.0394*%
%ADD14R,0.0394X0.0433*%
%ADD15R,0.0157X0.0531*%
%ADD16R,0.0591X0.0610*%
%ADD17R,0.0315X0.0315*%
%ADD18R,0.0390X0.0120*%
%ADD19R,0.0472X0.0217*%
%ADD20R,0.0630X0.0551*%
%ADD21R,0.0551X0.0630*%
D10*
X004286Y004250D03*
X004286Y004880D03*
X005152Y004880D03*
X005152Y004250D03*
D11*
X005153Y005777D03*
X004957Y005777D03*
X004760Y005777D03*
X004563Y005777D03*
X004366Y005777D03*
X004169Y005777D03*
X005350Y005777D03*
X005547Y005777D03*
X005744Y005777D03*
X005941Y005777D03*
X006138Y005777D03*
X006334Y005777D03*
X006334Y009123D03*
X006138Y009123D03*
X005941Y009123D03*
X005744Y009123D03*
X005547Y009123D03*
X005350Y009123D03*
X005153Y009123D03*
X004957Y009123D03*
X004760Y009123D03*
X004563Y009123D03*
X004366Y009123D03*
X004169Y009123D03*
D12*
X003579Y008533D03*
X003579Y008336D03*
X003579Y008139D03*
X003579Y007942D03*
X003579Y007745D03*
X003579Y007548D03*
X003579Y007352D03*
X003579Y007155D03*
X003579Y006958D03*
X003579Y006761D03*
X003579Y006564D03*
X003579Y006367D03*
X006925Y006367D03*
X006925Y006564D03*
X006925Y006761D03*
X006925Y006958D03*
X006925Y007155D03*
X006925Y007352D03*
X006925Y007548D03*
X006925Y007745D03*
X006925Y007942D03*
X006925Y008139D03*
X006925Y008336D03*
X006925Y008533D03*
D13*
X006917Y009250D03*
X007586Y009250D03*
X008317Y009250D03*
X008986Y009250D03*
X009617Y009250D03*
X010286Y009250D03*
X007986Y011050D03*
X007317Y011050D03*
X005486Y010950D03*
X005486Y010350D03*
X004817Y010350D03*
X004817Y010950D03*
X004886Y011650D03*
X004217Y011650D03*
X004086Y010550D03*
X004086Y009950D03*
X003417Y009950D03*
X003417Y010550D03*
D14*
X003352Y004615D03*
X003352Y005285D03*
X006152Y004985D03*
X006752Y004985D03*
X007352Y005085D03*
X007952Y005185D03*
X007952Y004515D03*
X007352Y004415D03*
X006752Y004315D03*
X006152Y004315D03*
X008552Y004515D03*
X009152Y004515D03*
X009152Y005185D03*
X008552Y005185D03*
X009752Y005185D03*
X010352Y005185D03*
X010352Y004515D03*
X009752Y004515D03*
X010352Y009915D03*
X010352Y010585D03*
X010352Y011115D03*
X010352Y011785D03*
X010352Y012315D03*
X010352Y012985D03*
X004552Y012985D03*
X004552Y012315D03*
D15*
X006340Y011932D03*
X006596Y011932D03*
X006852Y011932D03*
X007108Y011932D03*
X007364Y011932D03*
D16*
X007245Y012995D03*
X006458Y012995D03*
D17*
X003552Y012945D03*
X003552Y012355D03*
D18*
X008003Y008702D03*
X008003Y008446D03*
X008003Y008190D03*
X008003Y007934D03*
X008003Y007678D03*
X008003Y007422D03*
X008003Y007166D03*
X008003Y006910D03*
X008003Y006654D03*
X008003Y006398D03*
X010301Y006398D03*
X010301Y006654D03*
X010301Y006910D03*
X010301Y007166D03*
X010301Y007422D03*
X010301Y007678D03*
X010301Y007934D03*
X010301Y008190D03*
X010301Y008446D03*
X010301Y008702D03*
D19*
X009664Y009876D03*
X009664Y010250D03*
X009664Y010624D03*
X008640Y010624D03*
X008640Y010250D03*
X008640Y009876D03*
D20*
X009352Y011699D03*
X009352Y012801D03*
D21*
X007543Y010110D03*
X006441Y010110D03*
M02*
