G75*
%MOIN*%
%OFA0B0*%
%FSLAX24Y24*%
%IPPOS*%
%LPD*%
%AMOC8*
5,1,8,0,0,1.08239X$1,22.5*
%
%ADD10C,0.0060*%
%ADD11C,0.0050*%
%ADD12C,0.0080*%
%ADD13C,0.0100*%
%ADD14C,0.0220*%
%ADD15R,0.0180X0.0300*%
%ADD16R,0.0300X0.0180*%
%ADD17C,0.0020*%
D10*
X002852Y001300D02*
X002852Y002800D01*
X003102Y003050D01*
X003602Y003050D01*
X003852Y002800D01*
X003852Y001300D01*
X004102Y001050D01*
X004602Y001050D01*
X004852Y001300D01*
X004852Y002800D01*
X005102Y003050D01*
X005602Y003050D01*
X005852Y002800D01*
X005852Y001300D01*
X006102Y001050D01*
X006602Y001050D01*
X006852Y001300D01*
X006852Y002800D01*
X007102Y003050D01*
X007602Y003050D01*
X007852Y002800D01*
X007852Y001300D01*
X008102Y001050D01*
X008602Y001050D01*
X008852Y001300D01*
X008852Y002800D01*
X009102Y003050D01*
X009602Y003050D01*
X009852Y002800D01*
X010102Y003050D01*
X010602Y003050D01*
X010852Y002800D01*
X010852Y001300D01*
X010602Y001050D01*
X010102Y001050D01*
X009852Y001300D01*
X009852Y002800D01*
X009674Y002280D02*
X009674Y002120D01*
X009594Y002200D02*
X009754Y002200D01*
X009754Y001850D02*
X009594Y001850D01*
X009852Y001300D02*
X009602Y001050D01*
X009102Y001050D01*
X008852Y001300D01*
X008754Y001850D02*
X008594Y001850D01*
X008674Y002120D02*
X008674Y002280D01*
X008594Y002200D02*
X008754Y002200D01*
X008852Y002800D02*
X008602Y003050D01*
X008102Y003050D01*
X007852Y002800D01*
X008198Y003180D02*
X008424Y003407D01*
X008424Y003464D01*
X008368Y003520D01*
X008254Y003520D01*
X008198Y003464D01*
X008198Y003180D02*
X008424Y003180D01*
X009198Y003180D02*
X009424Y003180D01*
X009311Y003180D02*
X009311Y003520D01*
X009198Y003407D01*
X010198Y003464D02*
X010198Y003237D01*
X010424Y003464D01*
X010424Y003237D01*
X010368Y003180D01*
X010254Y003180D01*
X010198Y003237D01*
X010198Y003464D02*
X010254Y003520D01*
X010368Y003520D01*
X010424Y003464D01*
X010674Y002280D02*
X010674Y002120D01*
X010594Y002200D02*
X010754Y002200D01*
X010754Y001850D02*
X010594Y001850D01*
X007852Y001300D02*
X007602Y001050D01*
X007102Y001050D01*
X006852Y001300D01*
X006754Y001850D02*
X006594Y001850D01*
X006674Y002120D02*
X006674Y002280D01*
X006594Y002200D02*
X006754Y002200D01*
X006852Y002800D02*
X006602Y003050D01*
X006102Y003050D01*
X005852Y002800D01*
X005674Y002280D02*
X005674Y002120D01*
X005594Y002200D02*
X005754Y002200D01*
X005754Y001850D02*
X005594Y001850D01*
X005852Y001300D02*
X005602Y001050D01*
X005102Y001050D01*
X004852Y001300D01*
X004754Y001850D02*
X004594Y001850D01*
X004674Y002120D02*
X004674Y002280D01*
X004594Y002200D02*
X004754Y002200D01*
X004852Y002800D02*
X004602Y003050D01*
X004102Y003050D01*
X003852Y002800D01*
X003674Y002280D02*
X003674Y002120D01*
X003594Y002200D02*
X003754Y002200D01*
X003754Y001850D02*
X003594Y001850D01*
X003852Y001300D02*
X003602Y001050D01*
X003102Y001050D01*
X002852Y001300D01*
X003198Y003180D02*
X003198Y003237D01*
X003424Y003464D01*
X003424Y003520D01*
X003198Y003520D01*
X004198Y003350D02*
X004368Y003350D01*
X004424Y003293D01*
X004424Y003237D01*
X004368Y003180D01*
X004254Y003180D01*
X004198Y003237D01*
X004198Y003350D01*
X004311Y003464D01*
X004424Y003520D01*
X005198Y003520D02*
X005198Y003350D01*
X005311Y003407D01*
X005368Y003407D01*
X005424Y003350D01*
X005424Y003237D01*
X005368Y003180D01*
X005254Y003180D01*
X005198Y003237D01*
X005198Y003520D02*
X005424Y003520D01*
X006198Y003350D02*
X006424Y003350D01*
X006368Y003180D02*
X006368Y003520D01*
X006198Y003350D01*
X007198Y003237D02*
X007254Y003180D01*
X007368Y003180D01*
X007424Y003237D01*
X007424Y003293D01*
X007368Y003350D01*
X007311Y003350D01*
X007368Y003350D02*
X007424Y003407D01*
X007424Y003464D01*
X007368Y003520D01*
X007254Y003520D01*
X007198Y003464D01*
X007674Y002280D02*
X007674Y002120D01*
X007594Y002200D02*
X007754Y002200D01*
X007754Y001850D02*
X007594Y001850D01*
X008253Y006304D02*
X010051Y006304D01*
X010051Y008796D01*
X008253Y008796D01*
X008253Y006304D01*
X008492Y008446D02*
X008494Y008472D01*
X008500Y008498D01*
X008509Y008522D01*
X008522Y008545D01*
X008538Y008566D01*
X008557Y008584D01*
X008578Y008600D01*
X008602Y008612D01*
X008626Y008620D01*
X008652Y008625D01*
X008679Y008626D01*
X008705Y008623D01*
X008730Y008616D01*
X008754Y008606D01*
X008777Y008592D01*
X008797Y008576D01*
X008814Y008556D01*
X008829Y008534D01*
X008840Y008510D01*
X008848Y008485D01*
X008852Y008459D01*
X008852Y008433D01*
X008848Y008407D01*
X008840Y008382D01*
X008829Y008358D01*
X008814Y008336D01*
X008797Y008316D01*
X008777Y008300D01*
X008754Y008286D01*
X008730Y008276D01*
X008705Y008269D01*
X008679Y008266D01*
X008652Y008267D01*
X008626Y008272D01*
X008602Y008280D01*
X008578Y008292D01*
X008557Y008308D01*
X008538Y008326D01*
X008522Y008347D01*
X008509Y008370D01*
X008500Y008394D01*
X008494Y008420D01*
X008492Y008446D01*
X008833Y009690D02*
X008833Y009727D01*
X008833Y009690D02*
X009471Y009690D01*
X009471Y009727D01*
X009471Y010044D02*
X009471Y010081D01*
X009471Y010419D02*
X009471Y010456D01*
X009471Y010773D02*
X009471Y010810D01*
X008833Y010810D01*
X008833Y010773D01*
X008936Y010644D02*
X008938Y010656D01*
X008943Y010667D01*
X008952Y010676D01*
X008963Y010681D01*
X008975Y010683D01*
X008987Y010681D01*
X008998Y010676D01*
X009007Y010667D01*
X009012Y010656D01*
X009014Y010644D01*
X009012Y010632D01*
X009007Y010621D01*
X008998Y010612D01*
X008987Y010607D01*
X008975Y010605D01*
X008963Y010607D01*
X008952Y010612D01*
X008943Y010621D01*
X008938Y010632D01*
X008936Y010644D01*
X008833Y010456D02*
X008833Y010419D01*
X008833Y010081D02*
X008833Y010044D01*
D11*
X007652Y010950D02*
X007652Y011150D01*
X008151Y011735D02*
X008348Y011735D01*
X008348Y012562D01*
X008952Y012100D02*
X009752Y012100D01*
X008348Y013428D02*
X008348Y013507D01*
X005553Y011735D02*
X005356Y011735D01*
X005356Y012562D01*
X005356Y013428D02*
X005356Y013507D01*
X004552Y011750D02*
X004552Y011550D01*
X007142Y010510D02*
X007142Y009710D01*
X006910Y005925D02*
X006743Y005925D01*
X006743Y005675D01*
X006743Y005800D02*
X006827Y005800D01*
X007019Y005717D02*
X007061Y005758D01*
X007186Y005758D01*
X007186Y005800D02*
X007186Y005675D01*
X007061Y005675D01*
X007019Y005717D01*
X007061Y005842D02*
X007144Y005842D01*
X007186Y005800D01*
X007296Y005800D02*
X007296Y005717D01*
X007337Y005675D01*
X007462Y005675D01*
X007462Y005925D01*
X007462Y005842D02*
X007337Y005842D01*
X007296Y005800D01*
X007572Y005800D02*
X007572Y005717D01*
X007614Y005675D01*
X007697Y005675D01*
X007739Y005758D02*
X007572Y005758D01*
X007572Y005800D02*
X007614Y005842D01*
X007697Y005842D01*
X007739Y005800D01*
X007739Y005758D01*
X007848Y005717D02*
X007890Y005675D01*
X008015Y005675D01*
X008124Y005717D02*
X008166Y005758D01*
X008291Y005758D01*
X008291Y005800D02*
X008291Y005675D01*
X008166Y005675D01*
X008124Y005717D01*
X008166Y005842D02*
X008249Y005842D01*
X008291Y005800D01*
X008401Y005842D02*
X008526Y005842D01*
X008567Y005800D01*
X008567Y005675D01*
X008677Y005717D02*
X008677Y005800D01*
X008718Y005842D01*
X008844Y005842D01*
X008844Y005925D02*
X008844Y005675D01*
X008718Y005675D01*
X008677Y005717D01*
X008401Y005675D02*
X008401Y005842D01*
X008015Y005842D02*
X007890Y005842D01*
X007848Y005800D01*
X007848Y005717D01*
X008953Y005717D02*
X008995Y005675D01*
X009120Y005675D01*
X009120Y005633D02*
X009078Y005592D01*
X009036Y005592D01*
X009120Y005633D02*
X009120Y005842D01*
X008953Y005842D02*
X008953Y005717D01*
X009505Y005717D02*
X009547Y005675D01*
X009631Y005675D01*
X009672Y005717D01*
X009672Y005758D01*
X009631Y005800D01*
X009505Y005800D01*
X009505Y005717D01*
X009505Y005800D02*
X009589Y005884D01*
X009672Y005925D01*
X009782Y005800D02*
X009949Y005800D01*
X010058Y005842D02*
X010225Y005675D01*
X010334Y005717D02*
X010334Y005758D01*
X010376Y005800D01*
X010459Y005800D01*
X010501Y005758D01*
X010501Y005717D01*
X010459Y005675D01*
X010376Y005675D01*
X010334Y005717D01*
X010376Y005800D02*
X010334Y005842D01*
X010334Y005884D01*
X010376Y005925D01*
X010459Y005925D01*
X010501Y005884D01*
X010501Y005842D01*
X010459Y005800D01*
X010225Y005842D02*
X010058Y005675D01*
X009907Y005675D02*
X009907Y005925D01*
X009782Y005800D01*
D12*
X007819Y009638D02*
X007385Y009638D01*
X007819Y009638D02*
X007976Y009795D01*
X007976Y010425D01*
X007819Y010582D01*
X007385Y010582D01*
X006598Y010582D02*
X006008Y010582D01*
X006008Y009638D01*
X006598Y009638D01*
X008879Y011423D02*
X009037Y011266D01*
X009667Y011266D01*
X009824Y011423D01*
X009824Y011856D01*
X009824Y012644D02*
X009824Y013234D01*
X008879Y013234D01*
X008879Y012644D01*
X008879Y011856D02*
X008879Y011423D01*
X003733Y012717D02*
X003552Y012717D01*
X003644Y012595D01*
X003552Y012717D02*
X003371Y012717D01*
X003466Y012595D02*
X003542Y012711D01*
X003892Y005234D02*
X005545Y005234D01*
X005545Y003896D01*
X003892Y003896D01*
X003892Y005234D01*
D13*
X004031Y006121D02*
X003923Y006230D01*
X003923Y008670D01*
X004031Y008779D01*
X006472Y008779D01*
X006581Y008670D01*
X006581Y006230D01*
X006472Y006121D01*
X004031Y006121D01*
X005803Y008237D02*
X005805Y008267D01*
X005811Y008297D01*
X005820Y008326D01*
X005833Y008353D01*
X005850Y008378D01*
X005869Y008401D01*
X005892Y008422D01*
X005917Y008439D01*
X005943Y008453D01*
X005972Y008463D01*
X006001Y008470D01*
X006031Y008473D01*
X006062Y008472D01*
X006092Y008467D01*
X006121Y008458D01*
X006148Y008446D01*
X006174Y008431D01*
X006198Y008412D01*
X006219Y008390D01*
X006237Y008366D01*
X006252Y008339D01*
X006263Y008311D01*
X006271Y008282D01*
X006275Y008252D01*
X006275Y008222D01*
X006271Y008192D01*
X006263Y008163D01*
X006252Y008135D01*
X006237Y008108D01*
X006219Y008084D01*
X006198Y008062D01*
X006174Y008043D01*
X006148Y008028D01*
X006121Y008016D01*
X006092Y008007D01*
X006062Y008002D01*
X006031Y008001D01*
X006001Y008004D01*
X005972Y008011D01*
X005943Y008021D01*
X005917Y008035D01*
X005892Y008052D01*
X005869Y008073D01*
X005850Y008096D01*
X005833Y008121D01*
X005820Y008148D01*
X005811Y008177D01*
X005805Y008207D01*
X005803Y008237D01*
D14*
X007252Y009238D02*
X007252Y009262D01*
X008652Y009262D02*
X008652Y009238D01*
X009952Y009238D02*
X009952Y009262D01*
X010340Y010250D02*
X010364Y010250D01*
X010364Y011450D02*
X010340Y011450D01*
X010340Y012650D02*
X010364Y012650D01*
X003752Y010562D02*
X003752Y010538D01*
X003752Y009962D02*
X003752Y009938D01*
X003364Y004950D02*
X003340Y004950D01*
D15*
X005152Y010350D03*
X005152Y010950D03*
D16*
X004552Y012650D03*
X007952Y004850D03*
X007352Y004750D03*
X006752Y004650D03*
X006152Y004650D03*
X008552Y004850D03*
X009152Y004850D03*
X009752Y004850D03*
X010352Y004850D03*
D17*
X009961Y006394D02*
X009961Y008706D01*
X008343Y008706D01*
X008343Y006394D01*
X009961Y006394D01*
M02*
