G75*
%MOIN*%
%OFA0B0*%
%FSLAX24Y24*%
%IPPOS*%
%LPD*%
%AMOC8*
5,1,8,0,0,1.08239X$1,22.5*
%
%ADD10C,0.0060*%
%ADD11C,0.0040*%
%ADD12C,0.0080*%
%ADD13C,0.0100*%
%ADD14C,0.0220*%
%ADD15C,0.0050*%
%ADD16R,0.0180X0.0300*%
%ADD17R,0.0300X0.0180*%
%ADD18C,0.0020*%
D10*
X002852Y001300D02*
X002852Y002800D01*
X003102Y003050D01*
X003602Y003050D01*
X003852Y002800D01*
X003852Y001300D01*
X004102Y001050D01*
X004602Y001050D01*
X004852Y001300D01*
X004852Y002800D01*
X005102Y003050D01*
X005602Y003050D01*
X005852Y002800D01*
X005852Y001300D01*
X006102Y001050D01*
X006602Y001050D01*
X006852Y001300D01*
X006852Y002800D01*
X007102Y003050D01*
X007602Y003050D01*
X007852Y002800D01*
X007852Y001300D01*
X008102Y001050D01*
X008602Y001050D01*
X008852Y001300D01*
X008852Y002800D01*
X009102Y003050D01*
X009602Y003050D01*
X009852Y002800D01*
X010102Y003050D01*
X010602Y003050D01*
X010852Y002800D01*
X010852Y001300D01*
X010602Y001050D01*
X010102Y001050D01*
X009852Y001300D01*
X009852Y002800D01*
X010254Y003180D02*
X010198Y003237D01*
X010424Y003464D01*
X010424Y003237D01*
X010368Y003180D01*
X010254Y003180D01*
X010198Y003237D02*
X010198Y003464D01*
X010254Y003520D01*
X010368Y003520D01*
X010424Y003464D01*
X009424Y003180D02*
X009198Y003180D01*
X009311Y003180D02*
X009311Y003520D01*
X009198Y003407D01*
X008602Y003050D02*
X008852Y002800D01*
X008602Y003050D02*
X008102Y003050D01*
X007852Y002800D01*
X008198Y003180D02*
X008424Y003407D01*
X008424Y003464D01*
X008368Y003520D01*
X008254Y003520D01*
X008198Y003464D01*
X008198Y003180D02*
X008424Y003180D01*
X007424Y003237D02*
X007368Y003180D01*
X007254Y003180D01*
X007198Y003237D01*
X007311Y003350D02*
X007368Y003350D01*
X007424Y003293D01*
X007424Y003237D01*
X007368Y003350D02*
X007424Y003407D01*
X007424Y003464D01*
X007368Y003520D01*
X007254Y003520D01*
X007198Y003464D01*
X006602Y003050D02*
X006852Y002800D01*
X006602Y003050D02*
X006102Y003050D01*
X005852Y002800D01*
X005424Y003237D02*
X005368Y003180D01*
X005254Y003180D01*
X005198Y003237D01*
X005198Y003350D02*
X005311Y003407D01*
X005368Y003407D01*
X005424Y003350D01*
X005424Y003237D01*
X005198Y003350D02*
X005198Y003520D01*
X005424Y003520D01*
X006198Y003350D02*
X006424Y003350D01*
X006368Y003180D02*
X006368Y003520D01*
X006198Y003350D01*
X004852Y002800D02*
X004602Y003050D01*
X004102Y003050D01*
X003852Y002800D01*
X004254Y003180D02*
X004368Y003180D01*
X004424Y003237D01*
X004424Y003293D01*
X004368Y003350D01*
X004198Y003350D01*
X004198Y003237D01*
X004254Y003180D01*
X004198Y003350D02*
X004311Y003464D01*
X004424Y003520D01*
X003424Y003520D02*
X003424Y003464D01*
X003198Y003237D01*
X003198Y003180D01*
X003198Y003520D02*
X003424Y003520D01*
X003852Y001300D02*
X003602Y001050D01*
X003102Y001050D01*
X002852Y001300D01*
X004852Y001300D02*
X005102Y001050D01*
X005602Y001050D01*
X005852Y001300D01*
X006852Y001300D02*
X007102Y001050D01*
X007602Y001050D01*
X007852Y001300D01*
X008852Y001300D02*
X009102Y001050D01*
X009602Y001050D01*
X009852Y001300D01*
X010051Y006304D02*
X008253Y006304D01*
X008253Y008796D01*
X010051Y008796D01*
X010051Y006304D01*
X008492Y008446D02*
X008494Y008472D01*
X008500Y008498D01*
X008509Y008522D01*
X008522Y008545D01*
X008538Y008566D01*
X008557Y008584D01*
X008578Y008600D01*
X008602Y008612D01*
X008626Y008620D01*
X008652Y008625D01*
X008679Y008626D01*
X008705Y008623D01*
X008730Y008616D01*
X008754Y008606D01*
X008777Y008592D01*
X008797Y008576D01*
X008814Y008556D01*
X008829Y008534D01*
X008840Y008510D01*
X008848Y008485D01*
X008852Y008459D01*
X008852Y008433D01*
X008848Y008407D01*
X008840Y008382D01*
X008829Y008358D01*
X008814Y008336D01*
X008797Y008316D01*
X008777Y008300D01*
X008754Y008286D01*
X008730Y008276D01*
X008705Y008269D01*
X008679Y008266D01*
X008652Y008267D01*
X008626Y008272D01*
X008602Y008280D01*
X008578Y008292D01*
X008557Y008308D01*
X008538Y008326D01*
X008522Y008347D01*
X008509Y008370D01*
X008500Y008394D01*
X008494Y008420D01*
X008492Y008446D01*
X008833Y009690D02*
X008833Y009727D01*
X008833Y009690D02*
X009471Y009690D01*
X009471Y009727D01*
X009471Y010044D02*
X009471Y010081D01*
X009471Y010419D02*
X009471Y010456D01*
X009471Y010773D02*
X009471Y010810D01*
X008833Y010810D01*
X008833Y010773D01*
X008936Y010644D02*
X008938Y010656D01*
X008943Y010667D01*
X008952Y010676D01*
X008963Y010681D01*
X008975Y010683D01*
X008987Y010681D01*
X008998Y010676D01*
X009007Y010667D01*
X009012Y010656D01*
X009014Y010644D01*
X009012Y010632D01*
X009007Y010621D01*
X008998Y010612D01*
X008987Y010607D01*
X008975Y010605D01*
X008963Y010607D01*
X008952Y010612D01*
X008943Y010621D01*
X008938Y010632D01*
X008936Y010644D01*
X008833Y010456D02*
X008833Y010419D01*
X008833Y010081D02*
X008833Y010044D01*
D11*
X008805Y005970D02*
X008805Y005770D01*
X008705Y005770D01*
X008672Y005803D01*
X008672Y005870D01*
X008705Y005903D01*
X008805Y005903D01*
X008893Y005903D02*
X008893Y005803D01*
X008926Y005770D01*
X009026Y005770D01*
X009026Y005737D02*
X008993Y005703D01*
X008959Y005703D01*
X009026Y005737D02*
X009026Y005903D01*
X009335Y005870D02*
X009435Y005870D01*
X009468Y005837D01*
X009468Y005803D01*
X009435Y005770D01*
X009368Y005770D01*
X009335Y005803D01*
X009335Y005870D01*
X009401Y005937D01*
X009468Y005970D01*
X009556Y005870D02*
X009689Y005870D01*
X009777Y005903D02*
X009910Y005770D01*
X009998Y005803D02*
X009998Y005837D01*
X010031Y005870D01*
X010098Y005870D01*
X010131Y005837D01*
X010131Y005803D01*
X010098Y005770D01*
X010031Y005770D01*
X009998Y005803D01*
X010031Y005870D02*
X009998Y005903D01*
X009998Y005937D01*
X010031Y005970D01*
X010098Y005970D01*
X010131Y005937D01*
X010131Y005903D01*
X010098Y005870D01*
X009910Y005903D02*
X009777Y005770D01*
X009656Y005770D02*
X009656Y005970D01*
X009556Y005870D01*
X008584Y005870D02*
X008584Y005770D01*
X008584Y005870D02*
X008551Y005903D01*
X008451Y005903D01*
X008451Y005770D01*
X008363Y005770D02*
X008263Y005770D01*
X008230Y005803D01*
X008263Y005837D01*
X008363Y005837D01*
X008363Y005870D02*
X008363Y005770D01*
X008363Y005870D02*
X008330Y005903D01*
X008263Y005903D01*
X008142Y005903D02*
X008042Y005903D01*
X008009Y005870D01*
X008009Y005803D01*
X008042Y005770D01*
X008142Y005770D01*
X007921Y005837D02*
X007788Y005837D01*
X007788Y005870D02*
X007821Y005903D01*
X007888Y005903D01*
X007921Y005870D01*
X007921Y005837D01*
X007888Y005770D02*
X007821Y005770D01*
X007788Y005803D01*
X007788Y005870D01*
X007700Y005903D02*
X007600Y005903D01*
X007567Y005870D01*
X007567Y005803D01*
X007600Y005770D01*
X007700Y005770D01*
X007700Y005970D01*
X007479Y005870D02*
X007479Y005770D01*
X007379Y005770D01*
X007346Y005803D01*
X007379Y005837D01*
X007479Y005837D01*
X007479Y005870D02*
X007446Y005903D01*
X007379Y005903D01*
X007258Y005970D02*
X007125Y005970D01*
X007125Y005770D01*
X007125Y005870D02*
X007192Y005870D01*
X006728Y002337D02*
X006728Y002203D01*
X006661Y002270D02*
X006795Y002270D01*
X006795Y001870D02*
X006661Y001870D01*
X005795Y001870D02*
X005661Y001870D01*
X005728Y002203D02*
X005728Y002337D01*
X005661Y002270D02*
X005795Y002270D01*
X004795Y002270D02*
X004661Y002270D01*
X004728Y002337D02*
X004728Y002203D01*
X004661Y001870D02*
X004795Y001870D01*
X003795Y001870D02*
X003661Y001870D01*
X003728Y002203D02*
X003728Y002337D01*
X003661Y002270D02*
X003795Y002270D01*
X007661Y002270D02*
X007795Y002270D01*
X007728Y002337D02*
X007728Y002203D01*
X007661Y001870D02*
X007795Y001870D01*
X008661Y001870D02*
X008795Y001870D01*
X008728Y002203D02*
X008728Y002337D01*
X008661Y002270D02*
X008795Y002270D01*
X009661Y002270D02*
X009795Y002270D01*
X009728Y002337D02*
X009728Y002203D01*
X009661Y001870D02*
X009795Y001870D01*
X010661Y001870D02*
X010795Y001870D01*
X010728Y002203D02*
X010728Y002337D01*
X010661Y002270D02*
X010795Y002270D01*
D12*
X005545Y003896D02*
X005545Y005234D01*
X003892Y005234D01*
X003892Y003896D01*
X005545Y003896D01*
X006008Y009638D02*
X006008Y010582D01*
X006598Y010582D01*
X007385Y010582D02*
X007819Y010582D01*
X007976Y010425D01*
X007976Y009795D01*
X007819Y009638D01*
X007385Y009638D01*
X006598Y009638D02*
X006008Y009638D01*
X003644Y012595D02*
X003552Y012717D01*
X003371Y012717D01*
X003466Y012595D02*
X003542Y012711D01*
X003552Y012717D02*
X003733Y012717D01*
X008879Y012644D02*
X008879Y013234D01*
X009824Y013234D01*
X009824Y012644D01*
X009824Y011856D02*
X009824Y011423D01*
X009667Y011266D01*
X009037Y011266D01*
X008879Y011423D01*
X008879Y011856D01*
D13*
X006472Y008779D02*
X006581Y008670D01*
X006581Y006230D01*
X006472Y006121D01*
X004031Y006121D01*
X003923Y006230D01*
X003923Y008670D01*
X004031Y008779D01*
X006472Y008779D01*
X005803Y008237D02*
X005805Y008267D01*
X005811Y008297D01*
X005820Y008326D01*
X005833Y008353D01*
X005850Y008378D01*
X005869Y008401D01*
X005892Y008422D01*
X005917Y008439D01*
X005943Y008453D01*
X005972Y008463D01*
X006001Y008470D01*
X006031Y008473D01*
X006062Y008472D01*
X006092Y008467D01*
X006121Y008458D01*
X006148Y008446D01*
X006174Y008431D01*
X006198Y008412D01*
X006219Y008390D01*
X006237Y008366D01*
X006252Y008339D01*
X006263Y008311D01*
X006271Y008282D01*
X006275Y008252D01*
X006275Y008222D01*
X006271Y008192D01*
X006263Y008163D01*
X006252Y008135D01*
X006237Y008108D01*
X006219Y008084D01*
X006198Y008062D01*
X006174Y008043D01*
X006148Y008028D01*
X006121Y008016D01*
X006092Y008007D01*
X006062Y008002D01*
X006031Y008001D01*
X006001Y008004D01*
X005972Y008011D01*
X005943Y008021D01*
X005917Y008035D01*
X005892Y008052D01*
X005869Y008073D01*
X005850Y008096D01*
X005833Y008121D01*
X005820Y008148D01*
X005811Y008177D01*
X005805Y008207D01*
X005803Y008237D01*
D14*
X007252Y009238D02*
X007252Y009262D01*
X008652Y009262D02*
X008652Y009238D01*
X009952Y009238D02*
X009952Y009262D01*
X010340Y010250D02*
X010364Y010250D01*
X010364Y011450D02*
X010340Y011450D01*
X010340Y012650D02*
X010364Y012650D01*
X003752Y010562D02*
X003752Y010538D01*
X003752Y009962D02*
X003752Y009938D01*
X003364Y004950D02*
X003340Y004950D01*
D15*
X007142Y009710D02*
X007142Y010510D01*
X007652Y010950D02*
X007652Y011150D01*
X008151Y011735D02*
X008348Y011735D01*
X008348Y012562D01*
X008952Y012100D02*
X009752Y012100D01*
X008348Y013428D02*
X008348Y013507D01*
X005553Y011735D02*
X005356Y011735D01*
X005356Y012562D01*
X005356Y013428D02*
X005356Y013507D01*
X004552Y011750D02*
X004552Y011550D01*
D16*
X005152Y010950D03*
X005152Y010350D03*
D17*
X004552Y012650D03*
X007952Y004850D03*
X007352Y004750D03*
X006752Y004650D03*
X006152Y004650D03*
X008552Y004850D03*
X009152Y004850D03*
X009752Y004850D03*
X010352Y004850D03*
D18*
X009961Y006394D02*
X009961Y008706D01*
X008343Y008706D01*
X008343Y006394D01*
X009961Y006394D01*
M02*
