%
M48
M72
T01C0.0200
T02C0.0354
T03C0.0400
T04C0.0472
%
T01
X3252Y3850
X3452Y5850
X4172Y6850
X4542Y6510
X5052Y6550
X4952Y7150
X4352Y7450
X4952Y7850
X4852Y8450
X4352Y8350
X3352Y9150
X4852Y9650
X5752Y9750
X6752Y10750
X8122Y10250
X8552Y11350
X9552Y11050
X8652Y8150
X6152Y7750
X5752Y8350
X5752Y6550
X4282Y11110
X3452Y11650
T02
X5868Y11932
X7836Y11932
T03
X3352Y1550
X4352Y1550
X4352Y2550
X3352Y2550
X5352Y2550
X6352Y2550
X6352Y1550
X5352Y1550
X7352Y1550
X8352Y1550
X8352Y2550
X7352Y2550
X9352Y2550
X10352Y2550
X10352Y1550
X9352Y1550
T04
X8230Y12995
X5474Y12995
M30
