M48
INCH
T01C0.0150
T02C0.0400
T03C0.0354
%
T01
X+002000Y+001250
X-000400Y+002400
X+000050Y+002896
X+000440Y+003350
X+000500Y+002150
X-002000Y-000050
X-002500Y-000200
X-004000Y-003600
X-004000Y-002165
X-004000Y+006299
X+004185Y-003514
X+003051Y+006200
X+002250Y+002559
X+004600Y+002559
X-003429Y+006200
X-002750Y+002550
X-000990Y+000350
X-003050Y+001250
T02
X+003500Y-005250
X+002500Y-005250
X+001500Y-005250
X+000500Y-005250
X-000500Y-005250
X-001500Y-005250
X-002500Y-005250
X-003500Y-005250
X-003500Y-006250
X-002500Y-006250
X-001500Y-006250
X-000500Y-006250
X+000500Y-006250
X+001500Y-006250
X+002500Y-006250
X+003500Y-006250
X-001751Y+009145
X+001751Y+009145
T03
X+000866Y+008003
X-000866Y+008003
M30
